G04 MADE WITH FRITZING*
G04 WWW.FRITZING.ORG*
G04 DOUBLE SIDED*
G04 HOLES PLATED*
G04 CONTOUR ON CENTER OF CONTOUR VECTOR*
%FSLAX26Y26*%
%MOIN*%
%ADD10C,0.065278*%
%ADD11C,0.078000*%
%ADD12C,0.062992*%
%ADD13C,0.075000*%
%ADD14C,0.092000*%
%ADD15R,0.078000X0.078000*%
%ADD16R,0.062992X0.062992*%
%ADD17R,0.092000X0.092000*%
%ADD18C,0.024000*%
G04 COPPER0*
%FSLAX26Y26*%
%MOIN*%
D10*
X2115760Y104180D03*
X2215740Y104180D03*
X2315780Y104180D03*
X2415770Y104180D03*
X2515770Y104180D03*
X1655740Y2004182D03*
X1555770Y2004182D03*
X1455760Y2004182D03*
X1355760Y2004182D03*
X1255760Y2004182D03*
X1155760Y2004182D03*
X1055760Y2004182D03*
X955755Y2004182D03*
X855755Y2004182D03*
X755741Y2004182D03*
X2515770Y2004182D03*
X2415770Y2004182D03*
X2315780Y2004182D03*
X2215740Y2004182D03*
X2115760Y2004182D03*
X2015770Y2004182D03*
X1915770Y2004182D03*
X1815760Y2004182D03*
X1215760Y104180D03*
X1115760Y104180D03*
X1315760Y104180D03*
X1415770Y104180D03*
X1515770Y104180D03*
X1615760Y104180D03*
X1715740Y104180D03*
X1815760Y104180D03*
X2015770Y104180D03*
D11*
X2308660Y1554182D03*
X2208660Y1554182D03*
D12*
X2258660Y1052620D03*
X2258660Y954190D03*
X1858660Y1052620D03*
X1858660Y954190D03*
X1458660Y1052620D03*
X1458660Y954190D03*
X1058660Y1052620D03*
X1058660Y954190D03*
X658656Y1052620D03*
X658656Y954190D03*
X258656Y1052620D03*
X258656Y954190D03*
D13*
X1958660Y1704182D03*
X1958660Y1304182D03*
X1758660Y1704182D03*
X1758660Y1304182D03*
X1558660Y1704182D03*
X1558660Y1304182D03*
X1358660Y1704182D03*
X1358660Y1304182D03*
X1158660Y1704182D03*
X1158660Y1304182D03*
X958660Y1704182D03*
X958660Y1304182D03*
X1630760Y604180D03*
X2030760Y604180D03*
X1408660Y604180D03*
X1008660Y604180D03*
D14*
X2455760Y604180D03*
X2155760Y604180D03*
X258656Y604180D03*
X558656Y604180D03*
D15*
X2308660Y1554182D03*
D16*
X2258662Y1052618D03*
X1858662Y1052618D03*
X1458662Y1052618D03*
X1058662Y1052618D03*
X658656Y1052618D03*
X258656Y1052618D03*
D17*
X2455760Y604180D03*
X258656Y604180D03*
D18*
X674404Y954180D02*
X908656Y954180D01*
D02*
X2048260Y604180D02*
X2129760Y604180D01*
D02*
X1056430Y1984054D02*
X1060760Y1854182D01*
D02*
X1080760Y1754182D02*
X1080760Y1254182D01*
D02*
X1060760Y1854182D02*
X1080760Y1754182D01*
D02*
X1080760Y1254182D02*
X930756Y1104180D01*
D02*
X930756Y1104180D02*
X930756Y954180D01*
D02*
X908656Y954180D02*
X1042910Y954180D01*
D02*
X994095Y613890D02*
X858656Y704180D01*
D02*
X858656Y704180D02*
X358656Y704180D01*
D02*
X358656Y704180D02*
X277040Y622570D01*
D02*
X258656Y1068360D02*
X258656Y1204182D01*
D02*
X258656Y1204182D02*
X358656Y1304182D01*
D02*
X358656Y1304182D02*
X941156Y1304182D01*
D02*
X584656Y604180D02*
X658656Y604180D01*
D02*
X658656Y604180D02*
X808656Y454180D01*
D02*
X808656Y454180D02*
X2408660Y454180D01*
D02*
X2458660Y504180D02*
X2456510Y578190D01*
D02*
X2408660Y454180D02*
X2458660Y504180D01*
D02*
X2030760Y621680D02*
X2030760Y1154182D01*
D02*
X2030760Y1154182D02*
X2080760Y1204182D01*
D02*
X2080760Y1204182D02*
X2080760Y1854182D01*
D02*
X2080760Y1854182D02*
X2015760Y1854182D01*
D02*
X2015760Y1854182D02*
X2015770Y1984043D01*
D02*
X1155760Y1923627D02*
X1280760Y1804182D01*
D02*
X1155760Y1984043D02*
X1155760Y1923627D01*
D02*
X1280760Y1804182D02*
X1280760Y1254182D01*
D02*
X1280760Y1254182D02*
X1180760Y1154182D01*
D02*
X1180760Y1154182D02*
X1180760Y654180D01*
D02*
X1130760Y604180D02*
X1026160Y604180D01*
D02*
X1180760Y654180D02*
X1130760Y604180D01*
G04 End of Copper0*
M02*