; NON-PLATED HOLES START AT T1
; THROUGH (PLATED) HOLES START AT T100
M48
INCH
T100C0.035000
T101C0.031497
T102C0.038000
T103C0.040278
T104C0.052000
%
T100
X017586Y013041
X013586Y017041
X014086Y006041
X009586Y017041
X015586Y013041
X020307Y006041
X010086Y006041
X019586Y017041
X011586Y017041
X013586Y013041
X017586Y017041
X009586Y013041
X015586Y017041
X019586Y013041
X016307Y006041
X011586Y013041
T101
X018586Y010526
X022586Y010526
X014586Y010526
X010586Y009541
X010586Y010526
X014586Y009541
X018586Y009541
X022586Y009541
X002586Y009541
X006586Y009541
X006586Y010526
X002586Y010526
T102
X022086Y015541
X023086Y015541
T103
X013157Y001041
X011557Y020041
X014557Y020041
X012157Y001041
X014157Y001041
X012557Y020041
X017157Y001041
X013557Y020041
X020157Y020041
X025157Y020041
X025157Y001041
X020157Y001041
X011157Y001041
X007557Y020041
X019157Y020041
X018157Y001041
X022157Y001041
X018157Y020041
X022157Y020041
X009557Y020041
X023157Y001041
X016557Y020041
X015557Y020041
X010557Y020041
X023157Y020041
X008557Y020041
X021157Y020041
X016157Y001041
X021157Y001041
X015157Y001041
X024157Y001041
X024157Y020041
T104
X021557Y006041
X024557Y006041
X002586Y006041
X005586Y006041
T00
M30
