G04 MADE WITH FRITZING*
G04 WWW.FRITZING.ORG*
G04 DOUBLE SIDED*
G04 HOLES PLATED*
G04 CONTOUR ON CENTER OF CONTOUR VECTOR*
%FSLAX26Y26*%
%MOIN*%
%ADD10R,0.001000X0.001000*%
G04 SILK0*
%FSLAX26Y26*%
%MOIN*%
D10*
X39500Y2099960D02*
X2544500Y2099960D01*
X35500Y2098960D02*
X38500Y2098960D01*
X2544500Y2098960D02*
X2545500Y2098960D01*
X33500Y2097960D02*
X34500Y2097960D01*
X2545500Y2097960D02*
X2546500Y2097960D01*
X30500Y2096960D02*
X32500Y2096960D01*
X2546500Y2096960D02*
X2547500Y2096960D01*
X29500Y2095960D02*
X30500Y2095960D01*
X2547500Y2095960D02*
X2548500Y2095960D01*
X27500Y2094960D02*
X28500Y2094960D01*
X2548500Y2094960D02*
X2549500Y2094960D01*
X25500Y2093960D02*
X26500Y2093960D01*
X2549500Y2093960D02*
X2550500Y2093960D01*
X24500Y2092960D02*
X25500Y2092960D01*
X2550500Y2092960D02*
X2551500Y2092960D01*
X23500Y2091960D02*
X23500Y2091960D01*
X2551500Y2091960D02*
X2552500Y2091960D01*
X22500Y2090960D02*
X22500Y2090960D01*
X2552500Y2090960D02*
X2553500Y2090960D01*
X21500Y2089960D02*
X21500Y2089960D01*
X2553500Y2089960D02*
X2554500Y2089960D01*
X20500Y2088960D02*
X20500Y2088960D01*
X2554500Y2088960D02*
X2555500Y2088960D01*
X19500Y2087960D02*
X19500Y2087960D01*
X2555500Y2087960D02*
X2556500Y2087960D01*
X18500Y2086960D02*
X18500Y2086960D01*
X2556500Y2086960D02*
X2557500Y2086960D01*
X18500Y2085960D02*
X18500Y2085960D01*
X2557500Y2085960D02*
X2558500Y2085960D01*
X17500Y2084960D02*
X17500Y2084960D01*
X2558500Y2084960D02*
X2559500Y2084960D01*
X16500Y2083960D02*
X16500Y2083960D01*
X2559500Y2083960D02*
X2560500Y2083960D01*
X16500Y2082960D02*
X16500Y2082960D01*
X2560500Y2082960D02*
X2561500Y2082960D01*
X15500Y2081960D02*
X15500Y2081960D01*
X2561500Y2081960D02*
X2562500Y2081960D01*
X14500Y2080960D02*
X15500Y2080960D01*
X2562500Y2080960D02*
X2563500Y2080960D01*
X14500Y2079960D02*
X14500Y2079960D01*
X2563500Y2079960D02*
X2564500Y2079960D01*
X14500Y2078960D02*
X14500Y2078960D01*
X2564500Y2078960D02*
X2565500Y2078960D01*
X13500Y2077960D02*
X13500Y2077960D01*
X2565500Y2077960D02*
X2566500Y2077960D01*
X13500Y2076960D02*
X13500Y2076960D01*
X2566500Y2076960D02*
X2567500Y2076960D01*
X12500Y2075960D02*
X12500Y2075960D01*
X2567500Y2075960D02*
X2568500Y2075960D01*
X12500Y2074960D02*
X12500Y2074960D01*
X2568500Y2074960D02*
X2569500Y2074960D01*
X12500Y2073960D02*
X12500Y2073960D01*
X2569500Y2073960D02*
X2570500Y2073960D01*
X12500Y2072960D02*
X12500Y2072960D01*
X2570500Y2072960D02*
X2571500Y2072960D01*
X11500Y2071960D02*
X11500Y2071960D01*
X2571500Y2071960D02*
X2572500Y2071960D01*
X11500Y2070960D02*
X11500Y2070960D01*
X2572500Y2070960D02*
X2573500Y2070960D01*
X11500Y2069960D02*
X11500Y2069960D01*
X2573500Y2069960D02*
X2574500Y2069960D01*
X11500Y2068960D02*
X11500Y2068960D01*
X2574500Y2068960D02*
X2575500Y2068960D01*
X11500Y2067960D02*
X11500Y2067960D01*
X2575500Y2067960D02*
X2576500Y2067960D01*
X11500Y2066960D02*
X11500Y2066960D01*
X2576500Y2066960D02*
X2577500Y2066960D01*
X11500Y2065960D02*
X11500Y2065960D01*
X2577500Y2065960D02*
X2578500Y2065960D01*
X11500Y2064960D02*
X11500Y2064960D01*
X2578500Y2064960D02*
X2579500Y2064960D01*
X11500Y2063960D02*
X11500Y2063960D01*
X2579500Y2063960D02*
X2580500Y2063960D01*
X11500Y2062960D02*
X11500Y2062960D01*
X2580500Y2062960D02*
X2581500Y2062960D01*
X11500Y2061960D02*
X11500Y2061960D01*
X2581500Y2061960D02*
X2582500Y2061960D01*
X11500Y2060960D02*
X11500Y2060960D01*
X2582500Y2060960D02*
X2583500Y2060960D01*
X11500Y2059960D02*
X11500Y2059960D01*
X2583500Y2059960D02*
X2584500Y2059960D01*
X11500Y2058960D02*
X11500Y2058960D01*
X2584500Y2058960D02*
X2585500Y2058960D01*
X11500Y2057960D02*
X11500Y2057960D01*
X2585500Y2057960D02*
X2586500Y2057960D01*
X11500Y2056960D02*
X11500Y2056960D01*
X2586500Y2056960D02*
X2587500Y2056960D01*
X11500Y2055960D02*
X11500Y2055960D01*
X2587500Y2055960D02*
X2588500Y2055960D01*
X11500Y2054960D02*
X11500Y2054960D01*
X2588500Y2054960D02*
X2589500Y2054960D01*
X11500Y2053960D02*
X11500Y2053960D01*
X2589500Y2053960D02*
X2590500Y2053960D01*
X11500Y2052960D02*
X11500Y2052960D01*
X2590500Y2052960D02*
X2591500Y2052960D01*
X11500Y2051960D02*
X11500Y2051960D01*
X2591500Y2051960D02*
X2592500Y2051960D01*
X11500Y2050960D02*
X11500Y2050960D01*
X2592500Y2050960D02*
X2593500Y2050960D01*
X11500Y2049960D02*
X11500Y2049960D01*
X2593500Y2049960D02*
X2594500Y2049960D01*
X11500Y2048960D02*
X11500Y2048960D01*
X2594500Y2048960D02*
X2595500Y2048960D01*
X11500Y2047960D02*
X11500Y2047960D01*
X2595500Y2047960D02*
X2596500Y2047960D01*
X11500Y2046960D02*
X11500Y2046960D01*
X2596500Y2046960D02*
X2597500Y2046960D01*
X11500Y2045960D02*
X11500Y2045960D01*
X2597500Y2045960D02*
X2598500Y2045960D01*
X11500Y2044960D02*
X11500Y2044960D01*
X2598500Y2044960D02*
X2599500Y2044960D01*
X11500Y2043960D02*
X11500Y2043960D01*
X2599500Y2043960D02*
X2600500Y2043960D01*
X11500Y2042960D02*
X11500Y2042960D01*
X2600500Y2042960D02*
X2601500Y2042960D01*
X11500Y2041960D02*
X11500Y2041960D01*
X2601500Y2041960D02*
X2602500Y2041960D01*
X11500Y2040960D02*
X11500Y2040960D01*
X2602500Y2040960D02*
X2603500Y2040960D01*
X11500Y2039960D02*
X11500Y2039960D01*
X2603500Y2039960D02*
X2603500Y2039960D01*
X11500Y2038960D02*
X11500Y2038960D01*
X2603500Y2038960D02*
X2603500Y2038960D01*
X11500Y2037960D02*
X11500Y2037960D01*
X2603500Y2037960D02*
X2603500Y2037960D01*
X11500Y2036960D02*
X11500Y2036960D01*
X2603500Y2036960D02*
X2603500Y2036960D01*
X11500Y2035960D02*
X11500Y2035960D01*
X2603500Y2035960D02*
X2603500Y2035960D01*
X11500Y2034960D02*
X11500Y2034960D01*
X2603500Y2034960D02*
X2603500Y2034960D01*
X11500Y2033960D02*
X11500Y2033960D01*
X2603500Y2033960D02*
X2603500Y2033960D01*
X11500Y2032960D02*
X11500Y2032960D01*
X2603500Y2032960D02*
X2603500Y2032960D01*
X11500Y2031960D02*
X11500Y2031960D01*
X2603500Y2031960D02*
X2603500Y2031960D01*
X11500Y2030960D02*
X11500Y2030960D01*
X2603500Y2030960D02*
X2603500Y2030960D01*
X11500Y2029960D02*
X11500Y2029960D01*
X2603500Y2029960D02*
X2603500Y2029960D01*
X11500Y2028960D02*
X11500Y2028960D01*
X2603500Y2028960D02*
X2603500Y2028960D01*
X11500Y2027960D02*
X11500Y2027960D01*
X2603500Y2027960D02*
X2603500Y2027960D01*
X11500Y2026960D02*
X11500Y2026960D01*
X2603500Y2026960D02*
X2603500Y2026960D01*
X11500Y2025960D02*
X11500Y2025960D01*
X2603500Y2025960D02*
X2603500Y2025960D01*
X11500Y2024960D02*
X11500Y2024960D01*
X2603500Y2024960D02*
X2603500Y2024960D01*
X11500Y2023960D02*
X11500Y2023960D01*
X2603500Y2023960D02*
X2603500Y2023960D01*
X11500Y2022960D02*
X11500Y2022960D01*
X2603500Y2022960D02*
X2603500Y2022960D01*
X11500Y2021960D02*
X11500Y2021960D01*
X2603500Y2021960D02*
X2603500Y2021960D01*
X11500Y2020960D02*
X11500Y2020960D01*
X2603500Y2020960D02*
X2603500Y2020960D01*
X11500Y2019960D02*
X11500Y2019960D01*
X2603500Y2019960D02*
X2603500Y2019960D01*
X11500Y2018960D02*
X11500Y2018960D01*
X2603500Y2018960D02*
X2603500Y2018960D01*
X11500Y2017960D02*
X11500Y2017960D01*
X2603500Y2017960D02*
X2603500Y2017960D01*
X11500Y2016960D02*
X11500Y2016960D01*
X2603500Y2016960D02*
X2603500Y2016960D01*
X11500Y2015960D02*
X11500Y2015960D01*
X2603500Y2015960D02*
X2603500Y2015960D01*
X11500Y2014960D02*
X11500Y2014960D01*
X2603500Y2014960D02*
X2603500Y2014960D01*
X11500Y2013960D02*
X11500Y2013960D01*
X2603500Y2013960D02*
X2603500Y2013960D01*
X11500Y2012960D02*
X11500Y2012960D01*
X2603500Y2012960D02*
X2603500Y2012960D01*
X11500Y2011960D02*
X11500Y2011960D01*
X2603500Y2011960D02*
X2603500Y2011960D01*
X11500Y2010960D02*
X11500Y2010960D01*
X2603500Y2010960D02*
X2603500Y2010960D01*
X11500Y2009960D02*
X11500Y2009960D01*
X2603500Y2009960D02*
X2603500Y2009960D01*
X11500Y2008960D02*
X11500Y2008960D01*
X2603500Y2008960D02*
X2603500Y2008960D01*
X11500Y2007960D02*
X11500Y2007960D01*
X2603500Y2007960D02*
X2603500Y2007960D01*
X11500Y2006960D02*
X11500Y2006960D01*
X2603500Y2006960D02*
X2603500Y2006960D01*
X11500Y2005960D02*
X11500Y2005960D01*
X2603500Y2005960D02*
X2603500Y2005960D01*
X11500Y2004960D02*
X11500Y2004960D01*
X2603500Y2004960D02*
X2603500Y2004960D01*
X11500Y2003960D02*
X11500Y2003960D01*
X2603500Y2003960D02*
X2603500Y2003960D01*
X11500Y2002960D02*
X11500Y2002960D01*
X2603500Y2002960D02*
X2603500Y2002960D01*
X11500Y2001960D02*
X11500Y2001960D01*
X2603500Y2001960D02*
X2603500Y2001960D01*
X11500Y2000960D02*
X11500Y2000960D01*
X2603500Y2000960D02*
X2603500Y2000960D01*
X11500Y1999960D02*
X11500Y1999960D01*
X2603500Y1999960D02*
X2603500Y1999960D01*
X11500Y1998960D02*
X11500Y1998960D01*
X2603500Y1998960D02*
X2603500Y1998960D01*
X11500Y1997960D02*
X11500Y1997960D01*
X2603500Y1997960D02*
X2603500Y1997960D01*
X11500Y1996960D02*
X11500Y1996960D01*
X2603500Y1996960D02*
X2603500Y1996960D01*
X11500Y1995960D02*
X11500Y1995960D01*
X2603500Y1995960D02*
X2603500Y1995960D01*
X11500Y1994960D02*
X11500Y1994960D01*
X2603500Y1994960D02*
X2603500Y1994960D01*
X11500Y1993960D02*
X11500Y1993960D01*
X2603500Y1993960D02*
X2603500Y1993960D01*
X11500Y1992960D02*
X11500Y1992960D01*
X2603500Y1992960D02*
X2603500Y1992960D01*
X11500Y1991960D02*
X11500Y1991960D01*
X2603500Y1991960D02*
X2603500Y1991960D01*
X11500Y1990960D02*
X11500Y1990960D01*
X2603500Y1990960D02*
X2603500Y1990960D01*
X11500Y1989960D02*
X11500Y1989960D01*
X2603500Y1989960D02*
X2603500Y1989960D01*
X11500Y1988960D02*
X11500Y1988960D01*
X2603500Y1988960D02*
X2603500Y1988960D01*
X11500Y1987960D02*
X11500Y1987960D01*
X2603500Y1987960D02*
X2603500Y1987960D01*
X11500Y1986960D02*
X11500Y1986960D01*
X2603500Y1986960D02*
X2603500Y1986960D01*
X11500Y1985960D02*
X11500Y1985960D01*
X2603500Y1985960D02*
X2603500Y1985960D01*
X11500Y1984960D02*
X11500Y1984960D01*
X2603500Y1984960D02*
X2603500Y1984960D01*
X11500Y1983960D02*
X11500Y1983960D01*
X2603500Y1983960D02*
X2603500Y1983960D01*
X11500Y1982960D02*
X11500Y1982960D01*
X2603500Y1982960D02*
X2603500Y1982960D01*
X11500Y1981960D02*
X11500Y1981960D01*
X2603500Y1981960D02*
X2603500Y1981960D01*
X11500Y1980960D02*
X11500Y1980960D01*
X2603500Y1980960D02*
X2603500Y1980960D01*
X11500Y1979960D02*
X11500Y1979960D01*
X2603500Y1979960D02*
X2603500Y1979960D01*
X11500Y1978960D02*
X11500Y1978960D01*
X2603500Y1978960D02*
X2603500Y1978960D01*
X11500Y1977960D02*
X11500Y1977960D01*
X2603500Y1977960D02*
X2603500Y1977960D01*
X11500Y1976960D02*
X11500Y1976960D01*
X2603500Y1976960D02*
X2603500Y1976960D01*
X11500Y1975960D02*
X11500Y1975960D01*
X2603500Y1975960D02*
X2603500Y1975960D01*
X11500Y1974960D02*
X11500Y1974960D01*
X2603500Y1974960D02*
X2603500Y1974960D01*
X11500Y1973960D02*
X11500Y1973960D01*
X2603500Y1973960D02*
X2603500Y1973960D01*
X11500Y1972960D02*
X11500Y1972960D01*
X2603500Y1972960D02*
X2603500Y1972960D01*
X11500Y1971960D02*
X11500Y1971960D01*
X2603500Y1971960D02*
X2603500Y1971960D01*
X11500Y1970960D02*
X11500Y1970960D01*
X2603500Y1970960D02*
X2603500Y1970960D01*
X11500Y1969960D02*
X11500Y1969960D01*
X2603500Y1969960D02*
X2603500Y1969960D01*
X11500Y1968960D02*
X11500Y1968960D01*
X2603500Y1968960D02*
X2603500Y1968960D01*
X11500Y1967960D02*
X11500Y1967960D01*
X2603500Y1967960D02*
X2603500Y1967960D01*
X11500Y1966960D02*
X11500Y1966960D01*
X2603500Y1966960D02*
X2603500Y1966960D01*
X11500Y1965960D02*
X11500Y1965960D01*
X2603500Y1965960D02*
X2603500Y1965960D01*
X11500Y1964960D02*
X11500Y1964960D01*
X2603500Y1964960D02*
X2603500Y1964960D01*
X11500Y1963960D02*
X11500Y1963960D01*
X2603500Y1963960D02*
X2603500Y1963960D01*
X11500Y1962960D02*
X11500Y1962960D01*
X2603500Y1962960D02*
X2603500Y1962960D01*
X11500Y1961960D02*
X11500Y1961960D01*
X2603500Y1961960D02*
X2603500Y1961960D01*
X11500Y1960960D02*
X11500Y1960960D01*
X2603500Y1960960D02*
X2603500Y1960960D01*
X11500Y1959960D02*
X11500Y1959960D01*
X2603500Y1959960D02*
X2603500Y1959960D01*
X11500Y1958960D02*
X11500Y1958960D01*
X2603500Y1958960D02*
X2603500Y1958960D01*
X11500Y1957960D02*
X11500Y1957960D01*
X2603500Y1957960D02*
X2603500Y1957960D01*
X11500Y1956960D02*
X11500Y1956960D01*
X2603500Y1956960D02*
X2603500Y1956960D01*
X11500Y1955960D02*
X11500Y1955960D01*
X2603500Y1955960D02*
X2603500Y1955960D01*
X11500Y1954960D02*
X11500Y1954960D01*
X2603500Y1954960D02*
X2603500Y1954960D01*
X11500Y1953960D02*
X11500Y1953960D01*
X2603500Y1953960D02*
X2603500Y1953960D01*
X11500Y1952960D02*
X11500Y1952960D01*
X2603500Y1952960D02*
X2603500Y1952960D01*
X11500Y1951960D02*
X11500Y1951960D01*
X2603500Y1951960D02*
X2603500Y1951960D01*
X11500Y1950960D02*
X11500Y1950960D01*
X2603500Y1950960D02*
X2603500Y1950960D01*
X11500Y1949960D02*
X11500Y1949960D01*
X2603500Y1949960D02*
X2603500Y1949960D01*
X11500Y1948960D02*
X11500Y1948960D01*
X2603500Y1948960D02*
X2603500Y1948960D01*
X11500Y1947960D02*
X11500Y1947960D01*
X2603500Y1947960D02*
X2603500Y1947960D01*
X11500Y1946960D02*
X11500Y1946960D01*
X2603500Y1946960D02*
X2603500Y1946960D01*
X11500Y1945960D02*
X11500Y1945960D01*
X2603500Y1945960D02*
X2603500Y1945960D01*
X11500Y1944960D02*
X11500Y1944960D01*
X2603500Y1944960D02*
X2603500Y1944960D01*
X11500Y1943960D02*
X11500Y1943960D01*
X2603500Y1943960D02*
X2603500Y1943960D01*
X11500Y1942960D02*
X11500Y1942960D01*
X2603500Y1942960D02*
X2603500Y1942960D01*
X11500Y1941960D02*
X11500Y1941960D01*
X2603500Y1941960D02*
X2603500Y1941960D01*
X11500Y1940960D02*
X11500Y1940960D01*
X2603500Y1940960D02*
X2603500Y1940960D01*
X11500Y1939960D02*
X11500Y1939960D01*
X2603500Y1939960D02*
X2603500Y1939960D01*
X11500Y1938960D02*
X11500Y1938960D01*
X2603500Y1938960D02*
X2603500Y1938960D01*
X11500Y1937960D02*
X11500Y1937960D01*
X2603500Y1937960D02*
X2603500Y1937960D01*
X11500Y1936960D02*
X11500Y1936960D01*
X2603500Y1936960D02*
X2603500Y1936960D01*
X11500Y1935960D02*
X11500Y1935960D01*
X2603500Y1935960D02*
X2603500Y1935960D01*
X11500Y1934960D02*
X11500Y1934960D01*
X2603500Y1934960D02*
X2603500Y1934960D01*
X11500Y1933960D02*
X11500Y1933960D01*
X2603500Y1933960D02*
X2603500Y1933960D01*
X11500Y1932960D02*
X11500Y1932960D01*
X2603500Y1932960D02*
X2603500Y1932960D01*
X11500Y1931960D02*
X11500Y1931960D01*
X2603500Y1931960D02*
X2603500Y1931960D01*
X11500Y1930960D02*
X11500Y1930960D01*
X2603500Y1930960D02*
X2603500Y1930960D01*
X11500Y1929960D02*
X11500Y1929960D01*
X2603500Y1929960D02*
X2603500Y1929960D01*
X11500Y1928960D02*
X11500Y1928960D01*
X2603500Y1928960D02*
X2603500Y1928960D01*
X11500Y1927960D02*
X11500Y1927960D01*
X2603500Y1927960D02*
X2603500Y1927960D01*
X11500Y1926960D02*
X11500Y1926960D01*
X2603500Y1926960D02*
X2603500Y1926960D01*
X11500Y1925960D02*
X11500Y1925960D01*
X2603500Y1925960D02*
X2603500Y1925960D01*
X11500Y1924960D02*
X11500Y1924960D01*
X2603500Y1924960D02*
X2603500Y1924960D01*
X11500Y1923960D02*
X11500Y1923960D01*
X2603500Y1923960D02*
X2603500Y1923960D01*
X11500Y1922960D02*
X11500Y1922960D01*
X2603500Y1922960D02*
X2603500Y1922960D01*
X11500Y1921960D02*
X11500Y1921960D01*
X2603500Y1921960D02*
X2603500Y1921960D01*
X11500Y1920960D02*
X11500Y1920960D01*
X2603500Y1920960D02*
X2603500Y1920960D01*
X11500Y1919960D02*
X11500Y1919960D01*
X2603500Y1919960D02*
X2603500Y1919960D01*
X11500Y1918960D02*
X11500Y1918960D01*
X2603500Y1918960D02*
X2603500Y1918960D01*
X11500Y1917960D02*
X11500Y1917960D01*
X2603500Y1917960D02*
X2603500Y1917960D01*
X11500Y1916960D02*
X11500Y1916960D01*
X2603500Y1916960D02*
X2603500Y1916960D01*
X11500Y1915960D02*
X11500Y1915960D01*
X2603500Y1915960D02*
X2603500Y1915960D01*
X11500Y1914960D02*
X11500Y1914960D01*
X2603500Y1914960D02*
X2603500Y1914960D01*
X11500Y1913960D02*
X11500Y1913960D01*
X2603500Y1913960D02*
X2603500Y1913960D01*
X11500Y1912960D02*
X11500Y1912960D01*
X2603500Y1912960D02*
X2603500Y1912960D01*
X11500Y1911960D02*
X11500Y1911960D01*
X2603500Y1911960D02*
X2603500Y1911960D01*
X11500Y1910960D02*
X11500Y1910960D01*
X2603500Y1910960D02*
X2603500Y1910960D01*
X11500Y1909960D02*
X11500Y1909960D01*
X2603500Y1909960D02*
X2603500Y1909960D01*
X11500Y1908960D02*
X11500Y1908960D01*
X2603500Y1908960D02*
X2603500Y1908960D01*
X11500Y1907960D02*
X11500Y1907960D01*
X2603500Y1907960D02*
X2603500Y1907960D01*
X11500Y1906960D02*
X11500Y1906960D01*
X2603500Y1906960D02*
X2603500Y1906960D01*
X11500Y1905960D02*
X11500Y1905960D01*
X2603500Y1905960D02*
X2603500Y1905960D01*
X11500Y1904960D02*
X11500Y1904960D01*
X2603500Y1904960D02*
X2603500Y1904960D01*
X11500Y1903960D02*
X11500Y1903960D01*
X2603500Y1903960D02*
X2603500Y1903960D01*
X11500Y1902960D02*
X11500Y1902960D01*
X2603500Y1902960D02*
X2603500Y1902960D01*
X11500Y1901960D02*
X11500Y1901960D01*
X2603500Y1901960D02*
X2603500Y1901960D01*
X11500Y1900960D02*
X11500Y1900960D01*
X2603500Y1900960D02*
X2603500Y1900960D01*
X11500Y1899960D02*
X11500Y1899960D01*
X2603500Y1899960D02*
X2603500Y1899960D01*
X11500Y1898960D02*
X11500Y1898960D01*
X2603500Y1898960D02*
X2603500Y1898960D01*
X11500Y1897960D02*
X11500Y1897960D01*
X2603500Y1897960D02*
X2603500Y1897960D01*
X11500Y1896960D02*
X11500Y1896960D01*
X2603500Y1896960D02*
X2603500Y1896960D01*
X11500Y1895960D02*
X11500Y1895960D01*
X2603500Y1895960D02*
X2603500Y1895960D01*
X11500Y1894960D02*
X11500Y1894960D01*
X2603500Y1894960D02*
X2603500Y1894960D01*
X11500Y1893960D02*
X11500Y1893960D01*
X2603500Y1893960D02*
X2603500Y1893960D01*
X11500Y1892960D02*
X11500Y1892960D01*
X2603500Y1892960D02*
X2603500Y1892960D01*
X11500Y1891960D02*
X11500Y1891960D01*
X2603500Y1891960D02*
X2603500Y1891960D01*
X11500Y1890960D02*
X11500Y1890960D01*
X2603500Y1890960D02*
X2603500Y1890960D01*
X11500Y1889960D02*
X11500Y1889960D01*
X2603500Y1889960D02*
X2603500Y1889960D01*
X11500Y1888960D02*
X11500Y1888960D01*
X2603500Y1888960D02*
X2603500Y1888960D01*
X11500Y1887960D02*
X11500Y1887960D01*
X2603500Y1887960D02*
X2603500Y1887960D01*
X11500Y1886960D02*
X11500Y1886960D01*
X2603500Y1886960D02*
X2603500Y1886960D01*
X11500Y1885960D02*
X11500Y1885960D01*
X2603500Y1885960D02*
X2603500Y1885960D01*
X11500Y1884960D02*
X11500Y1884960D01*
X2603500Y1884960D02*
X2603500Y1884960D01*
X11500Y1883960D02*
X11500Y1883960D01*
X2603500Y1883960D02*
X2603500Y1883960D01*
X11500Y1882960D02*
X11500Y1882960D01*
X2603500Y1882960D02*
X2603500Y1882960D01*
X11500Y1881960D02*
X11500Y1881960D01*
X2603500Y1881960D02*
X2603500Y1881960D01*
X11500Y1880960D02*
X11500Y1880960D01*
X2603500Y1880960D02*
X2603500Y1880960D01*
X11500Y1879960D02*
X11500Y1879960D01*
X2603500Y1879960D02*
X2603500Y1879960D01*
X11500Y1878960D02*
X11500Y1878960D01*
X2603500Y1878960D02*
X2603500Y1878960D01*
X11500Y1877960D02*
X11500Y1877960D01*
X2603500Y1877960D02*
X2603500Y1877960D01*
X11500Y1876960D02*
X11500Y1876960D01*
X2603500Y1876960D02*
X2603500Y1876960D01*
X11500Y1875960D02*
X11500Y1875960D01*
X2603500Y1875960D02*
X2603500Y1875960D01*
X11500Y1874960D02*
X11500Y1874960D01*
X2603500Y1874960D02*
X2603500Y1874960D01*
X11500Y1873960D02*
X11500Y1873960D01*
X2603500Y1873960D02*
X2603500Y1873960D01*
X11500Y1872960D02*
X11500Y1872960D01*
X2603500Y1872960D02*
X2603500Y1872960D01*
X11500Y1871960D02*
X11500Y1871960D01*
X2603500Y1871960D02*
X2603500Y1871960D01*
X11500Y1870960D02*
X11500Y1870960D01*
X2603500Y1870960D02*
X2603500Y1870960D01*
X11500Y1869960D02*
X11500Y1869960D01*
X2603500Y1869960D02*
X2603500Y1869960D01*
X11500Y1868960D02*
X11500Y1868960D01*
X2603500Y1868960D02*
X2603500Y1868960D01*
X11500Y1867960D02*
X11500Y1867960D01*
X2603500Y1867960D02*
X2603500Y1867960D01*
X11500Y1866960D02*
X11500Y1866960D01*
X2603500Y1866960D02*
X2603500Y1866960D01*
X11500Y1865960D02*
X11500Y1865960D01*
X2603500Y1865960D02*
X2603500Y1865960D01*
X11500Y1864960D02*
X11500Y1864960D01*
X2603500Y1864960D02*
X2603500Y1864960D01*
X11500Y1863960D02*
X11500Y1863960D01*
X2603500Y1863960D02*
X2603500Y1863960D01*
X11500Y1862960D02*
X11500Y1862960D01*
X2603500Y1862960D02*
X2603500Y1862960D01*
X11500Y1861960D02*
X11500Y1861960D01*
X2603500Y1861960D02*
X2603500Y1861960D01*
X11500Y1860960D02*
X11500Y1860960D01*
X2603500Y1860960D02*
X2603500Y1860960D01*
X11500Y1859960D02*
X11500Y1859960D01*
X2603500Y1859960D02*
X2603500Y1859960D01*
X11500Y1858960D02*
X11500Y1858960D01*
X2603500Y1858960D02*
X2603500Y1858960D01*
X11500Y1857960D02*
X11500Y1857960D01*
X2603500Y1857960D02*
X2603500Y1857960D01*
X11500Y1856960D02*
X11500Y1856960D01*
X2603500Y1856960D02*
X2603500Y1856960D01*
X11500Y1855960D02*
X11500Y1855960D01*
X2603500Y1855960D02*
X2603500Y1855960D01*
X11500Y1854960D02*
X11500Y1854960D01*
X2603500Y1854960D02*
X2603500Y1854960D01*
X11500Y1853960D02*
X11500Y1853960D01*
X2603500Y1853960D02*
X2603500Y1853960D01*
X11500Y1852960D02*
X11500Y1852960D01*
X2603500Y1852960D02*
X2603500Y1852960D01*
X11500Y1851960D02*
X11500Y1851960D01*
X2603500Y1851960D02*
X2603500Y1851960D01*
X11500Y1850960D02*
X11500Y1850960D01*
X2603500Y1850960D02*
X2603500Y1850960D01*
X11500Y1849960D02*
X11500Y1849960D01*
X2603500Y1849960D02*
X2603500Y1849960D01*
X11500Y1848960D02*
X11500Y1848960D01*
X2603500Y1848960D02*
X2603500Y1848960D01*
X11500Y1847960D02*
X11500Y1847960D01*
X2603500Y1847960D02*
X2603500Y1847960D01*
X11500Y1846960D02*
X11500Y1846960D01*
X2603500Y1846960D02*
X2603500Y1846960D01*
X11500Y1845960D02*
X11500Y1845960D01*
X2603500Y1845960D02*
X2603500Y1845960D01*
X11500Y1844960D02*
X11500Y1844960D01*
X2603500Y1844960D02*
X2603500Y1844960D01*
X11500Y1843960D02*
X11500Y1843960D01*
X2603500Y1843960D02*
X2603500Y1843960D01*
X11500Y1842960D02*
X11500Y1842960D01*
X2603500Y1842960D02*
X2603500Y1842960D01*
X11500Y1841960D02*
X11500Y1841960D01*
X2603500Y1841960D02*
X2603500Y1841960D01*
X11500Y1840960D02*
X11500Y1840960D01*
X2603500Y1840960D02*
X2603500Y1840960D01*
X11500Y1839960D02*
X11500Y1839960D01*
X2603500Y1839960D02*
X2603500Y1839960D01*
X11500Y1838960D02*
X11500Y1838960D01*
X2603500Y1838960D02*
X2603500Y1838960D01*
X11500Y1837960D02*
X11500Y1837960D01*
X2603500Y1837960D02*
X2603500Y1837960D01*
X11500Y1836960D02*
X11500Y1836960D01*
X2603500Y1836960D02*
X2603500Y1836960D01*
X11500Y1835960D02*
X11500Y1835960D01*
X2603500Y1835960D02*
X2603500Y1835960D01*
X11500Y1834960D02*
X11500Y1834960D01*
X2603500Y1834960D02*
X2603500Y1834960D01*
X11500Y1833960D02*
X11500Y1833960D01*
X2603500Y1833960D02*
X2603500Y1833960D01*
X11500Y1832960D02*
X11500Y1832960D01*
X2603500Y1832960D02*
X2603500Y1832960D01*
X11500Y1831960D02*
X11500Y1831960D01*
X2603500Y1831960D02*
X2603500Y1831960D01*
X11500Y1830960D02*
X11500Y1830960D01*
X2603500Y1830960D02*
X2603500Y1830960D01*
X11500Y1829960D02*
X11500Y1829960D01*
X2603500Y1829960D02*
X2603500Y1829960D01*
X11500Y1828960D02*
X11500Y1828960D01*
X2603500Y1828960D02*
X2603500Y1828960D01*
X11500Y1827960D02*
X11500Y1827960D01*
X2603500Y1827960D02*
X2603500Y1827960D01*
X11500Y1826960D02*
X11500Y1826960D01*
X2603500Y1826960D02*
X2603500Y1826960D01*
X11500Y1825960D02*
X11500Y1825960D01*
X2603500Y1825960D02*
X2603500Y1825960D01*
X11500Y1824960D02*
X11500Y1824960D01*
X2603500Y1824960D02*
X2603500Y1824960D01*
X11500Y1823960D02*
X11500Y1823960D01*
X2603500Y1823960D02*
X2603500Y1823960D01*
X11500Y1822960D02*
X11500Y1822960D01*
X2603500Y1822960D02*
X2603500Y1822960D01*
X11500Y1821960D02*
X11500Y1821960D01*
X2603500Y1821960D02*
X2603500Y1821960D01*
X11500Y1820960D02*
X11500Y1820960D01*
X2603500Y1820960D02*
X2603500Y1820960D01*
X11500Y1819960D02*
X11500Y1819960D01*
X2603500Y1819960D02*
X2603500Y1819960D01*
X11500Y1818960D02*
X11500Y1818960D01*
X2603500Y1818960D02*
X2603500Y1818960D01*
X11500Y1817960D02*
X11500Y1817960D01*
X2603500Y1817960D02*
X2603500Y1817960D01*
X11500Y1816960D02*
X11500Y1816960D01*
X2603500Y1816960D02*
X2603500Y1816960D01*
X11500Y1815960D02*
X11500Y1815960D01*
X2603500Y1815960D02*
X2603500Y1815960D01*
X11500Y1814960D02*
X11500Y1814960D01*
X2603500Y1814960D02*
X2603500Y1814960D01*
X11500Y1813960D02*
X11500Y1813960D01*
X2603500Y1813960D02*
X2603500Y1813960D01*
X11500Y1812960D02*
X11500Y1812960D01*
X2603500Y1812960D02*
X2603500Y1812960D01*
X11500Y1811960D02*
X11500Y1811960D01*
X2603500Y1811960D02*
X2603500Y1811960D01*
X11500Y1810960D02*
X11500Y1810960D01*
X2603500Y1810960D02*
X2603500Y1810960D01*
X11500Y1809960D02*
X11500Y1809960D01*
X2603500Y1809960D02*
X2603500Y1809960D01*
X11500Y1808960D02*
X11500Y1808960D01*
X2603500Y1808960D02*
X2603500Y1808960D01*
X11500Y1807960D02*
X11500Y1807960D01*
X2603500Y1807960D02*
X2603500Y1807960D01*
X11500Y1806960D02*
X11500Y1806960D01*
X2603500Y1806960D02*
X2603500Y1806960D01*
X11500Y1805960D02*
X11500Y1805960D01*
X2603500Y1805960D02*
X2603500Y1805960D01*
X11500Y1804960D02*
X11500Y1804960D01*
X2603500Y1804960D02*
X2603500Y1804960D01*
X11500Y1803960D02*
X11500Y1803960D01*
X2603500Y1803960D02*
X2603500Y1803960D01*
X11500Y1802960D02*
X11500Y1802960D01*
X2603500Y1802960D02*
X2603500Y1802960D01*
X11500Y1801960D02*
X11500Y1801960D01*
X2603500Y1801960D02*
X2603500Y1801960D01*
X11500Y1800960D02*
X11500Y1800960D01*
X2603500Y1800960D02*
X2603500Y1800960D01*
X11500Y1799960D02*
X11500Y1799960D01*
X2603500Y1799960D02*
X2603500Y1799960D01*
X11500Y1798960D02*
X11500Y1798960D01*
X2603500Y1798960D02*
X2603500Y1798960D01*
X11500Y1797960D02*
X11500Y1797960D01*
X2603500Y1797960D02*
X2603500Y1797960D01*
X11500Y1796960D02*
X11500Y1796960D01*
X2603500Y1796960D02*
X2603500Y1796960D01*
X11500Y1795960D02*
X11500Y1795960D01*
X2603500Y1795960D02*
X2603500Y1795960D01*
X11500Y1794960D02*
X11500Y1794960D01*
X2603500Y1794960D02*
X2603500Y1794960D01*
X11500Y1793960D02*
X11500Y1793960D01*
X2603500Y1793960D02*
X2603500Y1793960D01*
X11500Y1792960D02*
X11500Y1792960D01*
X2603500Y1792960D02*
X2603500Y1792960D01*
X11500Y1791960D02*
X11500Y1791960D01*
X2603500Y1791960D02*
X2603500Y1791960D01*
X11500Y1790960D02*
X11500Y1790960D01*
X2603500Y1790960D02*
X2603500Y1790960D01*
X11500Y1789960D02*
X11500Y1789960D01*
X2603500Y1789960D02*
X2603500Y1789960D01*
X11500Y1788960D02*
X11500Y1788960D01*
X2603500Y1788960D02*
X2603500Y1788960D01*
X11500Y1787960D02*
X11500Y1787960D01*
X2603500Y1787960D02*
X2603500Y1787960D01*
X11500Y1786960D02*
X11500Y1786960D01*
X2603500Y1786960D02*
X2603500Y1786960D01*
X11500Y1785960D02*
X11500Y1785960D01*
X2603500Y1785960D02*
X2603500Y1785960D01*
X11500Y1784960D02*
X11500Y1784960D01*
X2603500Y1784960D02*
X2603500Y1784960D01*
X11500Y1783960D02*
X11500Y1783960D01*
X2603500Y1783960D02*
X2603500Y1783960D01*
X11500Y1782960D02*
X11500Y1782960D01*
X2603500Y1782960D02*
X2603500Y1782960D01*
X11500Y1781960D02*
X11500Y1781960D01*
X2603500Y1781960D02*
X2603500Y1781960D01*
X11500Y1780960D02*
X11500Y1780960D01*
X2603500Y1780960D02*
X2603500Y1780960D01*
X11500Y1779960D02*
X11500Y1779960D01*
X2603500Y1779960D02*
X2603500Y1779960D01*
X11500Y1778960D02*
X11500Y1778960D01*
X2603500Y1778960D02*
X2603500Y1778960D01*
X11500Y1777960D02*
X11500Y1777960D01*
X2603500Y1777960D02*
X2603500Y1777960D01*
X11500Y1776960D02*
X11500Y1776960D01*
X2603500Y1776960D02*
X2603500Y1776960D01*
X11500Y1775960D02*
X11500Y1775960D01*
X2603500Y1775960D02*
X2603500Y1775960D01*
X11500Y1774960D02*
X11500Y1774960D01*
X2603500Y1774960D02*
X2603500Y1774960D01*
X11500Y1773960D02*
X11500Y1773960D01*
X2603500Y1773960D02*
X2603500Y1773960D01*
X11500Y1772960D02*
X11500Y1772960D01*
X2603500Y1772960D02*
X2603500Y1772960D01*
X11500Y1771960D02*
X11500Y1771960D01*
X2603500Y1771960D02*
X2603500Y1771960D01*
X11500Y1770960D02*
X11500Y1770960D01*
X2603500Y1770960D02*
X2603500Y1770960D01*
X11500Y1769960D02*
X11500Y1769960D01*
X2603500Y1769960D02*
X2603500Y1769960D01*
X11500Y1768960D02*
X11500Y1768960D01*
X2603500Y1768960D02*
X2603500Y1768960D01*
X11500Y1767960D02*
X11500Y1767960D01*
X2603500Y1767960D02*
X2603500Y1767960D01*
X11500Y1766960D02*
X11500Y1766960D01*
X2603500Y1766960D02*
X2603500Y1766960D01*
X11500Y1765960D02*
X11500Y1765960D01*
X2603500Y1765960D02*
X2603500Y1765960D01*
X11500Y1764960D02*
X11500Y1764960D01*
X2603500Y1764960D02*
X2603500Y1764960D01*
X11500Y1763960D02*
X11500Y1763960D01*
X2603500Y1763960D02*
X2603500Y1763960D01*
X11500Y1762960D02*
X11500Y1762960D01*
X2603500Y1762960D02*
X2603500Y1762960D01*
X11500Y1761960D02*
X11500Y1761960D01*
X2603500Y1761960D02*
X2603500Y1761960D01*
X11500Y1760960D02*
X11500Y1760960D01*
X2603500Y1760960D02*
X2603500Y1760960D01*
X11500Y1759960D02*
X11500Y1759960D01*
X2603500Y1759960D02*
X2603500Y1759960D01*
X11500Y1758960D02*
X11500Y1758960D01*
X2603500Y1758960D02*
X2603500Y1758960D01*
X11500Y1757960D02*
X11500Y1757960D01*
X2603500Y1757960D02*
X2603500Y1757960D01*
X11500Y1756960D02*
X11500Y1756960D01*
X2603500Y1756960D02*
X2603500Y1756960D01*
X11500Y1755960D02*
X11500Y1755960D01*
X2603500Y1755960D02*
X2603500Y1755960D01*
X11500Y1754960D02*
X11500Y1754960D01*
X2603500Y1754960D02*
X2603500Y1754960D01*
X11500Y1753960D02*
X11500Y1753960D01*
X2603500Y1753960D02*
X2603500Y1753960D01*
X11500Y1752960D02*
X11500Y1752960D01*
X2603500Y1752960D02*
X2603500Y1752960D01*
X11500Y1751960D02*
X11500Y1751960D01*
X2603500Y1751960D02*
X2603500Y1751960D01*
X11500Y1750960D02*
X11500Y1750960D01*
X2603500Y1750960D02*
X2603500Y1750960D01*
X11500Y1749960D02*
X11500Y1749960D01*
X2603500Y1749960D02*
X2603500Y1749960D01*
X11500Y1748960D02*
X11500Y1748960D01*
X2603500Y1748960D02*
X2603500Y1748960D01*
X11500Y1747960D02*
X11500Y1747960D01*
X2603500Y1747960D02*
X2603500Y1747960D01*
X11500Y1746960D02*
X11500Y1746960D01*
X2603500Y1746960D02*
X2603500Y1746960D01*
X11500Y1745960D02*
X11500Y1745960D01*
X2603500Y1745960D02*
X2603500Y1745960D01*
X11500Y1744960D02*
X11500Y1744960D01*
X2603500Y1744960D02*
X2603500Y1744960D01*
X11500Y1743960D02*
X11500Y1743960D01*
X2603500Y1743960D02*
X2603500Y1743960D01*
X11500Y1742960D02*
X11500Y1742960D01*
X2603500Y1742960D02*
X2603500Y1742960D01*
X11500Y1741960D02*
X11500Y1741960D01*
X2603500Y1741960D02*
X2603500Y1741960D01*
X11500Y1740960D02*
X11500Y1740960D01*
X2603500Y1740960D02*
X2603500Y1740960D01*
X11500Y1739960D02*
X11500Y1739960D01*
X2603500Y1739960D02*
X2603500Y1739960D01*
X11500Y1738960D02*
X11500Y1738960D01*
X2603500Y1738960D02*
X2603500Y1738960D01*
X11500Y1737960D02*
X11500Y1737960D01*
X2603500Y1737960D02*
X2603500Y1737960D01*
X11500Y1736960D02*
X11500Y1736960D01*
X2603500Y1736960D02*
X2603500Y1736960D01*
X11500Y1735960D02*
X11500Y1735960D01*
X2603500Y1735960D02*
X2603500Y1735960D01*
X11500Y1734960D02*
X11500Y1734960D01*
X2603500Y1734960D02*
X2603500Y1734960D01*
X11500Y1733960D02*
X11500Y1733960D01*
X2603500Y1733960D02*
X2603500Y1733960D01*
X11500Y1732960D02*
X11500Y1732960D01*
X2603500Y1732960D02*
X2603500Y1732960D01*
X11500Y1731960D02*
X11500Y1731960D01*
X2603500Y1731960D02*
X2603500Y1731960D01*
X11500Y1730960D02*
X11500Y1730960D01*
X2603500Y1730960D02*
X2603500Y1730960D01*
X11500Y1729960D02*
X11500Y1729960D01*
X2603500Y1729960D02*
X2603500Y1729960D01*
X11500Y1728960D02*
X11500Y1728960D01*
X2603500Y1728960D02*
X2603500Y1728960D01*
X11500Y1727960D02*
X11500Y1727960D01*
X2603500Y1727960D02*
X2603500Y1727960D01*
X11500Y1726960D02*
X11500Y1726960D01*
X2603500Y1726960D02*
X2603500Y1726960D01*
X11500Y1725960D02*
X11500Y1725960D01*
X2603500Y1725960D02*
X2603500Y1725960D01*
X11500Y1724960D02*
X11500Y1724960D01*
X2603500Y1724960D02*
X2603500Y1724960D01*
X11500Y1723960D02*
X11500Y1723960D01*
X2603500Y1723960D02*
X2603500Y1723960D01*
X11500Y1722960D02*
X11500Y1722960D01*
X2603500Y1722960D02*
X2603500Y1722960D01*
X11500Y1721960D02*
X11500Y1721960D01*
X2603500Y1721960D02*
X2603500Y1721960D01*
X11500Y1720960D02*
X11500Y1720960D01*
X2603500Y1720960D02*
X2603500Y1720960D01*
X11500Y1719960D02*
X11500Y1719960D01*
X2603500Y1719960D02*
X2603500Y1719960D01*
X11500Y1718960D02*
X11500Y1718960D01*
X2603500Y1718960D02*
X2603500Y1718960D01*
X11500Y1717960D02*
X11500Y1717960D01*
X2603500Y1717960D02*
X2603500Y1717960D01*
X11500Y1716960D02*
X11500Y1716960D01*
X2603500Y1716960D02*
X2603500Y1716960D01*
X11500Y1715960D02*
X11500Y1715960D01*
X2603500Y1715960D02*
X2603500Y1715960D01*
X11500Y1714960D02*
X11500Y1714960D01*
X2603500Y1714960D02*
X2603500Y1714960D01*
X11500Y1713960D02*
X11500Y1713960D01*
X2603500Y1713960D02*
X2603500Y1713960D01*
X11500Y1712960D02*
X11500Y1712960D01*
X2603500Y1712960D02*
X2603500Y1712960D01*
X11500Y1711960D02*
X11500Y1711960D01*
X2603500Y1711960D02*
X2603500Y1711960D01*
X11500Y1710960D02*
X11500Y1710960D01*
X2603500Y1710960D02*
X2603500Y1710960D01*
X11500Y1709960D02*
X11500Y1709960D01*
X2603500Y1709960D02*
X2603500Y1709960D01*
X11500Y1708960D02*
X11500Y1708960D01*
X2603500Y1708960D02*
X2603500Y1708960D01*
X11500Y1707960D02*
X11500Y1707960D01*
X2603500Y1707960D02*
X2603500Y1707960D01*
X11500Y1706960D02*
X11500Y1706960D01*
X2603500Y1706960D02*
X2603500Y1706960D01*
X11500Y1705960D02*
X11500Y1705960D01*
X2603500Y1705960D02*
X2603500Y1705960D01*
X11500Y1704960D02*
X11500Y1704960D01*
X2603500Y1704960D02*
X2603500Y1704960D01*
X11500Y1703960D02*
X11500Y1703960D01*
X2603500Y1703960D02*
X2603500Y1703960D01*
X11500Y1702960D02*
X11500Y1702960D01*
X2603500Y1702960D02*
X2603500Y1702960D01*
X11500Y1701960D02*
X11500Y1701960D01*
X2603500Y1701960D02*
X2603500Y1701960D01*
X11500Y1700960D02*
X11500Y1700960D01*
X2603500Y1700960D02*
X2603500Y1700960D01*
X11500Y1699960D02*
X11500Y1699960D01*
X2603500Y1699960D02*
X2603500Y1699960D01*
X11500Y1698960D02*
X11500Y1698960D01*
X2603500Y1698960D02*
X2603500Y1698960D01*
X11500Y1697960D02*
X11500Y1697960D01*
X2603500Y1697960D02*
X2603500Y1697960D01*
X11500Y1696960D02*
X11500Y1696960D01*
X2603500Y1696960D02*
X2603500Y1696960D01*
X11500Y1695960D02*
X11500Y1695960D01*
X2603500Y1695960D02*
X2603500Y1695960D01*
X11500Y1694960D02*
X11500Y1694960D01*
X2603500Y1694960D02*
X2603500Y1694960D01*
X11500Y1693960D02*
X11500Y1693960D01*
X2603500Y1693960D02*
X2603500Y1693960D01*
X11500Y1692960D02*
X11500Y1692960D01*
X2603500Y1692960D02*
X2603500Y1692960D01*
X11500Y1691960D02*
X11500Y1691960D01*
X2603500Y1691960D02*
X2603500Y1691960D01*
X11500Y1690960D02*
X11500Y1690960D01*
X2603500Y1690960D02*
X2603500Y1690960D01*
X11500Y1689960D02*
X11500Y1689960D01*
X2603500Y1689960D02*
X2603500Y1689960D01*
X11500Y1688960D02*
X11500Y1688960D01*
X2603500Y1688960D02*
X2603500Y1688960D01*
X11500Y1687960D02*
X11500Y1687960D01*
X2603500Y1687960D02*
X2603500Y1687960D01*
X11500Y1686960D02*
X11500Y1686960D01*
X2603500Y1686960D02*
X2603500Y1686960D01*
X11500Y1685960D02*
X11500Y1685960D01*
X2603500Y1685960D02*
X2603500Y1685960D01*
X11500Y1684960D02*
X11500Y1684960D01*
X2603500Y1684960D02*
X2603500Y1684960D01*
X11500Y1683960D02*
X11500Y1683960D01*
X2603500Y1683960D02*
X2603500Y1683960D01*
X11500Y1682960D02*
X11500Y1682960D01*
X2603500Y1682960D02*
X2603500Y1682960D01*
X11500Y1681960D02*
X11500Y1681960D01*
X2603500Y1681960D02*
X2603500Y1681960D01*
X11500Y1680960D02*
X11500Y1680960D01*
X2603500Y1680960D02*
X2603500Y1680960D01*
X11500Y1679960D02*
X11500Y1679960D01*
X2603500Y1679960D02*
X2603500Y1679960D01*
X11500Y1678960D02*
X11500Y1678960D01*
X2603500Y1678960D02*
X2603500Y1678960D01*
X11500Y1677960D02*
X11500Y1677960D01*
X2603500Y1677960D02*
X2603500Y1677960D01*
X11500Y1676960D02*
X11500Y1676960D01*
X2603500Y1676960D02*
X2603500Y1676960D01*
X11500Y1675960D02*
X11500Y1675960D01*
X2603500Y1675960D02*
X2603500Y1675960D01*
X11500Y1674960D02*
X11500Y1674960D01*
X2603500Y1674960D02*
X2603500Y1674960D01*
X11500Y1673960D02*
X11500Y1673960D01*
X2603500Y1673960D02*
X2603500Y1673960D01*
X11500Y1672960D02*
X11500Y1672960D01*
X2603500Y1672960D02*
X2603500Y1672960D01*
X11500Y1671960D02*
X11500Y1671960D01*
X2603500Y1671960D02*
X2603500Y1671960D01*
X11500Y1670960D02*
X11500Y1670960D01*
X2603500Y1670960D02*
X2603500Y1670960D01*
X11500Y1669960D02*
X11500Y1669960D01*
X2603500Y1669960D02*
X2603500Y1669960D01*
X11500Y1668960D02*
X11500Y1668960D01*
X2603500Y1668960D02*
X2603500Y1668960D01*
X11500Y1667960D02*
X11500Y1667960D01*
X2603500Y1667960D02*
X2603500Y1667960D01*
X11500Y1666960D02*
X11500Y1666960D01*
X2603500Y1666960D02*
X2603500Y1666960D01*
X11500Y1665960D02*
X11500Y1665960D01*
X2603500Y1665960D02*
X2603500Y1665960D01*
X11500Y1664960D02*
X11500Y1664960D01*
X2603500Y1664960D02*
X2603500Y1664960D01*
X11500Y1663960D02*
X11500Y1663960D01*
X2603500Y1663960D02*
X2603500Y1663960D01*
X11500Y1662960D02*
X11500Y1662960D01*
X2603500Y1662960D02*
X2603500Y1662960D01*
X11500Y1661960D02*
X11500Y1661960D01*
X2603500Y1661960D02*
X2603500Y1661960D01*
X11500Y1660960D02*
X11500Y1660960D01*
X2603500Y1660960D02*
X2603500Y1660960D01*
X11500Y1659960D02*
X11500Y1659960D01*
X2603500Y1659960D02*
X2603500Y1659960D01*
X11500Y1658960D02*
X11500Y1658960D01*
X2603500Y1658960D02*
X2603500Y1658960D01*
X11500Y1657960D02*
X11500Y1657960D01*
X2603500Y1657960D02*
X2603500Y1657960D01*
X11500Y1656960D02*
X11500Y1656960D01*
X2603500Y1656960D02*
X2603500Y1656960D01*
X11500Y1655960D02*
X11500Y1655960D01*
X2603500Y1655960D02*
X2603500Y1655960D01*
X11500Y1654960D02*
X11500Y1654960D01*
X2603500Y1654960D02*
X2603500Y1654960D01*
X11500Y1653960D02*
X11500Y1653960D01*
X2603500Y1653960D02*
X2603500Y1653960D01*
X11500Y1652960D02*
X11500Y1652960D01*
X2603500Y1652960D02*
X2603500Y1652960D01*
X11500Y1651960D02*
X11500Y1651960D01*
X2603500Y1651960D02*
X2603500Y1651960D01*
X11500Y1650960D02*
X11500Y1650960D01*
X2603500Y1650960D02*
X2603500Y1650960D01*
X11500Y1649960D02*
X11500Y1649960D01*
X2603500Y1649960D02*
X2603500Y1649960D01*
X11500Y1648960D02*
X11500Y1648960D01*
X2603500Y1648960D02*
X2603500Y1648960D01*
X11500Y1647960D02*
X11500Y1647960D01*
X2603500Y1647960D02*
X2603500Y1647960D01*
X11500Y1646960D02*
X11500Y1646960D01*
X2603500Y1646960D02*
X2603500Y1646960D01*
X11500Y1645960D02*
X11500Y1645960D01*
X2603500Y1645960D02*
X2603500Y1645960D01*
X11500Y1644960D02*
X11500Y1644960D01*
X2603500Y1644960D02*
X2603500Y1644960D01*
X11500Y1643960D02*
X11500Y1643960D01*
X2603500Y1643960D02*
X2603500Y1643960D01*
X11500Y1642960D02*
X11500Y1642960D01*
X2603500Y1642960D02*
X2603500Y1642960D01*
X11500Y1641960D02*
X11500Y1641960D01*
X2603500Y1641960D02*
X2603500Y1641960D01*
X11500Y1640960D02*
X11500Y1640960D01*
X2603500Y1640960D02*
X2603500Y1640960D01*
X11500Y1639960D02*
X11500Y1639960D01*
X2603500Y1639960D02*
X2603500Y1639960D01*
X11500Y1638960D02*
X11500Y1638960D01*
X2603500Y1638960D02*
X2603500Y1638960D01*
X11500Y1637960D02*
X11500Y1637960D01*
X2603500Y1637960D02*
X2603500Y1637960D01*
X11500Y1636960D02*
X11500Y1636960D01*
X2603500Y1636960D02*
X2603500Y1636960D01*
X11500Y1635960D02*
X11500Y1635960D01*
X2603500Y1635960D02*
X2603500Y1635960D01*
X11500Y1634960D02*
X11500Y1634960D01*
X2603500Y1634960D02*
X2603500Y1634960D01*
X11500Y1633960D02*
X11500Y1633960D01*
X2603500Y1633960D02*
X2603500Y1633960D01*
X11500Y1632960D02*
X11500Y1632960D01*
X2603500Y1632960D02*
X2603500Y1632960D01*
X11500Y1631960D02*
X11500Y1631960D01*
X2603500Y1631960D02*
X2603500Y1631960D01*
X11500Y1630960D02*
X11500Y1630960D01*
X2603500Y1630960D02*
X2603500Y1630960D01*
X11500Y1629960D02*
X11500Y1629960D01*
X2603500Y1629960D02*
X2603500Y1629960D01*
X11500Y1628960D02*
X11500Y1628960D01*
X2603500Y1628960D02*
X2603500Y1628960D01*
X11500Y1627960D02*
X11500Y1627960D01*
X2603500Y1627960D02*
X2603500Y1627960D01*
X11500Y1626960D02*
X11500Y1626960D01*
X2603500Y1626960D02*
X2603500Y1626960D01*
X11500Y1625960D02*
X11500Y1625960D01*
X2603500Y1625960D02*
X2603500Y1625960D01*
X11500Y1624960D02*
X11500Y1624960D01*
X2603500Y1624960D02*
X2603500Y1624960D01*
X11500Y1623960D02*
X11500Y1623960D01*
X2603500Y1623960D02*
X2603500Y1623960D01*
X11500Y1622960D02*
X11500Y1622960D01*
X2603500Y1622960D02*
X2603500Y1622960D01*
X11500Y1621960D02*
X11500Y1621960D01*
X2603500Y1621960D02*
X2603500Y1621960D01*
X11500Y1620960D02*
X11500Y1620960D01*
X2603500Y1620960D02*
X2603500Y1620960D01*
X11500Y1619960D02*
X11500Y1619960D01*
X2603500Y1619960D02*
X2603500Y1619960D01*
X11500Y1618960D02*
X11500Y1618960D01*
X2603500Y1618960D02*
X2603500Y1618960D01*
X11500Y1617960D02*
X11500Y1617960D01*
X2603500Y1617960D02*
X2603500Y1617960D01*
X11500Y1616960D02*
X11500Y1616960D01*
X2603500Y1616960D02*
X2603500Y1616960D01*
X11500Y1615960D02*
X11500Y1615960D01*
X2603500Y1615960D02*
X2603500Y1615960D01*
X11500Y1614960D02*
X11500Y1614960D01*
X2603500Y1614960D02*
X2603500Y1614960D01*
X11500Y1613960D02*
X11500Y1613960D01*
X2603500Y1613960D02*
X2603500Y1613960D01*
X11500Y1612960D02*
X11500Y1612960D01*
X2603500Y1612960D02*
X2603500Y1612960D01*
X11500Y1611960D02*
X11500Y1611960D01*
X2603500Y1611960D02*
X2603500Y1611960D01*
X11500Y1610960D02*
X11500Y1610960D01*
X2603500Y1610960D02*
X2603500Y1610960D01*
X11500Y1609960D02*
X11500Y1609960D01*
X2603500Y1609960D02*
X2603500Y1609960D01*
X11500Y1608960D02*
X11500Y1608960D01*
X2603500Y1608960D02*
X2603500Y1608960D01*
X11500Y1607960D02*
X11500Y1607960D01*
X2603500Y1607960D02*
X2603500Y1607960D01*
X11500Y1606960D02*
X11500Y1606960D01*
X2603500Y1606960D02*
X2603500Y1606960D01*
X11500Y1605960D02*
X11500Y1605960D01*
X2603500Y1605960D02*
X2603500Y1605960D01*
X11500Y1604960D02*
X11500Y1604960D01*
X2603500Y1604960D02*
X2603500Y1604960D01*
X11500Y1603960D02*
X11500Y1603960D01*
X2603500Y1603960D02*
X2603500Y1603960D01*
X11500Y1602960D02*
X11500Y1602960D01*
X2603500Y1602960D02*
X2603500Y1602960D01*
X11500Y1601960D02*
X11500Y1601960D01*
X2603500Y1601960D02*
X2603500Y1601960D01*
X11500Y1600960D02*
X11500Y1600960D01*
X2603500Y1600960D02*
X2603500Y1600960D01*
X11500Y1599960D02*
X11500Y1599960D01*
X2603500Y1599960D02*
X2603500Y1599960D01*
X11500Y1598960D02*
X11500Y1598960D01*
X2603500Y1598960D02*
X2603500Y1598960D01*
X11500Y1597960D02*
X11500Y1597960D01*
X2603500Y1597960D02*
X2603500Y1597960D01*
X11500Y1596960D02*
X11500Y1596960D01*
X2603500Y1596960D02*
X2603500Y1596960D01*
X11500Y1595960D02*
X11500Y1595960D01*
X2603500Y1595960D02*
X2603500Y1595960D01*
X11500Y1594960D02*
X11500Y1594960D01*
X2603500Y1594960D02*
X2603500Y1594960D01*
X11500Y1593960D02*
X11500Y1593960D01*
X2603500Y1593960D02*
X2603500Y1593960D01*
X11500Y1592960D02*
X11500Y1592960D01*
X2603500Y1592960D02*
X2603500Y1592960D01*
X11500Y1591960D02*
X11500Y1591960D01*
X2603500Y1591960D02*
X2603500Y1591960D01*
X11500Y1590960D02*
X11500Y1590960D01*
X2604500Y1590960D02*
X2604500Y1590960D01*
X11500Y1589960D02*
X11500Y1589960D01*
X2605500Y1589960D02*
X2605500Y1589960D01*
X11500Y1588960D02*
X11500Y1588960D01*
X2606500Y1588960D02*
X2606500Y1588960D01*
X11500Y1587960D02*
X11500Y1587960D01*
X2607500Y1587960D02*
X2607500Y1587960D01*
X11500Y1586960D02*
X11500Y1586960D01*
X2608500Y1586960D02*
X2608500Y1586960D01*
X11500Y1585960D02*
X11500Y1585960D01*
X2609500Y1585960D02*
X2609500Y1585960D01*
X11500Y1584960D02*
X11500Y1584960D01*
X2610500Y1584960D02*
X2610500Y1584960D01*
X11500Y1583960D02*
X11500Y1583960D01*
X2611500Y1583960D02*
X2611500Y1583960D01*
X11500Y1582960D02*
X11500Y1582960D01*
X2612500Y1582960D02*
X2612500Y1582960D01*
X11500Y1581960D02*
X11500Y1581960D01*
X2613500Y1581960D02*
X2613500Y1581960D01*
X11500Y1580960D02*
X11500Y1580960D01*
X2614500Y1580960D02*
X2614500Y1580960D01*
X11500Y1579960D02*
X11500Y1579960D01*
X2615500Y1579960D02*
X2615500Y1579960D01*
X11500Y1578960D02*
X11500Y1578960D01*
X2616500Y1578960D02*
X2616500Y1578960D01*
X11500Y1577960D02*
X11500Y1577960D01*
X2617500Y1577960D02*
X2617500Y1577960D01*
X11500Y1576960D02*
X11500Y1576960D01*
X2618500Y1576960D02*
X2618500Y1576960D01*
X11500Y1575960D02*
X11500Y1575960D01*
X2619500Y1575960D02*
X2619500Y1575960D01*
X11500Y1574960D02*
X11500Y1574960D01*
X2620500Y1574960D02*
X2620500Y1574960D01*
X11500Y1573960D02*
X11500Y1573960D01*
X2621500Y1573960D02*
X2621500Y1573960D01*
X11500Y1572960D02*
X11500Y1572960D01*
X2622500Y1572960D02*
X2622500Y1572960D01*
X11500Y1571960D02*
X11500Y1571960D01*
X2623500Y1571960D02*
X2623500Y1571960D01*
X11500Y1570960D02*
X11500Y1570960D01*
X2624500Y1570960D02*
X2624500Y1570960D01*
X11500Y1569960D02*
X11500Y1569960D01*
X2625500Y1569960D02*
X2625500Y1569960D01*
X11500Y1568960D02*
X11500Y1568960D01*
X2626500Y1568960D02*
X2626500Y1568960D01*
X11500Y1567960D02*
X11500Y1567960D01*
X2627500Y1567960D02*
X2627500Y1567960D01*
X11500Y1566960D02*
X11500Y1566960D01*
X2628500Y1566960D02*
X2628500Y1566960D01*
X11500Y1565960D02*
X11500Y1565960D01*
X2629500Y1565960D02*
X2629500Y1565960D01*
X11500Y1564960D02*
X11500Y1564960D01*
X2630500Y1564960D02*
X2630500Y1564960D01*
X11500Y1563960D02*
X11500Y1563960D01*
X2631500Y1563960D02*
X2631500Y1563960D01*
X11500Y1562960D02*
X11500Y1562960D01*
X2632500Y1562960D02*
X2632500Y1562960D01*
X11500Y1561960D02*
X11500Y1561960D01*
X2633500Y1561960D02*
X2633500Y1561960D01*
X11500Y1560960D02*
X11500Y1560960D01*
X2634500Y1560960D02*
X2634500Y1560960D01*
X11500Y1559960D02*
X11500Y1559960D01*
X2635500Y1559960D02*
X2635500Y1559960D01*
X11500Y1558960D02*
X11500Y1558960D01*
X2636500Y1558960D02*
X2636500Y1558960D01*
X11500Y1557960D02*
X11500Y1557960D01*
X2637500Y1557960D02*
X2637500Y1557960D01*
X11500Y1556960D02*
X11500Y1556960D01*
X2638500Y1556960D02*
X2638500Y1556960D01*
X11500Y1555960D02*
X11500Y1555960D01*
X2639500Y1555960D02*
X2639500Y1555960D01*
X11500Y1554960D02*
X11500Y1554960D01*
X2640500Y1554960D02*
X2640500Y1554960D01*
X11500Y1553960D02*
X11500Y1553960D01*
X2641500Y1553960D02*
X2641500Y1553960D01*
X11500Y1552960D02*
X11500Y1552960D01*
X2642500Y1552960D02*
X2642500Y1552960D01*
X11500Y1551960D02*
X11500Y1551960D01*
X2643500Y1551960D02*
X2643500Y1551960D01*
X11500Y1550960D02*
X11500Y1550960D01*
X2644500Y1550960D02*
X2644500Y1550960D01*
X11500Y1549960D02*
X11500Y1549960D01*
X2645500Y1549960D02*
X2645500Y1549960D01*
X11500Y1548960D02*
X11500Y1548960D01*
X2646500Y1548960D02*
X2646500Y1548960D01*
X11500Y1547960D02*
X11500Y1547960D01*
X2647500Y1547960D02*
X2647500Y1547960D01*
X11500Y1546960D02*
X11500Y1546960D01*
X2648500Y1546960D02*
X2648500Y1546960D01*
X11500Y1545960D02*
X11500Y1545960D01*
X2649500Y1545960D02*
X2650500Y1545960D01*
X11500Y1544960D02*
X11500Y1544960D01*
X2650500Y1544960D02*
X2651500Y1544960D01*
X11500Y1543960D02*
X11500Y1543960D01*
X2651500Y1543960D02*
X2652500Y1543960D01*
X11500Y1542960D02*
X11500Y1542960D01*
X2652500Y1542960D02*
X2653500Y1542960D01*
X11500Y1541960D02*
X11500Y1541960D01*
X2653500Y1541960D02*
X2654500Y1541960D01*
X11500Y1540960D02*
X11500Y1540960D01*
X2654500Y1540960D02*
X2655500Y1540960D01*
X11500Y1539960D02*
X11500Y1539960D01*
X2655500Y1539960D02*
X2656500Y1539960D01*
X11500Y1538960D02*
X11500Y1538960D01*
X2656500Y1538960D02*
X2657500Y1538960D01*
X11500Y1537960D02*
X11500Y1537960D01*
X2657500Y1537960D02*
X2658500Y1537960D01*
X11500Y1536960D02*
X11500Y1536960D01*
X2658500Y1536960D02*
X2659500Y1536960D01*
X11500Y1535960D02*
X11500Y1535960D01*
X2659500Y1535960D02*
X2660500Y1535960D01*
X11500Y1534960D02*
X11500Y1534960D01*
X2660500Y1534960D02*
X2661500Y1534960D01*
X11500Y1533960D02*
X11500Y1533960D01*
X2661500Y1533960D02*
X2662500Y1533960D01*
X11500Y1532960D02*
X11500Y1532960D01*
X2662500Y1532960D02*
X2663500Y1532960D01*
X11500Y1531960D02*
X11500Y1531960D01*
X2663500Y1531960D02*
X2664500Y1531960D01*
X11500Y1530960D02*
X11500Y1530960D01*
X2664500Y1530960D02*
X2665500Y1530960D01*
X11500Y1529960D02*
X11500Y1529960D01*
X2665500Y1529960D02*
X2666500Y1529960D01*
X11500Y1528960D02*
X11500Y1528960D01*
X2666500Y1528960D02*
X2667500Y1528960D01*
X11500Y1527960D02*
X11500Y1527960D01*
X2667500Y1527960D02*
X2668500Y1527960D01*
X11500Y1526960D02*
X11500Y1526960D01*
X2668500Y1526960D02*
X2669500Y1526960D01*
X11500Y1525960D02*
X11500Y1525960D01*
X2669500Y1525960D02*
X2670500Y1525960D01*
X11500Y1524960D02*
X11500Y1524960D01*
X2670500Y1524960D02*
X2671500Y1524960D01*
X11500Y1523960D02*
X11500Y1523960D01*
X2671500Y1523960D02*
X2672500Y1523960D01*
X11500Y1522960D02*
X11500Y1522960D01*
X2672500Y1522960D02*
X2673500Y1522960D01*
X11500Y1521960D02*
X11500Y1521960D01*
X2673500Y1521960D02*
X2674500Y1521960D01*
X11500Y1520960D02*
X11500Y1520960D01*
X2674500Y1520960D02*
X2675500Y1520960D01*
X11500Y1519960D02*
X11500Y1519960D01*
X2675500Y1519960D02*
X2676500Y1519960D01*
X11500Y1518960D02*
X11500Y1518960D01*
X2676500Y1518960D02*
X2677500Y1518960D01*
X11500Y1517960D02*
X11500Y1517960D01*
X2677500Y1517960D02*
X2678500Y1517960D01*
X11500Y1516960D02*
X11500Y1516960D01*
X2678500Y1516960D02*
X2679500Y1516960D01*
X11500Y1515960D02*
X11500Y1515960D01*
X2679500Y1515960D02*
X2680500Y1515960D01*
X11500Y1514960D02*
X11500Y1514960D01*
X2680500Y1514960D02*
X2681500Y1514960D01*
X11500Y1513960D02*
X11500Y1513960D01*
X2681500Y1513960D02*
X2682500Y1513960D01*
X11500Y1512960D02*
X11500Y1512960D01*
X2682500Y1512960D02*
X2683500Y1512960D01*
X11500Y1511960D02*
X11500Y1511960D01*
X2683500Y1511960D02*
X2684500Y1511960D01*
X11500Y1510960D02*
X11500Y1510960D01*
X2684500Y1510960D02*
X2685500Y1510960D01*
X11500Y1509960D02*
X11500Y1509960D01*
X2685500Y1509960D02*
X2686500Y1509960D01*
X11500Y1508960D02*
X11500Y1508960D01*
X2686500Y1508960D02*
X2687500Y1508960D01*
X11500Y1507960D02*
X11500Y1507960D01*
X2687500Y1507960D02*
X2688500Y1507960D01*
X11500Y1506960D02*
X11500Y1506960D01*
X2688500Y1506960D02*
X2689500Y1506960D01*
X11500Y1505960D02*
X11500Y1505960D01*
X2689500Y1505960D02*
X2690500Y1505960D01*
X11500Y1504960D02*
X11500Y1504960D01*
X2690500Y1504960D02*
X2691500Y1504960D01*
X11500Y1503960D02*
X11500Y1503960D01*
X2691500Y1503960D02*
X2692500Y1503960D01*
X11500Y1502960D02*
X11500Y1502960D01*
X2692500Y1502960D02*
X2693500Y1502960D01*
X11500Y1501960D02*
X11500Y1501960D01*
X2693500Y1501960D02*
X2694500Y1501960D01*
X11500Y1500960D02*
X11500Y1500960D01*
X2694500Y1500960D02*
X2695500Y1500960D01*
X11500Y1499960D02*
X11500Y1499960D01*
X2695500Y1499960D02*
X2696500Y1499960D01*
X11500Y1498960D02*
X11500Y1498960D01*
X2696500Y1498960D02*
X2697500Y1498960D01*
X11500Y1497960D02*
X11500Y1497960D01*
X2697500Y1497960D02*
X2698500Y1497960D01*
X11500Y1496960D02*
X11500Y1496960D01*
X2698500Y1496960D02*
X2699500Y1496960D01*
X11500Y1495960D02*
X11500Y1495960D01*
X2699500Y1495960D02*
X2700500Y1495960D01*
X11500Y1494960D02*
X11500Y1494960D01*
X2700500Y1494960D02*
X2701500Y1494960D01*
X11500Y1493960D02*
X11500Y1493960D01*
X2701500Y1493960D02*
X2702500Y1493960D01*
X11500Y1492960D02*
X11500Y1492960D01*
X2702500Y1492960D02*
X2703500Y1492960D01*
X11500Y1491960D02*
X11500Y1491960D01*
X2703500Y1491960D02*
X2703500Y1491960D01*
X11500Y1490960D02*
X11500Y1490960D01*
X2703500Y1490960D02*
X2703500Y1490960D01*
X11500Y1489960D02*
X11500Y1489960D01*
X2703500Y1489960D02*
X2703500Y1489960D01*
X11500Y1488960D02*
X11500Y1488960D01*
X2703500Y1488960D02*
X2703500Y1488960D01*
X11500Y1487960D02*
X11500Y1487960D01*
X2703500Y1487960D02*
X2703500Y1487960D01*
X11500Y1486960D02*
X11500Y1486960D01*
X2703500Y1486960D02*
X2703500Y1486960D01*
X11500Y1485960D02*
X11500Y1485960D01*
X2703500Y1485960D02*
X2703500Y1485960D01*
X11500Y1484960D02*
X11500Y1484960D01*
X2703500Y1484960D02*
X2703500Y1484960D01*
X11500Y1483960D02*
X11500Y1483960D01*
X2703500Y1483960D02*
X2703500Y1483960D01*
X11500Y1482960D02*
X11500Y1482960D01*
X2703500Y1482960D02*
X2703500Y1482960D01*
X11500Y1481960D02*
X11500Y1481960D01*
X2703500Y1481960D02*
X2703500Y1481960D01*
X11500Y1480960D02*
X11500Y1480960D01*
X2703500Y1480960D02*
X2703500Y1480960D01*
X11500Y1479960D02*
X11500Y1479960D01*
X2703500Y1479960D02*
X2703500Y1479960D01*
X11500Y1478960D02*
X11500Y1478960D01*
X2703500Y1478960D02*
X2703500Y1478960D01*
X11500Y1477960D02*
X11500Y1477960D01*
X2703500Y1477960D02*
X2703500Y1477960D01*
X11500Y1476960D02*
X11500Y1476960D01*
X2703500Y1476960D02*
X2703500Y1476960D01*
X11500Y1475960D02*
X11500Y1475960D01*
X2703500Y1475960D02*
X2703500Y1475960D01*
X11500Y1474960D02*
X11500Y1474960D01*
X2703500Y1474960D02*
X2703500Y1474960D01*
X11500Y1473960D02*
X11500Y1473960D01*
X2703500Y1473960D02*
X2703500Y1473960D01*
X11500Y1472960D02*
X11500Y1472960D01*
X2703500Y1472960D02*
X2703500Y1472960D01*
X11500Y1471960D02*
X11500Y1471960D01*
X2703500Y1471960D02*
X2703500Y1471960D01*
X11500Y1470960D02*
X11500Y1470960D01*
X2703500Y1470960D02*
X2703500Y1470960D01*
X11500Y1469960D02*
X11500Y1469960D01*
X2703500Y1469960D02*
X2703500Y1469960D01*
X11500Y1468960D02*
X11500Y1468960D01*
X2703500Y1468960D02*
X2703500Y1468960D01*
X11500Y1467960D02*
X11500Y1467960D01*
X2703500Y1467960D02*
X2703500Y1467960D01*
X11500Y1466960D02*
X11500Y1466960D01*
X2703500Y1466960D02*
X2703500Y1466960D01*
X11500Y1465960D02*
X11500Y1465960D01*
X2703500Y1465960D02*
X2703500Y1465960D01*
X11500Y1464960D02*
X11500Y1464960D01*
X2703500Y1464960D02*
X2703500Y1464960D01*
X11500Y1463960D02*
X11500Y1463960D01*
X2703500Y1463960D02*
X2703500Y1463960D01*
X11500Y1462960D02*
X11500Y1462960D01*
X2703500Y1462960D02*
X2703500Y1462960D01*
X11500Y1461960D02*
X11500Y1461960D01*
X2703500Y1461960D02*
X2703500Y1461960D01*
X11500Y1460960D02*
X11500Y1460960D01*
X2703500Y1460960D02*
X2703500Y1460960D01*
X11500Y1459960D02*
X11500Y1459960D01*
X2703500Y1459960D02*
X2703500Y1459960D01*
X11500Y1458960D02*
X11500Y1458960D01*
X2703500Y1458960D02*
X2703500Y1458960D01*
X11500Y1457960D02*
X11500Y1457960D01*
X2703500Y1457960D02*
X2703500Y1457960D01*
X11500Y1456960D02*
X11500Y1456960D01*
X2703500Y1456960D02*
X2703500Y1456960D01*
X11500Y1455960D02*
X11500Y1455960D01*
X2703500Y1455960D02*
X2703500Y1455960D01*
X11500Y1454960D02*
X11500Y1454960D01*
X2703500Y1454960D02*
X2703500Y1454960D01*
X11500Y1453960D02*
X11500Y1453960D01*
X2703500Y1453960D02*
X2703500Y1453960D01*
X11500Y1452960D02*
X11500Y1452960D01*
X2703500Y1452960D02*
X2703500Y1452960D01*
X11500Y1451960D02*
X11500Y1451960D01*
X2703500Y1451960D02*
X2703500Y1451960D01*
X11500Y1450960D02*
X11500Y1450960D01*
X2703500Y1450960D02*
X2703500Y1450960D01*
X11500Y1449960D02*
X11500Y1449960D01*
X2703500Y1449960D02*
X2703500Y1449960D01*
X11500Y1448960D02*
X11500Y1448960D01*
X2703500Y1448960D02*
X2703500Y1448960D01*
X11500Y1447960D02*
X11500Y1447960D01*
X2703500Y1447960D02*
X2703500Y1447960D01*
X11500Y1446960D02*
X11500Y1446960D01*
X2703500Y1446960D02*
X2703500Y1446960D01*
X11500Y1445960D02*
X11500Y1445960D01*
X2703500Y1445960D02*
X2703500Y1445960D01*
X11500Y1444960D02*
X11500Y1444960D01*
X2703500Y1444960D02*
X2703500Y1444960D01*
X11500Y1443960D02*
X11500Y1443960D01*
X2703500Y1443960D02*
X2703500Y1443960D01*
X11500Y1442960D02*
X11500Y1442960D01*
X2703500Y1442960D02*
X2703500Y1442960D01*
X11500Y1441960D02*
X11500Y1441960D01*
X2703500Y1441960D02*
X2703500Y1441960D01*
X11500Y1440960D02*
X11500Y1440960D01*
X2703500Y1440960D02*
X2703500Y1440960D01*
X11500Y1439960D02*
X11500Y1439960D01*
X2703500Y1439960D02*
X2703500Y1439960D01*
X11500Y1438960D02*
X11500Y1438960D01*
X2703500Y1438960D02*
X2703500Y1438960D01*
X11500Y1437960D02*
X11500Y1437960D01*
X2703500Y1437960D02*
X2703500Y1437960D01*
X11500Y1436960D02*
X11500Y1436960D01*
X2703500Y1436960D02*
X2703500Y1436960D01*
X11500Y1435960D02*
X11500Y1435960D01*
X2703500Y1435960D02*
X2703500Y1435960D01*
X11500Y1434960D02*
X11500Y1434960D01*
X2703500Y1434960D02*
X2703500Y1434960D01*
X11500Y1433960D02*
X11500Y1433960D01*
X2703500Y1433960D02*
X2703500Y1433960D01*
X11500Y1432960D02*
X11500Y1432960D01*
X2703500Y1432960D02*
X2703500Y1432960D01*
X11500Y1431960D02*
X11500Y1431960D01*
X2703500Y1431960D02*
X2703500Y1431960D01*
X11500Y1430960D02*
X11500Y1430960D01*
X2703500Y1430960D02*
X2703500Y1430960D01*
X11500Y1429960D02*
X11500Y1429960D01*
X2703500Y1429960D02*
X2703500Y1429960D01*
X11500Y1428960D02*
X11500Y1428960D01*
X2703500Y1428960D02*
X2703500Y1428960D01*
X11500Y1427960D02*
X11500Y1427960D01*
X2703500Y1427960D02*
X2703500Y1427960D01*
X11500Y1426960D02*
X11500Y1426960D01*
X2703500Y1426960D02*
X2703500Y1426960D01*
X11500Y1425960D02*
X11500Y1425960D01*
X2703500Y1425960D02*
X2703500Y1425960D01*
X11500Y1424960D02*
X11500Y1424960D01*
X2703500Y1424960D02*
X2703500Y1424960D01*
X11500Y1423960D02*
X11500Y1423960D01*
X2703500Y1423960D02*
X2703500Y1423960D01*
X11500Y1422960D02*
X11500Y1422960D01*
X2703500Y1422960D02*
X2703500Y1422960D01*
X11500Y1421960D02*
X11500Y1421960D01*
X2703500Y1421960D02*
X2703500Y1421960D01*
X11500Y1420960D02*
X11500Y1420960D01*
X2703500Y1420960D02*
X2703500Y1420960D01*
X11500Y1419960D02*
X11500Y1419960D01*
X2703500Y1419960D02*
X2703500Y1419960D01*
X11500Y1418960D02*
X11500Y1418960D01*
X2703500Y1418960D02*
X2703500Y1418960D01*
X11500Y1417960D02*
X11500Y1417960D01*
X2703500Y1417960D02*
X2703500Y1417960D01*
X11500Y1416960D02*
X11500Y1416960D01*
X2703500Y1416960D02*
X2703500Y1416960D01*
X11500Y1415960D02*
X11500Y1415960D01*
X2703500Y1415960D02*
X2703500Y1415960D01*
X11500Y1414960D02*
X11500Y1414960D01*
X2703500Y1414960D02*
X2703500Y1414960D01*
X11500Y1413960D02*
X11500Y1413960D01*
X2703500Y1413960D02*
X2703500Y1413960D01*
X11500Y1412960D02*
X11500Y1412960D01*
X2703500Y1412960D02*
X2703500Y1412960D01*
X11500Y1411960D02*
X11500Y1411960D01*
X2703500Y1411960D02*
X2703500Y1411960D01*
X11500Y1410960D02*
X11500Y1410960D01*
X2703500Y1410960D02*
X2703500Y1410960D01*
X11500Y1409960D02*
X11500Y1409960D01*
X2703500Y1409960D02*
X2703500Y1409960D01*
X11500Y1408960D02*
X11500Y1408960D01*
X2703500Y1408960D02*
X2703500Y1408960D01*
X11500Y1407960D02*
X11500Y1407960D01*
X2703500Y1407960D02*
X2703500Y1407960D01*
X11500Y1406960D02*
X11500Y1406960D01*
X2703500Y1406960D02*
X2703500Y1406960D01*
X11500Y1405960D02*
X11500Y1405960D01*
X2703500Y1405960D02*
X2703500Y1405960D01*
X11500Y1404960D02*
X11500Y1404960D01*
X2703500Y1404960D02*
X2703500Y1404960D01*
X11500Y1403960D02*
X11500Y1403960D01*
X2703500Y1403960D02*
X2703500Y1403960D01*
X11500Y1402960D02*
X11500Y1402960D01*
X2703500Y1402960D02*
X2703500Y1402960D01*
X11500Y1401960D02*
X11500Y1401960D01*
X2703500Y1401960D02*
X2703500Y1401960D01*
X11500Y1400960D02*
X11500Y1400960D01*
X2703500Y1400960D02*
X2703500Y1400960D01*
X11500Y1399960D02*
X11500Y1399960D01*
X2703500Y1399960D02*
X2703500Y1399960D01*
X11500Y1398960D02*
X11500Y1398960D01*
X2703500Y1398960D02*
X2703500Y1398960D01*
X11500Y1397960D02*
X11500Y1397960D01*
X2703500Y1397960D02*
X2703500Y1397960D01*
X11500Y1396960D02*
X11500Y1396960D01*
X2703500Y1396960D02*
X2703500Y1396960D01*
X11500Y1395960D02*
X11500Y1395960D01*
X2703500Y1395960D02*
X2703500Y1395960D01*
X11500Y1394960D02*
X11500Y1394960D01*
X2703500Y1394960D02*
X2703500Y1394960D01*
X11500Y1393960D02*
X11500Y1393960D01*
X2703500Y1393960D02*
X2703500Y1393960D01*
X11500Y1392960D02*
X11500Y1392960D01*
X2703500Y1392960D02*
X2703500Y1392960D01*
X11500Y1391960D02*
X11500Y1391960D01*
X2703500Y1391960D02*
X2703500Y1391960D01*
X11500Y1390960D02*
X11500Y1390960D01*
X2703500Y1390960D02*
X2703500Y1390960D01*
X11500Y1389960D02*
X11500Y1389960D01*
X2703500Y1389960D02*
X2703500Y1389960D01*
X11500Y1388960D02*
X11500Y1388960D01*
X2703500Y1388960D02*
X2703500Y1388960D01*
X11500Y1387960D02*
X11500Y1387960D01*
X2703500Y1387960D02*
X2703500Y1387960D01*
X11500Y1386960D02*
X11500Y1386960D01*
X2703500Y1386960D02*
X2703500Y1386960D01*
X11500Y1385960D02*
X11500Y1385960D01*
X2703500Y1385960D02*
X2703500Y1385960D01*
X11500Y1384960D02*
X11500Y1384960D01*
X2703500Y1384960D02*
X2703500Y1384960D01*
X11500Y1383960D02*
X11500Y1383960D01*
X2703500Y1383960D02*
X2703500Y1383960D01*
X11500Y1382960D02*
X11500Y1382960D01*
X2703500Y1382960D02*
X2703500Y1382960D01*
X11500Y1381960D02*
X11500Y1381960D01*
X2703500Y1381960D02*
X2703500Y1381960D01*
X11500Y1380960D02*
X11500Y1380960D01*
X2703500Y1380960D02*
X2703500Y1380960D01*
X11500Y1379960D02*
X11500Y1379960D01*
X2703500Y1379960D02*
X2703500Y1379960D01*
X11500Y1378960D02*
X11500Y1378960D01*
X2703500Y1378960D02*
X2703500Y1378960D01*
X11500Y1377960D02*
X11500Y1377960D01*
X2703500Y1377960D02*
X2703500Y1377960D01*
X11500Y1376960D02*
X11500Y1376960D01*
X2703500Y1376960D02*
X2703500Y1376960D01*
X11500Y1375960D02*
X11500Y1375960D01*
X2703500Y1375960D02*
X2703500Y1375960D01*
X11500Y1374960D02*
X11500Y1374960D01*
X2703500Y1374960D02*
X2703500Y1374960D01*
X11500Y1373960D02*
X11500Y1373960D01*
X2703500Y1373960D02*
X2703500Y1373960D01*
X11500Y1372960D02*
X11500Y1372960D01*
X2703500Y1372960D02*
X2703500Y1372960D01*
X11500Y1371960D02*
X11500Y1371960D01*
X2703500Y1371960D02*
X2703500Y1371960D01*
X11500Y1370960D02*
X11500Y1370960D01*
X2703500Y1370960D02*
X2703500Y1370960D01*
X11500Y1369960D02*
X11500Y1369960D01*
X2703500Y1369960D02*
X2703500Y1369960D01*
X11500Y1368960D02*
X11500Y1368960D01*
X2703500Y1368960D02*
X2703500Y1368960D01*
X11500Y1367960D02*
X11500Y1367960D01*
X2703500Y1367960D02*
X2703500Y1367960D01*
X11500Y1366960D02*
X11500Y1366960D01*
X2703500Y1366960D02*
X2703500Y1366960D01*
X11500Y1365960D02*
X11500Y1365960D01*
X2703500Y1365960D02*
X2703500Y1365960D01*
X11500Y1364960D02*
X11500Y1364960D01*
X2703500Y1364960D02*
X2703500Y1364960D01*
X11500Y1363960D02*
X11500Y1363960D01*
X2703500Y1363960D02*
X2703500Y1363960D01*
X11500Y1362960D02*
X11500Y1362960D01*
X2703500Y1362960D02*
X2703500Y1362960D01*
X11500Y1361960D02*
X11500Y1361960D01*
X2703500Y1361960D02*
X2703500Y1361960D01*
X11500Y1360960D02*
X11500Y1360960D01*
X2703500Y1360960D02*
X2703500Y1360960D01*
X11500Y1359960D02*
X11500Y1359960D01*
X2703500Y1359960D02*
X2703500Y1359960D01*
X11500Y1358960D02*
X11500Y1358960D01*
X2703500Y1358960D02*
X2703500Y1358960D01*
X11500Y1357960D02*
X11500Y1357960D01*
X2703500Y1357960D02*
X2703500Y1357960D01*
X11500Y1356960D02*
X11500Y1356960D01*
X2703500Y1356960D02*
X2703500Y1356960D01*
X11500Y1355960D02*
X11500Y1355960D01*
X2703500Y1355960D02*
X2703500Y1355960D01*
X11500Y1354960D02*
X11500Y1354960D01*
X2703500Y1354960D02*
X2703500Y1354960D01*
X11500Y1353960D02*
X11500Y1353960D01*
X2703500Y1353960D02*
X2703500Y1353960D01*
X11500Y1352960D02*
X11500Y1352960D01*
X2703500Y1352960D02*
X2703500Y1352960D01*
X11500Y1351960D02*
X11500Y1351960D01*
X2703500Y1351960D02*
X2703500Y1351960D01*
X11500Y1350960D02*
X11500Y1350960D01*
X2703500Y1350960D02*
X2703500Y1350960D01*
X11500Y1349960D02*
X11500Y1349960D01*
X2703500Y1349960D02*
X2703500Y1349960D01*
X11500Y1348960D02*
X11500Y1348960D01*
X2703500Y1348960D02*
X2703500Y1348960D01*
X11500Y1347960D02*
X11500Y1347960D01*
X2703500Y1347960D02*
X2703500Y1347960D01*
X11500Y1346960D02*
X11500Y1346960D01*
X2703500Y1346960D02*
X2703500Y1346960D01*
X11500Y1345960D02*
X11500Y1345960D01*
X2703500Y1345960D02*
X2703500Y1345960D01*
X11500Y1344960D02*
X11500Y1344960D01*
X2703500Y1344960D02*
X2703500Y1344960D01*
X11500Y1343960D02*
X11500Y1343960D01*
X2703500Y1343960D02*
X2703500Y1343960D01*
X11500Y1342960D02*
X11500Y1342960D01*
X2703500Y1342960D02*
X2703500Y1342960D01*
X11500Y1341960D02*
X11500Y1341960D01*
X2703500Y1341960D02*
X2703500Y1341960D01*
X11500Y1340960D02*
X11500Y1340960D01*
X2703500Y1340960D02*
X2703500Y1340960D01*
X11500Y1339960D02*
X11500Y1339960D01*
X2703500Y1339960D02*
X2703500Y1339960D01*
X11500Y1338960D02*
X11500Y1338960D01*
X2703500Y1338960D02*
X2703500Y1338960D01*
X11500Y1337960D02*
X11500Y1337960D01*
X2703500Y1337960D02*
X2703500Y1337960D01*
X11500Y1336960D02*
X11500Y1336960D01*
X2703500Y1336960D02*
X2703500Y1336960D01*
X11500Y1335960D02*
X11500Y1335960D01*
X2703500Y1335960D02*
X2703500Y1335960D01*
X11500Y1334960D02*
X11500Y1334960D01*
X2703500Y1334960D02*
X2703500Y1334960D01*
X11500Y1333960D02*
X11500Y1333960D01*
X2703500Y1333960D02*
X2703500Y1333960D01*
X11500Y1332960D02*
X11500Y1332960D01*
X2703500Y1332960D02*
X2703500Y1332960D01*
X11500Y1331960D02*
X11500Y1331960D01*
X2703500Y1331960D02*
X2703500Y1331960D01*
X11500Y1330960D02*
X11500Y1330960D01*
X2703500Y1330960D02*
X2703500Y1330960D01*
X11500Y1329960D02*
X11500Y1329960D01*
X2703500Y1329960D02*
X2703500Y1329960D01*
X11500Y1328960D02*
X11500Y1328960D01*
X2703500Y1328960D02*
X2703500Y1328960D01*
X11500Y1327960D02*
X11500Y1327960D01*
X2703500Y1327960D02*
X2703500Y1327960D01*
X11500Y1326960D02*
X11500Y1326960D01*
X2703500Y1326960D02*
X2703500Y1326960D01*
X11500Y1325960D02*
X11500Y1325960D01*
X2703500Y1325960D02*
X2703500Y1325960D01*
X11500Y1324960D02*
X11500Y1324960D01*
X2703500Y1324960D02*
X2703500Y1324960D01*
X11500Y1323960D02*
X11500Y1323960D01*
X2703500Y1323960D02*
X2703500Y1323960D01*
X11500Y1322960D02*
X11500Y1322960D01*
X2703500Y1322960D02*
X2703500Y1322960D01*
X11500Y1321960D02*
X11500Y1321960D01*
X2703500Y1321960D02*
X2703500Y1321960D01*
X11500Y1320960D02*
X11500Y1320960D01*
X2703500Y1320960D02*
X2703500Y1320960D01*
X11500Y1319960D02*
X11500Y1319960D01*
X2703500Y1319960D02*
X2703500Y1319960D01*
X11500Y1318960D02*
X11500Y1318960D01*
X2703500Y1318960D02*
X2703500Y1318960D01*
X11500Y1317960D02*
X11500Y1317960D01*
X2703500Y1317960D02*
X2703500Y1317960D01*
X11500Y1316960D02*
X11500Y1316960D01*
X2703500Y1316960D02*
X2703500Y1316960D01*
X11500Y1315960D02*
X11500Y1315960D01*
X2703500Y1315960D02*
X2703500Y1315960D01*
X11500Y1314960D02*
X11500Y1314960D01*
X2703500Y1314960D02*
X2703500Y1314960D01*
X11500Y1313960D02*
X11500Y1313960D01*
X2703500Y1313960D02*
X2703500Y1313960D01*
X11500Y1312960D02*
X11500Y1312960D01*
X2703500Y1312960D02*
X2703500Y1312960D01*
X11500Y1311960D02*
X11500Y1311960D01*
X2703500Y1311960D02*
X2703500Y1311960D01*
X11500Y1310960D02*
X11500Y1310960D01*
X2703500Y1310960D02*
X2703500Y1310960D01*
X11500Y1309960D02*
X11500Y1309960D01*
X2703500Y1309960D02*
X2703500Y1309960D01*
X11500Y1308960D02*
X11500Y1308960D01*
X2703500Y1308960D02*
X2703500Y1308960D01*
X11500Y1307960D02*
X11500Y1307960D01*
X2703500Y1307960D02*
X2703500Y1307960D01*
X11500Y1306960D02*
X11500Y1306960D01*
X2703500Y1306960D02*
X2703500Y1306960D01*
X11500Y1305960D02*
X11500Y1305960D01*
X2703500Y1305960D02*
X2703500Y1305960D01*
X11500Y1304960D02*
X11500Y1304960D01*
X2703500Y1304960D02*
X2703500Y1304960D01*
X11500Y1303960D02*
X11500Y1303960D01*
X2703500Y1303960D02*
X2703500Y1303960D01*
X11500Y1302960D02*
X11500Y1302960D01*
X2703500Y1302960D02*
X2703500Y1302960D01*
X11500Y1301960D02*
X11500Y1301960D01*
X2703500Y1301960D02*
X2703500Y1301960D01*
X11500Y1300960D02*
X11500Y1300960D01*
X2703500Y1300960D02*
X2703500Y1300960D01*
X11500Y1299960D02*
X11500Y1299960D01*
X2703500Y1299960D02*
X2703500Y1299960D01*
X11500Y1298960D02*
X11500Y1298960D01*
X2703500Y1298960D02*
X2703500Y1298960D01*
X11500Y1297960D02*
X11500Y1297960D01*
X2703500Y1297960D02*
X2703500Y1297960D01*
X11500Y1296960D02*
X11500Y1296960D01*
X2703500Y1296960D02*
X2703500Y1296960D01*
X11500Y1295960D02*
X11500Y1295960D01*
X2703500Y1295960D02*
X2703500Y1295960D01*
X11500Y1294960D02*
X11500Y1294960D01*
X2703500Y1294960D02*
X2703500Y1294960D01*
X11500Y1293960D02*
X11500Y1293960D01*
X2703500Y1293960D02*
X2703500Y1293960D01*
X11500Y1292960D02*
X11500Y1292960D01*
X2703500Y1292960D02*
X2703500Y1292960D01*
X11500Y1291960D02*
X11500Y1291960D01*
X2703500Y1291960D02*
X2703500Y1291960D01*
X11500Y1290960D02*
X11500Y1290960D01*
X2703500Y1290960D02*
X2703500Y1290960D01*
X11500Y1289960D02*
X11500Y1289960D01*
X2703500Y1289960D02*
X2703500Y1289960D01*
X11500Y1288960D02*
X11500Y1288960D01*
X2703500Y1288960D02*
X2703500Y1288960D01*
X11500Y1287960D02*
X11500Y1287960D01*
X2703500Y1287960D02*
X2703500Y1287960D01*
X11500Y1286960D02*
X11500Y1286960D01*
X2703500Y1286960D02*
X2703500Y1286960D01*
X11500Y1285960D02*
X11500Y1285960D01*
X2703500Y1285960D02*
X2703500Y1285960D01*
X11500Y1284960D02*
X11500Y1284960D01*
X2703500Y1284960D02*
X2703500Y1284960D01*
X11500Y1283960D02*
X11500Y1283960D01*
X2703500Y1283960D02*
X2703500Y1283960D01*
X11500Y1282960D02*
X11500Y1282960D01*
X2703500Y1282960D02*
X2703500Y1282960D01*
X11500Y1281960D02*
X11500Y1281960D01*
X2703500Y1281960D02*
X2703500Y1281960D01*
X11500Y1280960D02*
X11500Y1280960D01*
X2703500Y1280960D02*
X2703500Y1280960D01*
X11500Y1279960D02*
X11500Y1279960D01*
X2703500Y1279960D02*
X2703500Y1279960D01*
X11500Y1278960D02*
X11500Y1278960D01*
X2703500Y1278960D02*
X2703500Y1278960D01*
X11500Y1277960D02*
X11500Y1277960D01*
X2703500Y1277960D02*
X2703500Y1277960D01*
X11500Y1276960D02*
X11500Y1276960D01*
X2703500Y1276960D02*
X2703500Y1276960D01*
X11500Y1275960D02*
X11500Y1275960D01*
X2703500Y1275960D02*
X2703500Y1275960D01*
X11500Y1274960D02*
X11500Y1274960D01*
X2703500Y1274960D02*
X2703500Y1274960D01*
X11500Y1273960D02*
X11500Y1273960D01*
X2703500Y1273960D02*
X2703500Y1273960D01*
X11500Y1272960D02*
X11500Y1272960D01*
X2703500Y1272960D02*
X2703500Y1272960D01*
X11500Y1271960D02*
X11500Y1271960D01*
X2703500Y1271960D02*
X2703500Y1271960D01*
X11500Y1270960D02*
X11500Y1270960D01*
X2703500Y1270960D02*
X2703500Y1270960D01*
X11500Y1269960D02*
X11500Y1269960D01*
X2703500Y1269960D02*
X2703500Y1269960D01*
X11500Y1268960D02*
X11500Y1268960D01*
X2703500Y1268960D02*
X2703500Y1268960D01*
X11500Y1267960D02*
X11500Y1267960D01*
X2703500Y1267960D02*
X2703500Y1267960D01*
X11500Y1266960D02*
X11500Y1266960D01*
X2703500Y1266960D02*
X2703500Y1266960D01*
X11500Y1265960D02*
X11500Y1265960D01*
X2703500Y1265960D02*
X2703500Y1265960D01*
X11500Y1264960D02*
X11500Y1264960D01*
X2703500Y1264960D02*
X2703500Y1264960D01*
X11500Y1263960D02*
X11500Y1263960D01*
X2703500Y1263960D02*
X2703500Y1263960D01*
X11500Y1262960D02*
X11500Y1262960D01*
X2703500Y1262960D02*
X2703500Y1262960D01*
X11500Y1261960D02*
X11500Y1261960D01*
X2703500Y1261960D02*
X2703500Y1261960D01*
X11500Y1260960D02*
X11500Y1260960D01*
X2703500Y1260960D02*
X2703500Y1260960D01*
X11500Y1259960D02*
X11500Y1259960D01*
X2703500Y1259960D02*
X2703500Y1259960D01*
X11500Y1258960D02*
X11500Y1258960D01*
X2703500Y1258960D02*
X2703500Y1258960D01*
X11500Y1257960D02*
X11500Y1257960D01*
X2703500Y1257960D02*
X2703500Y1257960D01*
X11500Y1256960D02*
X11500Y1256960D01*
X2703500Y1256960D02*
X2703500Y1256960D01*
X11500Y1255960D02*
X11500Y1255960D01*
X2703500Y1255960D02*
X2703500Y1255960D01*
X11500Y1254960D02*
X11500Y1254960D01*
X2703500Y1254960D02*
X2703500Y1254960D01*
X11500Y1253960D02*
X11500Y1253960D01*
X2703500Y1253960D02*
X2703500Y1253960D01*
X11500Y1252960D02*
X11500Y1252960D01*
X2703500Y1252960D02*
X2703500Y1252960D01*
X11500Y1251960D02*
X11500Y1251960D01*
X2703500Y1251960D02*
X2703500Y1251960D01*
X11500Y1250960D02*
X11500Y1250960D01*
X2703500Y1250960D02*
X2703500Y1250960D01*
X11500Y1249960D02*
X11500Y1249960D01*
X2703500Y1249960D02*
X2703500Y1249960D01*
X11500Y1248960D02*
X11500Y1248960D01*
X2703500Y1248960D02*
X2703500Y1248960D01*
X11500Y1247960D02*
X11500Y1247960D01*
X2703500Y1247960D02*
X2703500Y1247960D01*
X11500Y1246960D02*
X11500Y1246960D01*
X2703500Y1246960D02*
X2703500Y1246960D01*
X11500Y1245960D02*
X11500Y1245960D01*
X2703500Y1245960D02*
X2703500Y1245960D01*
X11500Y1244960D02*
X11500Y1244960D01*
X2703500Y1244960D02*
X2703500Y1244960D01*
X11500Y1243960D02*
X11500Y1243960D01*
X2703500Y1243960D02*
X2703500Y1243960D01*
X11500Y1242960D02*
X11500Y1242960D01*
X2703500Y1242960D02*
X2703500Y1242960D01*
X11500Y1241960D02*
X11500Y1241960D01*
X2703500Y1241960D02*
X2703500Y1241960D01*
X11500Y1240960D02*
X11500Y1240960D01*
X2703500Y1240960D02*
X2703500Y1240960D01*
X11500Y1239960D02*
X11500Y1239960D01*
X2703500Y1239960D02*
X2703500Y1239960D01*
X11500Y1238960D02*
X11500Y1238960D01*
X2703500Y1238960D02*
X2703500Y1238960D01*
X11500Y1237960D02*
X11500Y1237960D01*
X2703500Y1237960D02*
X2703500Y1237960D01*
X11500Y1236960D02*
X11500Y1236960D01*
X2703500Y1236960D02*
X2703500Y1236960D01*
X11500Y1235960D02*
X11500Y1235960D01*
X2703500Y1235960D02*
X2703500Y1235960D01*
X11500Y1234960D02*
X11500Y1234960D01*
X2703500Y1234960D02*
X2703500Y1234960D01*
X11500Y1233960D02*
X11500Y1233960D01*
X2703500Y1233960D02*
X2703500Y1233960D01*
X11500Y1232960D02*
X11500Y1232960D01*
X2703500Y1232960D02*
X2703500Y1232960D01*
X11500Y1231960D02*
X11500Y1231960D01*
X2703500Y1231960D02*
X2703500Y1231960D01*
X11500Y1230960D02*
X11500Y1230960D01*
X2703500Y1230960D02*
X2703500Y1230960D01*
X11500Y1229960D02*
X11500Y1229960D01*
X2703500Y1229960D02*
X2703500Y1229960D01*
X11500Y1228960D02*
X11500Y1228960D01*
X2703500Y1228960D02*
X2703500Y1228960D01*
X11500Y1227960D02*
X11500Y1227960D01*
X2703500Y1227960D02*
X2703500Y1227960D01*
X11500Y1226960D02*
X11500Y1226960D01*
X2703500Y1226960D02*
X2703500Y1226960D01*
X11500Y1225960D02*
X11500Y1225960D01*
X2703500Y1225960D02*
X2703500Y1225960D01*
X11500Y1224960D02*
X11500Y1224960D01*
X2703500Y1224960D02*
X2703500Y1224960D01*
X11500Y1223960D02*
X11500Y1223960D01*
X2703500Y1223960D02*
X2703500Y1223960D01*
X11500Y1222960D02*
X11500Y1222960D01*
X2703500Y1222960D02*
X2703500Y1222960D01*
X11500Y1221960D02*
X11500Y1221960D01*
X2703500Y1221960D02*
X2703500Y1221960D01*
X11500Y1220960D02*
X11500Y1220960D01*
X2703500Y1220960D02*
X2703500Y1220960D01*
X11500Y1219960D02*
X11500Y1219960D01*
X2703500Y1219960D02*
X2703500Y1219960D01*
X11500Y1218960D02*
X11500Y1218960D01*
X2703500Y1218960D02*
X2703500Y1218960D01*
X11500Y1217960D02*
X11500Y1217960D01*
X2703500Y1217960D02*
X2703500Y1217960D01*
X11500Y1216960D02*
X11500Y1216960D01*
X2703500Y1216960D02*
X2703500Y1216960D01*
X11500Y1215960D02*
X11500Y1215960D01*
X2703500Y1215960D02*
X2703500Y1215960D01*
X11500Y1214960D02*
X11500Y1214960D01*
X2703500Y1214960D02*
X2703500Y1214960D01*
X11500Y1213960D02*
X11500Y1213960D01*
X2703500Y1213960D02*
X2703500Y1213960D01*
X11500Y1212960D02*
X11500Y1212960D01*
X2703500Y1212960D02*
X2703500Y1212960D01*
X11500Y1211960D02*
X11500Y1211960D01*
X2703500Y1211960D02*
X2703500Y1211960D01*
X11500Y1210960D02*
X11500Y1210960D01*
X2703500Y1210960D02*
X2703500Y1210960D01*
X11500Y1209960D02*
X11500Y1209960D01*
X2703500Y1209960D02*
X2703500Y1209960D01*
X11500Y1208960D02*
X11500Y1208960D01*
X2703500Y1208960D02*
X2703500Y1208960D01*
X11500Y1207960D02*
X11500Y1207960D01*
X2703500Y1207960D02*
X2703500Y1207960D01*
X11500Y1206960D02*
X11500Y1206960D01*
X2703500Y1206960D02*
X2703500Y1206960D01*
X11500Y1205960D02*
X11500Y1205960D01*
X2703500Y1205960D02*
X2703500Y1205960D01*
X11500Y1204960D02*
X11500Y1204960D01*
X2703500Y1204960D02*
X2703500Y1204960D01*
X11500Y1203960D02*
X11500Y1203960D01*
X2703500Y1203960D02*
X2703500Y1203960D01*
X11500Y1202960D02*
X11500Y1202960D01*
X2703500Y1202960D02*
X2703500Y1202960D01*
X11500Y1201960D02*
X11500Y1201960D01*
X2703500Y1201960D02*
X2703500Y1201960D01*
X11500Y1200960D02*
X11500Y1200960D01*
X2703500Y1200960D02*
X2703500Y1200960D01*
X11500Y1199960D02*
X11500Y1199960D01*
X2703500Y1199960D02*
X2703500Y1199960D01*
X11500Y1198960D02*
X11500Y1198960D01*
X2703500Y1198960D02*
X2703500Y1198960D01*
X11500Y1197960D02*
X11500Y1197960D01*
X2703500Y1197960D02*
X2703500Y1197960D01*
X11500Y1196960D02*
X11500Y1196960D01*
X2703500Y1196960D02*
X2703500Y1196960D01*
X11500Y1195960D02*
X11500Y1195960D01*
X2703500Y1195960D02*
X2703500Y1195960D01*
X11500Y1194960D02*
X11500Y1194960D01*
X2703500Y1194960D02*
X2703500Y1194960D01*
X11500Y1193960D02*
X11500Y1193960D01*
X2703500Y1193960D02*
X2703500Y1193960D01*
X11500Y1192960D02*
X11500Y1192960D01*
X2703500Y1192960D02*
X2703500Y1192960D01*
X11500Y1191960D02*
X11500Y1191960D01*
X2703500Y1191960D02*
X2703500Y1191960D01*
X11500Y1190960D02*
X11500Y1190960D01*
X2703500Y1190960D02*
X2703500Y1190960D01*
X11500Y1189960D02*
X11500Y1189960D01*
X2703500Y1189960D02*
X2703500Y1189960D01*
X11500Y1188960D02*
X11500Y1188960D01*
X2703500Y1188960D02*
X2703500Y1188960D01*
X11500Y1187960D02*
X11500Y1187960D01*
X2703500Y1187960D02*
X2703500Y1187960D01*
X11500Y1186960D02*
X11500Y1186960D01*
X2703500Y1186960D02*
X2703500Y1186960D01*
X11500Y1185960D02*
X11500Y1185960D01*
X2703500Y1185960D02*
X2703500Y1185960D01*
X11500Y1184960D02*
X11500Y1184960D01*
X2703500Y1184960D02*
X2703500Y1184960D01*
X11500Y1183960D02*
X11500Y1183960D01*
X2703500Y1183960D02*
X2703500Y1183960D01*
X11500Y1182960D02*
X11500Y1182960D01*
X2703500Y1182960D02*
X2703500Y1182960D01*
X11500Y1181960D02*
X11500Y1181960D01*
X2703500Y1181960D02*
X2703500Y1181960D01*
X11500Y1180960D02*
X11500Y1180960D01*
X2703500Y1180960D02*
X2703500Y1180960D01*
X11500Y1179960D02*
X11500Y1179960D01*
X2703500Y1179960D02*
X2703500Y1179960D01*
X11500Y1178960D02*
X11500Y1178960D01*
X2703500Y1178960D02*
X2703500Y1178960D01*
X11500Y1177960D02*
X11500Y1177960D01*
X2703500Y1177960D02*
X2703500Y1177960D01*
X11500Y1176960D02*
X11500Y1176960D01*
X2703500Y1176960D02*
X2703500Y1176960D01*
X11500Y1175960D02*
X11500Y1175960D01*
X2703500Y1175960D02*
X2703500Y1175960D01*
X11500Y1174960D02*
X11500Y1174960D01*
X2703500Y1174960D02*
X2703500Y1174960D01*
X11500Y1173960D02*
X11500Y1173960D01*
X2703500Y1173960D02*
X2703500Y1173960D01*
X11500Y1172960D02*
X11500Y1172960D01*
X2703500Y1172960D02*
X2703500Y1172960D01*
X11500Y1171960D02*
X11500Y1171960D01*
X2703500Y1171960D02*
X2703500Y1171960D01*
X11500Y1170960D02*
X11500Y1170960D01*
X2703500Y1170960D02*
X2703500Y1170960D01*
X11500Y1169960D02*
X11500Y1169960D01*
X2703500Y1169960D02*
X2703500Y1169960D01*
X11500Y1168960D02*
X11500Y1168960D01*
X2703500Y1168960D02*
X2703500Y1168960D01*
X11500Y1167960D02*
X11500Y1167960D01*
X2703500Y1167960D02*
X2703500Y1167960D01*
X11500Y1166960D02*
X11500Y1166960D01*
X2703500Y1166960D02*
X2703500Y1166960D01*
X11500Y1165960D02*
X11500Y1165960D01*
X2703500Y1165960D02*
X2703500Y1165960D01*
X11500Y1164960D02*
X11500Y1164960D01*
X2703500Y1164960D02*
X2703500Y1164960D01*
X11500Y1163960D02*
X11500Y1163960D01*
X2703500Y1163960D02*
X2703500Y1163960D01*
X11500Y1162960D02*
X11500Y1162960D01*
X2703500Y1162960D02*
X2703500Y1162960D01*
X11500Y1161960D02*
X11500Y1161960D01*
X2703500Y1161960D02*
X2703500Y1161960D01*
X11500Y1160960D02*
X11500Y1160960D01*
X2703500Y1160960D02*
X2703500Y1160960D01*
X11500Y1159960D02*
X11500Y1159960D01*
X2703500Y1159960D02*
X2703500Y1159960D01*
X11500Y1158960D02*
X11500Y1158960D01*
X2703500Y1158960D02*
X2703500Y1158960D01*
X11500Y1157960D02*
X11500Y1157960D01*
X2703500Y1157960D02*
X2703500Y1157960D01*
X11500Y1156960D02*
X11500Y1156960D01*
X2703500Y1156960D02*
X2703500Y1156960D01*
X11500Y1155960D02*
X11500Y1155960D01*
X2703500Y1155960D02*
X2703500Y1155960D01*
X11500Y1154960D02*
X11500Y1154960D01*
X2703500Y1154960D02*
X2703500Y1154960D01*
X11500Y1153960D02*
X11500Y1153960D01*
X2703500Y1153960D02*
X2703500Y1153960D01*
X11500Y1152960D02*
X11500Y1152960D01*
X2703500Y1152960D02*
X2703500Y1152960D01*
X11500Y1151960D02*
X11500Y1151960D01*
X2703500Y1151960D02*
X2703500Y1151960D01*
X11500Y1150960D02*
X11500Y1150960D01*
X2703500Y1150960D02*
X2703500Y1150960D01*
X11500Y1149960D02*
X11500Y1149960D01*
X2703500Y1149960D02*
X2703500Y1149960D01*
X11500Y1148960D02*
X11500Y1148960D01*
X2703500Y1148960D02*
X2703500Y1148960D01*
X11500Y1147960D02*
X11500Y1147960D01*
X2703500Y1147960D02*
X2703500Y1147960D01*
X11500Y1146960D02*
X11500Y1146960D01*
X2703500Y1146960D02*
X2703500Y1146960D01*
X11500Y1145960D02*
X11500Y1145960D01*
X2703500Y1145960D02*
X2703500Y1145960D01*
X11500Y1144960D02*
X11500Y1144960D01*
X2703500Y1144960D02*
X2703500Y1144960D01*
X11500Y1143960D02*
X11500Y1143960D01*
X2703500Y1143960D02*
X2703500Y1143960D01*
X11500Y1142960D02*
X11500Y1142960D01*
X2703500Y1142960D02*
X2703500Y1142960D01*
X11500Y1141960D02*
X11500Y1141960D01*
X2703500Y1141960D02*
X2703500Y1141960D01*
X11500Y1140960D02*
X11500Y1140960D01*
X2703500Y1140960D02*
X2703500Y1140960D01*
X11500Y1139960D02*
X11500Y1139960D01*
X2703500Y1139960D02*
X2703500Y1139960D01*
X11500Y1138960D02*
X11500Y1138960D01*
X2703500Y1138960D02*
X2703500Y1138960D01*
X11500Y1137960D02*
X11500Y1137960D01*
X2703500Y1137960D02*
X2703500Y1137960D01*
X11500Y1136960D02*
X11500Y1136960D01*
X2703500Y1136960D02*
X2703500Y1136960D01*
X11500Y1135960D02*
X11500Y1135960D01*
X2703500Y1135960D02*
X2703500Y1135960D01*
X11500Y1134960D02*
X11500Y1134960D01*
X2703500Y1134960D02*
X2703500Y1134960D01*
X11500Y1133960D02*
X11500Y1133960D01*
X2703500Y1133960D02*
X2703500Y1133960D01*
X11500Y1132960D02*
X11500Y1132960D01*
X2703500Y1132960D02*
X2703500Y1132960D01*
X11500Y1131960D02*
X11500Y1131960D01*
X2703500Y1131960D02*
X2703500Y1131960D01*
X11500Y1130960D02*
X11500Y1130960D01*
X2703500Y1130960D02*
X2703500Y1130960D01*
X11500Y1129960D02*
X11500Y1129960D01*
X2703500Y1129960D02*
X2703500Y1129960D01*
X11500Y1128960D02*
X11500Y1128960D01*
X2703500Y1128960D02*
X2703500Y1128960D01*
X11500Y1127960D02*
X11500Y1127960D01*
X2703500Y1127960D02*
X2703500Y1127960D01*
X11500Y1126960D02*
X11500Y1126960D01*
X2703500Y1126960D02*
X2703500Y1126960D01*
X11500Y1125960D02*
X11500Y1125960D01*
X2703500Y1125960D02*
X2703500Y1125960D01*
X11500Y1124960D02*
X11500Y1124960D01*
X2703500Y1124960D02*
X2703500Y1124960D01*
X11500Y1123960D02*
X11500Y1123960D01*
X2703500Y1123960D02*
X2703500Y1123960D01*
X11500Y1122960D02*
X11500Y1122960D01*
X2703500Y1122960D02*
X2703500Y1122960D01*
X11500Y1121960D02*
X11500Y1121960D01*
X2703500Y1121960D02*
X2703500Y1121960D01*
X11500Y1120960D02*
X11500Y1120960D01*
X2703500Y1120960D02*
X2703500Y1120960D01*
X11500Y1119960D02*
X11500Y1119960D01*
X2703500Y1119960D02*
X2703500Y1119960D01*
X11500Y1118960D02*
X11500Y1118960D01*
X2703500Y1118960D02*
X2703500Y1118960D01*
X11500Y1117960D02*
X11500Y1117960D01*
X2703500Y1117960D02*
X2703500Y1117960D01*
X11500Y1116960D02*
X11500Y1116960D01*
X2703500Y1116960D02*
X2703500Y1116960D01*
X11500Y1115960D02*
X11500Y1115960D01*
X2703500Y1115960D02*
X2703500Y1115960D01*
X11500Y1114960D02*
X11500Y1114960D01*
X2703500Y1114960D02*
X2703500Y1114960D01*
X11500Y1113960D02*
X11500Y1113960D01*
X2703500Y1113960D02*
X2703500Y1113960D01*
X11500Y1112960D02*
X11500Y1112960D01*
X2703500Y1112960D02*
X2703500Y1112960D01*
X11500Y1111960D02*
X11500Y1111960D01*
X2703500Y1111960D02*
X2703500Y1111960D01*
X11500Y1110960D02*
X11500Y1110960D01*
X2703500Y1110960D02*
X2703500Y1110960D01*
X11500Y1109960D02*
X11500Y1109960D01*
X2703500Y1109960D02*
X2703500Y1109960D01*
X11500Y1108960D02*
X11500Y1108960D01*
X2703500Y1108960D02*
X2703500Y1108960D01*
X11500Y1107960D02*
X11500Y1107960D01*
X2703500Y1107960D02*
X2703500Y1107960D01*
X11500Y1106960D02*
X11500Y1106960D01*
X2703500Y1106960D02*
X2703500Y1106960D01*
X11500Y1105960D02*
X11500Y1105960D01*
X2703500Y1105960D02*
X2703500Y1105960D01*
X11500Y1104960D02*
X11500Y1104960D01*
X2703500Y1104960D02*
X2703500Y1104960D01*
X11500Y1103960D02*
X11500Y1103960D01*
X2703500Y1103960D02*
X2703500Y1103960D01*
X11500Y1102960D02*
X11500Y1102960D01*
X2703500Y1102960D02*
X2703500Y1102960D01*
X11500Y1101960D02*
X11500Y1101960D01*
X2703500Y1101960D02*
X2703500Y1101960D01*
X11500Y1100960D02*
X11500Y1100960D01*
X2703500Y1100960D02*
X2703500Y1100960D01*
X11500Y1099960D02*
X11500Y1099960D01*
X2703500Y1099960D02*
X2703500Y1099960D01*
X11500Y1098960D02*
X11500Y1098960D01*
X2703500Y1098960D02*
X2703500Y1098960D01*
X11500Y1097960D02*
X11500Y1097960D01*
X2703500Y1097960D02*
X2703500Y1097960D01*
X11500Y1096960D02*
X11500Y1096960D01*
X2703500Y1096960D02*
X2703500Y1096960D01*
X11500Y1095960D02*
X11500Y1095960D01*
X2703500Y1095960D02*
X2703500Y1095960D01*
X11500Y1094960D02*
X11500Y1094960D01*
X2703500Y1094960D02*
X2703500Y1094960D01*
X11500Y1093960D02*
X11500Y1093960D01*
X2703500Y1093960D02*
X2703500Y1093960D01*
X11500Y1092960D02*
X11500Y1092960D01*
X2703500Y1092960D02*
X2703500Y1092960D01*
X11500Y1091960D02*
X11500Y1091960D01*
X2703500Y1091960D02*
X2703500Y1091960D01*
X11500Y1090960D02*
X11500Y1090960D01*
X2703500Y1090960D02*
X2703500Y1090960D01*
X11500Y1089960D02*
X11500Y1089960D01*
X2703500Y1089960D02*
X2703500Y1089960D01*
X11500Y1088960D02*
X11500Y1088960D01*
X2703500Y1088960D02*
X2703500Y1088960D01*
X11500Y1087960D02*
X11500Y1087960D01*
X2703500Y1087960D02*
X2703500Y1087960D01*
X11500Y1086960D02*
X11500Y1086960D01*
X2703500Y1086960D02*
X2703500Y1086960D01*
X11500Y1085960D02*
X11500Y1085960D01*
X2703500Y1085960D02*
X2703500Y1085960D01*
X11500Y1084960D02*
X11500Y1084960D01*
X2703500Y1084960D02*
X2703500Y1084960D01*
X11500Y1083960D02*
X11500Y1083960D01*
X2703500Y1083960D02*
X2703500Y1083960D01*
X11500Y1082960D02*
X11500Y1082960D01*
X2703500Y1082960D02*
X2703500Y1082960D01*
X11500Y1081960D02*
X11500Y1081960D01*
X2703500Y1081960D02*
X2703500Y1081960D01*
X11500Y1080960D02*
X11500Y1080960D01*
X2703500Y1080960D02*
X2703500Y1080960D01*
X11500Y1079960D02*
X11500Y1079960D01*
X2703500Y1079960D02*
X2703500Y1079960D01*
X11500Y1078960D02*
X11500Y1078960D01*
X2703500Y1078960D02*
X2703500Y1078960D01*
X11500Y1077960D02*
X11500Y1077960D01*
X2703500Y1077960D02*
X2703500Y1077960D01*
X11500Y1076960D02*
X11500Y1076960D01*
X2703500Y1076960D02*
X2703500Y1076960D01*
X11500Y1075960D02*
X11500Y1075960D01*
X2703500Y1075960D02*
X2703500Y1075960D01*
X11500Y1074960D02*
X11500Y1074960D01*
X2703500Y1074960D02*
X2703500Y1074960D01*
X11500Y1073960D02*
X11500Y1073960D01*
X2703500Y1073960D02*
X2703500Y1073960D01*
X11500Y1072960D02*
X11500Y1072960D01*
X2703500Y1072960D02*
X2703500Y1072960D01*
X11500Y1071960D02*
X11500Y1071960D01*
X2703500Y1071960D02*
X2703500Y1071960D01*
X11500Y1070960D02*
X11500Y1070960D01*
X2703500Y1070960D02*
X2703500Y1070960D01*
X11500Y1069960D02*
X11500Y1069960D01*
X2703500Y1069960D02*
X2703500Y1069960D01*
X11500Y1068960D02*
X11500Y1068960D01*
X2703500Y1068960D02*
X2703500Y1068960D01*
X11500Y1067960D02*
X11500Y1067960D01*
X2703500Y1067960D02*
X2703500Y1067960D01*
X11500Y1066960D02*
X11500Y1066960D01*
X2703500Y1066960D02*
X2703500Y1066960D01*
X11500Y1065960D02*
X11500Y1065960D01*
X2703500Y1065960D02*
X2703500Y1065960D01*
X11500Y1064960D02*
X11500Y1064960D01*
X2703500Y1064960D02*
X2703500Y1064960D01*
X11500Y1063960D02*
X11500Y1063960D01*
X2703500Y1063960D02*
X2703500Y1063960D01*
X11500Y1062960D02*
X11500Y1062960D01*
X2703500Y1062960D02*
X2703500Y1062960D01*
X11500Y1061960D02*
X11500Y1061960D01*
X2703500Y1061960D02*
X2703500Y1061960D01*
X11500Y1060960D02*
X11500Y1060960D01*
X2703500Y1060960D02*
X2703500Y1060960D01*
X11500Y1059960D02*
X11500Y1059960D01*
X2703500Y1059960D02*
X2703500Y1059960D01*
X11500Y1058960D02*
X11500Y1058960D01*
X2703500Y1058960D02*
X2703500Y1058960D01*
X11500Y1057960D02*
X11500Y1057960D01*
X2703500Y1057960D02*
X2703500Y1057960D01*
X11500Y1056960D02*
X11500Y1056960D01*
X2703500Y1056960D02*
X2703500Y1056960D01*
X11500Y1055960D02*
X11500Y1055960D01*
X2703500Y1055960D02*
X2703500Y1055960D01*
X11500Y1054960D02*
X11500Y1054960D01*
X2703500Y1054960D02*
X2703500Y1054960D01*
X11500Y1053960D02*
X11500Y1053960D01*
X2703500Y1053960D02*
X2703500Y1053960D01*
X11500Y1052960D02*
X11500Y1052960D01*
X2703500Y1052960D02*
X2703500Y1052960D01*
X11500Y1051960D02*
X11500Y1051960D01*
X2703500Y1051960D02*
X2703500Y1051960D01*
X11500Y1050960D02*
X11500Y1050960D01*
X2703500Y1050960D02*
X2703500Y1050960D01*
X11500Y1049960D02*
X11500Y1049960D01*
X2703500Y1049960D02*
X2703500Y1049960D01*
X11500Y1048960D02*
X11500Y1048960D01*
X2703500Y1048960D02*
X2703500Y1048960D01*
X11500Y1047960D02*
X11500Y1047960D01*
X2703500Y1047960D02*
X2703500Y1047960D01*
X11500Y1046960D02*
X11500Y1046960D01*
X2703500Y1046960D02*
X2703500Y1046960D01*
X11500Y1045960D02*
X11500Y1045960D01*
X2703500Y1045960D02*
X2703500Y1045960D01*
X11500Y1044960D02*
X11500Y1044960D01*
X2703500Y1044960D02*
X2703500Y1044960D01*
X11500Y1043960D02*
X11500Y1043960D01*
X2703500Y1043960D02*
X2703500Y1043960D01*
X11500Y1042960D02*
X11500Y1042960D01*
X2703500Y1042960D02*
X2703500Y1042960D01*
X11500Y1041960D02*
X11500Y1041960D01*
X2703500Y1041960D02*
X2703500Y1041960D01*
X11500Y1040960D02*
X11500Y1040960D01*
X2703500Y1040960D02*
X2703500Y1040960D01*
X11500Y1039960D02*
X11500Y1039960D01*
X2703500Y1039960D02*
X2703500Y1039960D01*
X11500Y1038960D02*
X11500Y1038960D01*
X2703500Y1038960D02*
X2703500Y1038960D01*
X11500Y1037960D02*
X11500Y1037960D01*
X2703500Y1037960D02*
X2703500Y1037960D01*
X11500Y1036960D02*
X11500Y1036960D01*
X2703500Y1036960D02*
X2703500Y1036960D01*
X11500Y1035960D02*
X11500Y1035960D01*
X2703500Y1035960D02*
X2703500Y1035960D01*
X11500Y1034960D02*
X11500Y1034960D01*
X2703500Y1034960D02*
X2703500Y1034960D01*
X11500Y1033960D02*
X11500Y1033960D01*
X2703500Y1033960D02*
X2703500Y1033960D01*
X11500Y1032960D02*
X11500Y1032960D01*
X2703500Y1032960D02*
X2703500Y1032960D01*
X11500Y1031960D02*
X11500Y1031960D01*
X2703500Y1031960D02*
X2703500Y1031960D01*
X11500Y1030960D02*
X11500Y1030960D01*
X2703500Y1030960D02*
X2703500Y1030960D01*
X11500Y1029960D02*
X11500Y1029960D01*
X2703500Y1029960D02*
X2703500Y1029960D01*
X11500Y1028960D02*
X11500Y1028960D01*
X2703500Y1028960D02*
X2703500Y1028960D01*
X11500Y1027960D02*
X11500Y1027960D01*
X2703500Y1027960D02*
X2703500Y1027960D01*
X11500Y1026960D02*
X11500Y1026960D01*
X2703500Y1026960D02*
X2703500Y1026960D01*
X11500Y1025960D02*
X11500Y1025960D01*
X2703500Y1025960D02*
X2703500Y1025960D01*
X11500Y1024960D02*
X11500Y1024960D01*
X2703500Y1024960D02*
X2703500Y1024960D01*
X11500Y1023960D02*
X11500Y1023960D01*
X2703500Y1023960D02*
X2703500Y1023960D01*
X11500Y1022960D02*
X11500Y1022960D01*
X2703500Y1022960D02*
X2703500Y1022960D01*
X11500Y1021960D02*
X11500Y1021960D01*
X2703500Y1021960D02*
X2703500Y1021960D01*
X11500Y1020960D02*
X11500Y1020960D01*
X2703500Y1020960D02*
X2703500Y1020960D01*
X11500Y1019960D02*
X11500Y1019960D01*
X2703500Y1019960D02*
X2703500Y1019960D01*
X11500Y1018960D02*
X11500Y1018960D01*
X2703500Y1018960D02*
X2703500Y1018960D01*
X11500Y1017960D02*
X11500Y1017960D01*
X2703500Y1017960D02*
X2703500Y1017960D01*
X11500Y1016960D02*
X11500Y1016960D01*
X2703500Y1016960D02*
X2703500Y1016960D01*
X11500Y1015960D02*
X11500Y1015960D01*
X2703500Y1015960D02*
X2703500Y1015960D01*
X11500Y1014960D02*
X11500Y1014960D01*
X2703500Y1014960D02*
X2703500Y1014960D01*
X11500Y1013960D02*
X11500Y1013960D01*
X2703500Y1013960D02*
X2703500Y1013960D01*
X11500Y1012960D02*
X11500Y1012960D01*
X2703500Y1012960D02*
X2703500Y1012960D01*
X11500Y1011960D02*
X11500Y1011960D01*
X2703500Y1011960D02*
X2703500Y1011960D01*
X11500Y1010960D02*
X11500Y1010960D01*
X2703500Y1010960D02*
X2703500Y1010960D01*
X11500Y1009960D02*
X11500Y1009960D01*
X2703500Y1009960D02*
X2703500Y1009960D01*
X11500Y1008960D02*
X11500Y1008960D01*
X2703500Y1008960D02*
X2703500Y1008960D01*
X11500Y1007960D02*
X11500Y1007960D01*
X2703500Y1007960D02*
X2703500Y1007960D01*
X11500Y1006960D02*
X11500Y1006960D01*
X2703500Y1006960D02*
X2703500Y1006960D01*
X11500Y1005960D02*
X11500Y1005960D01*
X2703500Y1005960D02*
X2703500Y1005960D01*
X11500Y1004960D02*
X11500Y1004960D01*
X2703500Y1004960D02*
X2703500Y1004960D01*
X11500Y1003960D02*
X11500Y1003960D01*
X2703500Y1003960D02*
X2703500Y1003960D01*
X11500Y1002960D02*
X11500Y1002960D01*
X2703500Y1002960D02*
X2703500Y1002960D01*
X11500Y1001960D02*
X11500Y1001960D01*
X2703500Y1001960D02*
X2703500Y1001960D01*
X11500Y1000960D02*
X11500Y1000960D01*
X2703500Y1000960D02*
X2703500Y1000960D01*
X11500Y999960D02*
X11500Y999960D01*
X2703500Y999960D02*
X2703500Y999960D01*
X11500Y998960D02*
X11500Y998960D01*
X2703500Y998960D02*
X2703500Y998960D01*
X11500Y997960D02*
X11500Y997960D01*
X2703500Y997960D02*
X2703500Y997960D01*
X11500Y996960D02*
X11500Y996960D01*
X2703500Y996960D02*
X2703500Y996960D01*
X11500Y995960D02*
X11500Y995960D01*
X2703500Y995960D02*
X2703500Y995960D01*
X11500Y994960D02*
X11500Y994960D01*
X2703500Y994960D02*
X2703500Y994960D01*
X11500Y993960D02*
X11500Y993960D01*
X2703500Y993960D02*
X2703500Y993960D01*
X11500Y992960D02*
X11500Y992960D01*
X2703500Y992960D02*
X2703500Y992960D01*
X11500Y991960D02*
X11500Y991960D01*
X2703500Y991960D02*
X2703500Y991960D01*
X11500Y990960D02*
X11500Y990960D01*
X2703500Y990960D02*
X2703500Y990960D01*
X11500Y989960D02*
X11500Y989960D01*
X2703500Y989960D02*
X2703500Y989960D01*
X11500Y988960D02*
X11500Y988960D01*
X2703500Y988960D02*
X2703500Y988960D01*
X11500Y987960D02*
X11500Y987960D01*
X2703500Y987960D02*
X2703500Y987960D01*
X11500Y986960D02*
X11500Y986960D01*
X2703500Y986960D02*
X2703500Y986960D01*
X11500Y985960D02*
X11500Y985960D01*
X2703500Y985960D02*
X2703500Y985960D01*
X11500Y984960D02*
X11500Y984960D01*
X2703500Y984960D02*
X2703500Y984960D01*
X11500Y983960D02*
X11500Y983960D01*
X2703500Y983960D02*
X2703500Y983960D01*
X11500Y982960D02*
X11500Y982960D01*
X2703500Y982960D02*
X2703500Y982960D01*
X11500Y981960D02*
X11500Y981960D01*
X2703500Y981960D02*
X2703500Y981960D01*
X11500Y980960D02*
X11500Y980960D01*
X2703500Y980960D02*
X2703500Y980960D01*
X11500Y979960D02*
X11500Y979960D01*
X2703500Y979960D02*
X2703500Y979960D01*
X11500Y978960D02*
X11500Y978960D01*
X2703500Y978960D02*
X2703500Y978960D01*
X11500Y977960D02*
X11500Y977960D01*
X2703500Y977960D02*
X2703500Y977960D01*
X11500Y976960D02*
X11500Y976960D01*
X2703500Y976960D02*
X2703500Y976960D01*
X11500Y975960D02*
X11500Y975960D01*
X2703500Y975960D02*
X2703500Y975960D01*
X11500Y974960D02*
X11500Y974960D01*
X2703500Y974960D02*
X2703500Y974960D01*
X11500Y973960D02*
X11500Y973960D01*
X2703500Y973960D02*
X2703500Y973960D01*
X11500Y972960D02*
X11500Y972960D01*
X2703500Y972960D02*
X2703500Y972960D01*
X11500Y971960D02*
X11500Y971960D01*
X2703500Y971960D02*
X2703500Y971960D01*
X11500Y970960D02*
X11500Y970960D01*
X2703500Y970960D02*
X2703500Y970960D01*
X11500Y969960D02*
X11500Y969960D01*
X2703500Y969960D02*
X2703500Y969960D01*
X11500Y968960D02*
X11500Y968960D01*
X2703500Y968960D02*
X2703500Y968960D01*
X11500Y967960D02*
X11500Y967960D01*
X2703500Y967960D02*
X2703500Y967960D01*
X11500Y966960D02*
X11500Y966960D01*
X2703500Y966960D02*
X2703500Y966960D01*
X11500Y965960D02*
X11500Y965960D01*
X2703500Y965960D02*
X2703500Y965960D01*
X11500Y964960D02*
X11500Y964960D01*
X2703500Y964960D02*
X2703500Y964960D01*
X11500Y963960D02*
X11500Y963960D01*
X2703500Y963960D02*
X2703500Y963960D01*
X11500Y962960D02*
X11500Y962960D01*
X2703500Y962960D02*
X2703500Y962960D01*
X11500Y961960D02*
X11500Y961960D01*
X2703500Y961960D02*
X2703500Y961960D01*
X11500Y960960D02*
X11500Y960960D01*
X2703500Y960960D02*
X2703500Y960960D01*
X11500Y959960D02*
X11500Y959960D01*
X2703500Y959960D02*
X2703500Y959960D01*
X11500Y958960D02*
X11500Y958960D01*
X2703500Y958960D02*
X2703500Y958960D01*
X11500Y957960D02*
X11500Y957960D01*
X2703500Y957960D02*
X2703500Y957960D01*
X11500Y956960D02*
X11500Y956960D01*
X2703500Y956960D02*
X2703500Y956960D01*
X11500Y955960D02*
X11500Y955960D01*
X2703500Y955960D02*
X2703500Y955960D01*
X11500Y954960D02*
X11500Y954960D01*
X2703500Y954960D02*
X2703500Y954960D01*
X11500Y953960D02*
X11500Y953960D01*
X2703500Y953960D02*
X2703500Y953960D01*
X11500Y952960D02*
X11500Y952960D01*
X2703500Y952960D02*
X2703500Y952960D01*
X11500Y951960D02*
X11500Y951960D01*
X2703500Y951960D02*
X2703500Y951960D01*
X11500Y950960D02*
X11500Y950960D01*
X2703500Y950960D02*
X2703500Y950960D01*
X11500Y949960D02*
X11500Y949960D01*
X2703500Y949960D02*
X2703500Y949960D01*
X11500Y948960D02*
X11500Y948960D01*
X2703500Y948960D02*
X2703500Y948960D01*
X11500Y947960D02*
X11500Y947960D01*
X2703500Y947960D02*
X2703500Y947960D01*
X11500Y946960D02*
X11500Y946960D01*
X2703500Y946960D02*
X2703500Y946960D01*
X11500Y945960D02*
X11500Y945960D01*
X2703500Y945960D02*
X2703500Y945960D01*
X11500Y944960D02*
X11500Y944960D01*
X2703500Y944960D02*
X2703500Y944960D01*
X11500Y943960D02*
X11500Y943960D01*
X2703500Y943960D02*
X2703500Y943960D01*
X11500Y942960D02*
X11500Y942960D01*
X2703500Y942960D02*
X2703500Y942960D01*
X11500Y941960D02*
X11500Y941960D01*
X2703500Y941960D02*
X2703500Y941960D01*
X11500Y940960D02*
X11500Y940960D01*
X2703500Y940960D02*
X2703500Y940960D01*
X11500Y939960D02*
X11500Y939960D01*
X2703500Y939960D02*
X2703500Y939960D01*
X11500Y938960D02*
X11500Y938960D01*
X2703500Y938960D02*
X2703500Y938960D01*
X11500Y937960D02*
X11500Y937960D01*
X2703500Y937960D02*
X2703500Y937960D01*
X11500Y936960D02*
X11500Y936960D01*
X2703500Y936960D02*
X2703500Y936960D01*
X11500Y935960D02*
X11500Y935960D01*
X2703500Y935960D02*
X2703500Y935960D01*
X11500Y934960D02*
X11500Y934960D01*
X2703500Y934960D02*
X2703500Y934960D01*
X11500Y933960D02*
X11500Y933960D01*
X2703500Y933960D02*
X2703500Y933960D01*
X11500Y932960D02*
X11500Y932960D01*
X2703500Y932960D02*
X2703500Y932960D01*
X11500Y931960D02*
X11500Y931960D01*
X2703500Y931960D02*
X2703500Y931960D01*
X11500Y930960D02*
X11500Y930960D01*
X2703500Y930960D02*
X2703500Y930960D01*
X11500Y929960D02*
X11500Y929960D01*
X2703500Y929960D02*
X2703500Y929960D01*
X11500Y928960D02*
X11500Y928960D01*
X2703500Y928960D02*
X2703500Y928960D01*
X11500Y927960D02*
X11500Y927960D01*
X2703500Y927960D02*
X2703500Y927960D01*
X11500Y926960D02*
X11500Y926960D01*
X2703500Y926960D02*
X2703500Y926960D01*
X11500Y925960D02*
X11500Y925960D01*
X2703500Y925960D02*
X2703500Y925960D01*
X11500Y924960D02*
X11500Y924960D01*
X2703500Y924960D02*
X2703500Y924960D01*
X11500Y923960D02*
X11500Y923960D01*
X2703500Y923960D02*
X2703500Y923960D01*
X11500Y922960D02*
X11500Y922960D01*
X2703500Y922960D02*
X2703500Y922960D01*
X11500Y921960D02*
X11500Y921960D01*
X2703500Y921960D02*
X2703500Y921960D01*
X11500Y920960D02*
X11500Y920960D01*
X2703500Y920960D02*
X2703500Y920960D01*
X11500Y919960D02*
X11500Y919960D01*
X2703500Y919960D02*
X2703500Y919960D01*
X11500Y918960D02*
X11500Y918960D01*
X2703500Y918960D02*
X2703500Y918960D01*
X11500Y917960D02*
X11500Y917960D01*
X2703500Y917960D02*
X2703500Y917960D01*
X11500Y916960D02*
X11500Y916960D01*
X2703500Y916960D02*
X2703500Y916960D01*
X11500Y915960D02*
X11500Y915960D01*
X2703500Y915960D02*
X2703500Y915960D01*
X11500Y914960D02*
X11500Y914960D01*
X2703500Y914960D02*
X2703500Y914960D01*
X11500Y913960D02*
X11500Y913960D01*
X2703500Y913960D02*
X2703500Y913960D01*
X11500Y912960D02*
X11500Y912960D01*
X2703500Y912960D02*
X2703500Y912960D01*
X11500Y911960D02*
X11500Y911960D01*
X2703500Y911960D02*
X2703500Y911960D01*
X11500Y910960D02*
X11500Y910960D01*
X2703500Y910960D02*
X2703500Y910960D01*
X11500Y909960D02*
X11500Y909960D01*
X2703500Y909960D02*
X2703500Y909960D01*
X11500Y908960D02*
X11500Y908960D01*
X2703500Y908960D02*
X2703500Y908960D01*
X11500Y907960D02*
X11500Y907960D01*
X2703500Y907960D02*
X2703500Y907960D01*
X11500Y906960D02*
X11500Y906960D01*
X2703500Y906960D02*
X2703500Y906960D01*
X11500Y905960D02*
X11500Y905960D01*
X2703500Y905960D02*
X2703500Y905960D01*
X11500Y904960D02*
X11500Y904960D01*
X2703500Y904960D02*
X2703500Y904960D01*
X11500Y903960D02*
X11500Y903960D01*
X2703500Y903960D02*
X2703500Y903960D01*
X11500Y902960D02*
X11500Y902960D01*
X2703500Y902960D02*
X2703500Y902960D01*
X11500Y901960D02*
X11500Y901960D01*
X2703500Y901960D02*
X2703500Y901960D01*
X11500Y900960D02*
X11500Y900960D01*
X2703500Y900960D02*
X2703500Y900960D01*
X11500Y899960D02*
X11500Y899960D01*
X2703500Y899960D02*
X2703500Y899960D01*
X11500Y898960D02*
X11500Y898960D01*
X2703500Y898960D02*
X2703500Y898960D01*
X11500Y897960D02*
X11500Y897960D01*
X2703500Y897960D02*
X2703500Y897960D01*
X11500Y896960D02*
X11500Y896960D01*
X2703500Y896960D02*
X2703500Y896960D01*
X11500Y895960D02*
X11500Y895960D01*
X2703500Y895960D02*
X2703500Y895960D01*
X11500Y894960D02*
X11500Y894960D01*
X2703500Y894960D02*
X2703500Y894960D01*
X11500Y893960D02*
X11500Y893960D01*
X2703500Y893960D02*
X2703500Y893960D01*
X11500Y892960D02*
X11500Y892960D01*
X2703500Y892960D02*
X2703500Y892960D01*
X11500Y891960D02*
X11500Y891960D01*
X2703500Y891960D02*
X2703500Y891960D01*
X11500Y890960D02*
X11500Y890960D01*
X2703500Y890960D02*
X2703500Y890960D01*
X11500Y889960D02*
X11500Y889960D01*
X2703500Y889960D02*
X2703500Y889960D01*
X11500Y888960D02*
X11500Y888960D01*
X2703500Y888960D02*
X2703500Y888960D01*
X11500Y887960D02*
X11500Y887960D01*
X2703500Y887960D02*
X2703500Y887960D01*
X11500Y886960D02*
X11500Y886960D01*
X2703500Y886960D02*
X2703500Y886960D01*
X11500Y885960D02*
X11500Y885960D01*
X2703500Y885960D02*
X2703500Y885960D01*
X11500Y884960D02*
X11500Y884960D01*
X2703500Y884960D02*
X2703500Y884960D01*
X11500Y883960D02*
X11500Y883960D01*
X2703500Y883960D02*
X2703500Y883960D01*
X11500Y882960D02*
X11500Y882960D01*
X2703500Y882960D02*
X2703500Y882960D01*
X11500Y881960D02*
X11500Y881960D01*
X2703500Y881960D02*
X2703500Y881960D01*
X11500Y880960D02*
X11500Y880960D01*
X2703500Y880960D02*
X2703500Y880960D01*
X11500Y879960D02*
X11500Y879960D01*
X2703500Y879960D02*
X2703500Y879960D01*
X11500Y878960D02*
X11500Y878960D01*
X2703500Y878960D02*
X2703500Y878960D01*
X11500Y877960D02*
X11500Y877960D01*
X2703500Y877960D02*
X2703500Y877960D01*
X11500Y876960D02*
X11500Y876960D01*
X2703500Y876960D02*
X2703500Y876960D01*
X11500Y875960D02*
X11500Y875960D01*
X2703500Y875960D02*
X2703500Y875960D01*
X11500Y874960D02*
X11500Y874960D01*
X2703500Y874960D02*
X2703500Y874960D01*
X11500Y873960D02*
X11500Y873960D01*
X2703500Y873960D02*
X2703500Y873960D01*
X11500Y872960D02*
X11500Y872960D01*
X2703500Y872960D02*
X2703500Y872960D01*
X11500Y871960D02*
X11500Y871960D01*
X2703500Y871960D02*
X2703500Y871960D01*
X11500Y870960D02*
X11500Y870960D01*
X2703500Y870960D02*
X2703500Y870960D01*
X11500Y869960D02*
X11500Y869960D01*
X2703500Y869960D02*
X2703500Y869960D01*
X11500Y868960D02*
X11500Y868960D01*
X2703500Y868960D02*
X2703500Y868960D01*
X11500Y867960D02*
X11500Y867960D01*
X2703500Y867960D02*
X2703500Y867960D01*
X11500Y866960D02*
X11500Y866960D01*
X2703500Y866960D02*
X2703500Y866960D01*
X11500Y865960D02*
X11500Y865960D01*
X2703500Y865960D02*
X2703500Y865960D01*
X11500Y864960D02*
X11500Y864960D01*
X2703500Y864960D02*
X2703500Y864960D01*
X11500Y863960D02*
X11500Y863960D01*
X2703500Y863960D02*
X2703500Y863960D01*
X11500Y862960D02*
X11500Y862960D01*
X2703500Y862960D02*
X2703500Y862960D01*
X11500Y861960D02*
X11500Y861960D01*
X2703500Y861960D02*
X2703500Y861960D01*
X11500Y860960D02*
X11500Y860960D01*
X2703500Y860960D02*
X2703500Y860960D01*
X11500Y859960D02*
X11500Y859960D01*
X2703500Y859960D02*
X2703500Y859960D01*
X11500Y858960D02*
X11500Y858960D01*
X2703500Y858960D02*
X2703500Y858960D01*
X11500Y857960D02*
X11500Y857960D01*
X2703500Y857960D02*
X2703500Y857960D01*
X11500Y856960D02*
X11500Y856960D01*
X2703500Y856960D02*
X2703500Y856960D01*
X11500Y855960D02*
X11500Y855960D01*
X2703500Y855960D02*
X2703500Y855960D01*
X11500Y854960D02*
X11500Y854960D01*
X2703500Y854960D02*
X2703500Y854960D01*
X11500Y853960D02*
X11500Y853960D01*
X2703500Y853960D02*
X2703500Y853960D01*
X11500Y852960D02*
X11500Y852960D01*
X2703500Y852960D02*
X2703500Y852960D01*
X11500Y851960D02*
X11500Y851960D01*
X2703500Y851960D02*
X2703500Y851960D01*
X11500Y850960D02*
X11500Y850960D01*
X2703500Y850960D02*
X2703500Y850960D01*
X11500Y849960D02*
X11500Y849960D01*
X2703500Y849960D02*
X2703500Y849960D01*
X11500Y848960D02*
X11500Y848960D01*
X2703500Y848960D02*
X2703500Y848960D01*
X11500Y847960D02*
X11500Y847960D01*
X2703500Y847960D02*
X2703500Y847960D01*
X11500Y846960D02*
X11500Y846960D01*
X2703500Y846960D02*
X2703500Y846960D01*
X11500Y845960D02*
X11500Y845960D01*
X2703500Y845960D02*
X2703500Y845960D01*
X11500Y844960D02*
X11500Y844960D01*
X2703500Y844960D02*
X2703500Y844960D01*
X11500Y843960D02*
X11500Y843960D01*
X2703500Y843960D02*
X2703500Y843960D01*
X11500Y842960D02*
X11500Y842960D01*
X2703500Y842960D02*
X2703500Y842960D01*
X11500Y841960D02*
X11500Y841960D01*
X2703500Y841960D02*
X2703500Y841960D01*
X11500Y840960D02*
X11500Y840960D01*
X2703500Y840960D02*
X2703500Y840960D01*
X11500Y839960D02*
X11500Y839960D01*
X2703500Y839960D02*
X2703500Y839960D01*
X11500Y838960D02*
X11500Y838960D01*
X2703500Y838960D02*
X2703500Y838960D01*
X11500Y837960D02*
X11500Y837960D01*
X2703500Y837960D02*
X2703500Y837960D01*
X11500Y836960D02*
X11500Y836960D01*
X2703500Y836960D02*
X2703500Y836960D01*
X11500Y835960D02*
X11500Y835960D01*
X2703500Y835960D02*
X2703500Y835960D01*
X11500Y834960D02*
X11500Y834960D01*
X2703500Y834960D02*
X2703500Y834960D01*
X11500Y833960D02*
X11500Y833960D01*
X2703500Y833960D02*
X2703500Y833960D01*
X11500Y832960D02*
X11500Y832960D01*
X2703500Y832960D02*
X2703500Y832960D01*
X11500Y831960D02*
X11500Y831960D01*
X2703500Y831960D02*
X2703500Y831960D01*
X11500Y830960D02*
X11500Y830960D01*
X2703500Y830960D02*
X2703500Y830960D01*
X11500Y829960D02*
X11500Y829960D01*
X2703500Y829960D02*
X2703500Y829960D01*
X11500Y828960D02*
X11500Y828960D01*
X2703500Y828960D02*
X2703500Y828960D01*
X11500Y827960D02*
X11500Y827960D01*
X2703500Y827960D02*
X2703500Y827960D01*
X11500Y826960D02*
X11500Y826960D01*
X2703500Y826960D02*
X2703500Y826960D01*
X11500Y825960D02*
X11500Y825960D01*
X2703500Y825960D02*
X2703500Y825960D01*
X11500Y824960D02*
X11500Y824960D01*
X2703500Y824960D02*
X2703500Y824960D01*
X11500Y823960D02*
X11500Y823960D01*
X2703500Y823960D02*
X2703500Y823960D01*
X11500Y822960D02*
X11500Y822960D01*
X2703500Y822960D02*
X2703500Y822960D01*
X11500Y821960D02*
X11500Y821960D01*
X2703500Y821960D02*
X2703500Y821960D01*
X11500Y820960D02*
X11500Y820960D01*
X2703500Y820960D02*
X2703500Y820960D01*
X11500Y819960D02*
X11500Y819960D01*
X2703500Y819960D02*
X2703500Y819960D01*
X11500Y818960D02*
X11500Y818960D01*
X2703500Y818960D02*
X2703500Y818960D01*
X11500Y817960D02*
X11500Y817960D01*
X2703500Y817960D02*
X2703500Y817960D01*
X11500Y816960D02*
X11500Y816960D01*
X2703500Y816960D02*
X2703500Y816960D01*
X11500Y815960D02*
X11500Y815960D01*
X2703500Y815960D02*
X2703500Y815960D01*
X11500Y814960D02*
X11500Y814960D01*
X2703500Y814960D02*
X2703500Y814960D01*
X11500Y813960D02*
X11500Y813960D01*
X2703500Y813960D02*
X2703500Y813960D01*
X11500Y812960D02*
X11500Y812960D01*
X2703500Y812960D02*
X2703500Y812960D01*
X11500Y811960D02*
X11500Y811960D01*
X2703500Y811960D02*
X2703500Y811960D01*
X11500Y810960D02*
X11500Y810960D01*
X2703500Y810960D02*
X2703500Y810960D01*
X11500Y809960D02*
X11500Y809960D01*
X2703500Y809960D02*
X2703500Y809960D01*
X11500Y808960D02*
X11500Y808960D01*
X2703500Y808960D02*
X2703500Y808960D01*
X11500Y807960D02*
X11500Y807960D01*
X2703500Y807960D02*
X2703500Y807960D01*
X11500Y806960D02*
X11500Y806960D01*
X2703500Y806960D02*
X2703500Y806960D01*
X11500Y805960D02*
X11500Y805960D01*
X2703500Y805960D02*
X2703500Y805960D01*
X11500Y804960D02*
X11500Y804960D01*
X2703500Y804960D02*
X2703500Y804960D01*
X11500Y803960D02*
X11500Y803960D01*
X2703500Y803960D02*
X2703500Y803960D01*
X11500Y802960D02*
X11500Y802960D01*
X2703500Y802960D02*
X2703500Y802960D01*
X11500Y801960D02*
X11500Y801960D01*
X2703500Y801960D02*
X2703500Y801960D01*
X11500Y800960D02*
X11500Y800960D01*
X2703500Y800960D02*
X2703500Y800960D01*
X11500Y799960D02*
X11500Y799960D01*
X2703500Y799960D02*
X2703500Y799960D01*
X11500Y798960D02*
X11500Y798960D01*
X2703500Y798960D02*
X2703500Y798960D01*
X11500Y797960D02*
X11500Y797960D01*
X2703500Y797960D02*
X2703500Y797960D01*
X11500Y796960D02*
X11500Y796960D01*
X2703500Y796960D02*
X2703500Y796960D01*
X11500Y795960D02*
X11500Y795960D01*
X2703500Y795960D02*
X2703500Y795960D01*
X11500Y794960D02*
X11500Y794960D01*
X2703500Y794960D02*
X2703500Y794960D01*
X11500Y793960D02*
X11500Y793960D01*
X2703500Y793960D02*
X2703500Y793960D01*
X11500Y792960D02*
X11500Y792960D01*
X2703500Y792960D02*
X2703500Y792960D01*
X11500Y791960D02*
X11500Y791960D01*
X2703500Y791960D02*
X2703500Y791960D01*
X11500Y790960D02*
X11500Y790960D01*
X2703500Y790960D02*
X2703500Y790960D01*
X11500Y789960D02*
X11500Y789960D01*
X2703500Y789960D02*
X2703500Y789960D01*
X11500Y788960D02*
X11500Y788960D01*
X2703500Y788960D02*
X2703500Y788960D01*
X11500Y787960D02*
X11500Y787960D01*
X2703500Y787960D02*
X2703500Y787960D01*
X11500Y786960D02*
X11500Y786960D01*
X2703500Y786960D02*
X2703500Y786960D01*
X11500Y785960D02*
X11500Y785960D01*
X2703500Y785960D02*
X2703500Y785960D01*
X11500Y784960D02*
X11500Y784960D01*
X2703500Y784960D02*
X2703500Y784960D01*
X11500Y783960D02*
X11500Y783960D01*
X2703500Y783960D02*
X2703500Y783960D01*
X11500Y782960D02*
X11500Y782960D01*
X2703500Y782960D02*
X2703500Y782960D01*
X11500Y781960D02*
X11500Y781960D01*
X2703500Y781960D02*
X2703500Y781960D01*
X11500Y780960D02*
X11500Y780960D01*
X2703500Y780960D02*
X2703500Y780960D01*
X11500Y779960D02*
X11500Y779960D01*
X2703500Y779960D02*
X2703500Y779960D01*
X11500Y778960D02*
X11500Y778960D01*
X2703500Y778960D02*
X2703500Y778960D01*
X11500Y777960D02*
X11500Y777960D01*
X2703500Y777960D02*
X2703500Y777960D01*
X11500Y776960D02*
X11500Y776960D01*
X2703500Y776960D02*
X2703500Y776960D01*
X11500Y775960D02*
X11500Y775960D01*
X2703500Y775960D02*
X2703500Y775960D01*
X11500Y774960D02*
X11500Y774960D01*
X2703500Y774960D02*
X2703500Y774960D01*
X11500Y773960D02*
X11500Y773960D01*
X2703500Y773960D02*
X2703500Y773960D01*
X11500Y772960D02*
X11500Y772960D01*
X2703500Y772960D02*
X2703500Y772960D01*
X11500Y771960D02*
X11500Y771960D01*
X2703500Y771960D02*
X2703500Y771960D01*
X11500Y770960D02*
X11500Y770960D01*
X2703500Y770960D02*
X2703500Y770960D01*
X11500Y769960D02*
X11500Y769960D01*
X2703500Y769960D02*
X2703500Y769960D01*
X11500Y768960D02*
X11500Y768960D01*
X2703500Y768960D02*
X2703500Y768960D01*
X11500Y767960D02*
X11500Y767960D01*
X2703500Y767960D02*
X2703500Y767960D01*
X11500Y766960D02*
X11500Y766960D01*
X2703500Y766960D02*
X2703500Y766960D01*
X11500Y765960D02*
X11500Y765960D01*
X2703500Y765960D02*
X2703500Y765960D01*
X11500Y764960D02*
X11500Y764960D01*
X2703500Y764960D02*
X2703500Y764960D01*
X11500Y763960D02*
X11500Y763960D01*
X2703500Y763960D02*
X2703500Y763960D01*
X11500Y762960D02*
X11500Y762960D01*
X2703500Y762960D02*
X2703500Y762960D01*
X11500Y761960D02*
X11500Y761960D01*
X2703500Y761960D02*
X2703500Y761960D01*
X11500Y760960D02*
X11500Y760960D01*
X2703500Y760960D02*
X2703500Y760960D01*
X11500Y759960D02*
X11500Y759960D01*
X2703500Y759960D02*
X2703500Y759960D01*
X11500Y758960D02*
X11500Y758960D01*
X2703500Y758960D02*
X2703500Y758960D01*
X11500Y757960D02*
X11500Y757960D01*
X2703500Y757960D02*
X2703500Y757960D01*
X11500Y756960D02*
X11500Y756960D01*
X2703500Y756960D02*
X2703500Y756960D01*
X11500Y755960D02*
X11500Y755960D01*
X2703500Y755960D02*
X2703500Y755960D01*
X11500Y754960D02*
X11500Y754960D01*
X2703500Y754960D02*
X2703500Y754960D01*
X11500Y753960D02*
X11500Y753960D01*
X2703500Y753960D02*
X2703500Y753960D01*
X11500Y752960D02*
X11500Y752960D01*
X2703500Y752960D02*
X2703500Y752960D01*
X11500Y751960D02*
X11500Y751960D01*
X2703500Y751960D02*
X2703500Y751960D01*
X11500Y750960D02*
X11500Y750960D01*
X2703500Y750960D02*
X2703500Y750960D01*
X11500Y749960D02*
X11500Y749960D01*
X2703500Y749960D02*
X2703500Y749960D01*
X11500Y748960D02*
X11500Y748960D01*
X2703500Y748960D02*
X2703500Y748960D01*
X11500Y747960D02*
X11500Y747960D01*
X2703500Y747960D02*
X2703500Y747960D01*
X11500Y746960D02*
X11500Y746960D01*
X2703500Y746960D02*
X2703500Y746960D01*
X11500Y745960D02*
X11500Y745960D01*
X2703500Y745960D02*
X2703500Y745960D01*
X11500Y744960D02*
X11500Y744960D01*
X2703500Y744960D02*
X2703500Y744960D01*
X11500Y743960D02*
X11500Y743960D01*
X2703500Y743960D02*
X2703500Y743960D01*
X11500Y742960D02*
X11500Y742960D01*
X2703500Y742960D02*
X2703500Y742960D01*
X11500Y741960D02*
X11500Y741960D01*
X2703500Y741960D02*
X2703500Y741960D01*
X11500Y740960D02*
X11500Y740960D01*
X2703500Y740960D02*
X2703500Y740960D01*
X11500Y739960D02*
X11500Y739960D01*
X2703500Y739960D02*
X2703500Y739960D01*
X11500Y738960D02*
X11500Y738960D01*
X2703500Y738960D02*
X2703500Y738960D01*
X11500Y737960D02*
X11500Y737960D01*
X2703500Y737960D02*
X2703500Y737960D01*
X11500Y736960D02*
X11500Y736960D01*
X2703500Y736960D02*
X2703500Y736960D01*
X11500Y735960D02*
X11500Y735960D01*
X2703500Y735960D02*
X2703500Y735960D01*
X11500Y734960D02*
X11500Y734960D01*
X2703500Y734960D02*
X2703500Y734960D01*
X11500Y733960D02*
X11500Y733960D01*
X2703500Y733960D02*
X2703500Y733960D01*
X11500Y732960D02*
X11500Y732960D01*
X2703500Y732960D02*
X2703500Y732960D01*
X11500Y731960D02*
X11500Y731960D01*
X2703500Y731960D02*
X2703500Y731960D01*
X11500Y730960D02*
X11500Y730960D01*
X2703500Y730960D02*
X2703500Y730960D01*
X11500Y729960D02*
X11500Y729960D01*
X2703500Y729960D02*
X2703500Y729960D01*
X11500Y728960D02*
X11500Y728960D01*
X2703500Y728960D02*
X2703500Y728960D01*
X11500Y727960D02*
X11500Y727960D01*
X2703500Y727960D02*
X2703500Y727960D01*
X11500Y726960D02*
X11500Y726960D01*
X2703500Y726960D02*
X2703500Y726960D01*
X11500Y725960D02*
X11500Y725960D01*
X2703500Y725960D02*
X2703500Y725960D01*
X11500Y724960D02*
X11500Y724960D01*
X2703500Y724960D02*
X2703500Y724960D01*
X11500Y723960D02*
X11500Y723960D01*
X2703500Y723960D02*
X2703500Y723960D01*
X11500Y722960D02*
X11500Y722960D01*
X2703500Y722960D02*
X2703500Y722960D01*
X11500Y721960D02*
X11500Y721960D01*
X2703500Y721960D02*
X2703500Y721960D01*
X11500Y720960D02*
X11500Y720960D01*
X2703500Y720960D02*
X2703500Y720960D01*
X11500Y719960D02*
X11500Y719960D01*
X2703500Y719960D02*
X2703500Y719960D01*
X11500Y718960D02*
X11500Y718960D01*
X2703500Y718960D02*
X2703500Y718960D01*
X11500Y717960D02*
X11500Y717960D01*
X2703500Y717960D02*
X2703500Y717960D01*
X11500Y716960D02*
X11500Y716960D01*
X2703500Y716960D02*
X2703500Y716960D01*
X11500Y715960D02*
X11500Y715960D01*
X2703500Y715960D02*
X2703500Y715960D01*
X11500Y714960D02*
X11500Y714960D01*
X2703500Y714960D02*
X2703500Y714960D01*
X11500Y713960D02*
X11500Y713960D01*
X2703500Y713960D02*
X2703500Y713960D01*
X11500Y712960D02*
X11500Y712960D01*
X2703500Y712960D02*
X2703500Y712960D01*
X11500Y711960D02*
X11500Y711960D01*
X2703500Y711960D02*
X2703500Y711960D01*
X11500Y710960D02*
X11500Y710960D01*
X2703500Y710960D02*
X2703500Y710960D01*
X11500Y709960D02*
X11500Y709960D01*
X2703500Y709960D02*
X2703500Y709960D01*
X11500Y708960D02*
X11500Y708960D01*
X2703500Y708960D02*
X2703500Y708960D01*
X11500Y707960D02*
X11500Y707960D01*
X2703500Y707960D02*
X2703500Y707960D01*
X11500Y706960D02*
X11500Y706960D01*
X2703500Y706960D02*
X2703500Y706960D01*
X11500Y705960D02*
X11500Y705960D01*
X2703500Y705960D02*
X2703500Y705960D01*
X11500Y704960D02*
X11500Y704960D01*
X2703500Y704960D02*
X2703500Y704960D01*
X11500Y703960D02*
X11500Y703960D01*
X2703500Y703960D02*
X2703500Y703960D01*
X11500Y702960D02*
X11500Y702960D01*
X2703500Y702960D02*
X2703500Y702960D01*
X11500Y701960D02*
X11500Y701960D01*
X2703500Y701960D02*
X2703500Y701960D01*
X11500Y700960D02*
X11500Y700960D01*
X2703500Y700960D02*
X2703500Y700960D01*
X11500Y699960D02*
X11500Y699960D01*
X2703500Y699960D02*
X2703500Y699960D01*
X11500Y698960D02*
X11500Y698960D01*
X2703500Y698960D02*
X2703500Y698960D01*
X11500Y697960D02*
X11500Y697960D01*
X2703500Y697960D02*
X2703500Y697960D01*
X11500Y696960D02*
X11500Y696960D01*
X2703500Y696960D02*
X2703500Y696960D01*
X11500Y695960D02*
X11500Y695960D01*
X2703500Y695960D02*
X2703500Y695960D01*
X11500Y694960D02*
X11500Y694960D01*
X2703500Y694960D02*
X2703500Y694960D01*
X11500Y693960D02*
X11500Y693960D01*
X2703500Y693960D02*
X2703500Y693960D01*
X11500Y692960D02*
X11500Y692960D01*
X2703500Y692960D02*
X2703500Y692960D01*
X11500Y691960D02*
X11500Y691960D01*
X2703500Y691960D02*
X2703500Y691960D01*
X11500Y690960D02*
X11500Y690960D01*
X2703500Y690960D02*
X2703500Y690960D01*
X11500Y689960D02*
X11500Y689960D01*
X2703500Y689960D02*
X2703500Y689960D01*
X11500Y688960D02*
X11500Y688960D01*
X2703500Y688960D02*
X2703500Y688960D01*
X11500Y687960D02*
X11500Y687960D01*
X2703500Y687960D02*
X2703500Y687960D01*
X11500Y686960D02*
X11500Y686960D01*
X2703500Y686960D02*
X2703500Y686960D01*
X11500Y685960D02*
X11500Y685960D01*
X2703500Y685960D02*
X2703500Y685960D01*
X11500Y684960D02*
X11500Y684960D01*
X2703500Y684960D02*
X2703500Y684960D01*
X11500Y683960D02*
X11500Y683960D01*
X2703500Y683960D02*
X2703500Y683960D01*
X11500Y682960D02*
X11500Y682960D01*
X2703500Y682960D02*
X2703500Y682960D01*
X11500Y681960D02*
X11500Y681960D01*
X2703500Y681960D02*
X2703500Y681960D01*
X11500Y680960D02*
X11500Y680960D01*
X2703500Y680960D02*
X2703500Y680960D01*
X11500Y679960D02*
X11500Y679960D01*
X2703500Y679960D02*
X2703500Y679960D01*
X11500Y678960D02*
X11500Y678960D01*
X2703500Y678960D02*
X2703500Y678960D01*
X11500Y677960D02*
X11500Y677960D01*
X2703500Y677960D02*
X2703500Y677960D01*
X11500Y676960D02*
X11500Y676960D01*
X2703500Y676960D02*
X2703500Y676960D01*
X11500Y675960D02*
X11500Y675960D01*
X2703500Y675960D02*
X2703500Y675960D01*
X11500Y674960D02*
X11500Y674960D01*
X2703500Y674960D02*
X2703500Y674960D01*
X11500Y673960D02*
X11500Y673960D01*
X2703500Y673960D02*
X2703500Y673960D01*
X11500Y672960D02*
X11500Y672960D01*
X2703500Y672960D02*
X2703500Y672960D01*
X11500Y671960D02*
X11500Y671960D01*
X2703500Y671960D02*
X2703500Y671960D01*
X11500Y670960D02*
X11500Y670960D01*
X2703500Y670960D02*
X2703500Y670960D01*
X11500Y669960D02*
X11500Y669960D01*
X2703500Y669960D02*
X2703500Y669960D01*
X11500Y668960D02*
X11500Y668960D01*
X2703500Y668960D02*
X2703500Y668960D01*
X11500Y667960D02*
X11500Y667960D01*
X2703500Y667960D02*
X2703500Y667960D01*
X11500Y666960D02*
X11500Y666960D01*
X2703500Y666960D02*
X2703500Y666960D01*
X11500Y665960D02*
X11500Y665960D01*
X2703500Y665960D02*
X2703500Y665960D01*
X11500Y664960D02*
X11500Y664960D01*
X2703500Y664960D02*
X2703500Y664960D01*
X11500Y663960D02*
X11500Y663960D01*
X2703500Y663960D02*
X2703500Y663960D01*
X11500Y662960D02*
X11500Y662960D01*
X2703500Y662960D02*
X2703500Y662960D01*
X11500Y661960D02*
X11500Y661960D01*
X2703500Y661960D02*
X2703500Y661960D01*
X11500Y660960D02*
X11500Y660960D01*
X2703500Y660960D02*
X2703500Y660960D01*
X11500Y659960D02*
X11500Y659960D01*
X2703500Y659960D02*
X2703500Y659960D01*
X11500Y658960D02*
X11500Y658960D01*
X2703500Y658960D02*
X2703500Y658960D01*
X11500Y657960D02*
X11500Y657960D01*
X2703500Y657960D02*
X2703500Y657960D01*
X11500Y656960D02*
X11500Y656960D01*
X2703500Y656960D02*
X2703500Y656960D01*
X11500Y655960D02*
X11500Y655960D01*
X2703500Y655960D02*
X2703500Y655960D01*
X11500Y654960D02*
X11500Y654960D01*
X2703500Y654960D02*
X2703500Y654960D01*
X11500Y653960D02*
X11500Y653960D01*
X2703500Y653960D02*
X2703500Y653960D01*
X11500Y652960D02*
X11500Y652960D01*
X2703500Y652960D02*
X2703500Y652960D01*
X11500Y651960D02*
X11500Y651960D01*
X2703500Y651960D02*
X2703500Y651960D01*
X11500Y650960D02*
X11500Y650960D01*
X2703500Y650960D02*
X2703500Y650960D01*
X11500Y649960D02*
X11500Y649960D01*
X2703500Y649960D02*
X2703500Y649960D01*
X11500Y648960D02*
X11500Y648960D01*
X2703500Y648960D02*
X2703500Y648960D01*
X11500Y647960D02*
X11500Y647960D01*
X2703500Y647960D02*
X2703500Y647960D01*
X11500Y646960D02*
X11500Y646960D01*
X2703500Y646960D02*
X2703500Y646960D01*
X11500Y645960D02*
X11500Y645960D01*
X2703500Y645960D02*
X2703500Y645960D01*
X11500Y644960D02*
X11500Y644960D01*
X2703500Y644960D02*
X2703500Y644960D01*
X11500Y643960D02*
X11500Y643960D01*
X2703500Y643960D02*
X2703500Y643960D01*
X11500Y642960D02*
X11500Y642960D01*
X2703500Y642960D02*
X2703500Y642960D01*
X11500Y641960D02*
X11500Y641960D01*
X2703500Y641960D02*
X2703500Y641960D01*
X11500Y640960D02*
X11500Y640960D01*
X2703500Y640960D02*
X2703500Y640960D01*
X11500Y639960D02*
X11500Y639960D01*
X2703500Y639960D02*
X2703500Y639960D01*
X11500Y638960D02*
X11500Y638960D01*
X2703500Y638960D02*
X2703500Y638960D01*
X11500Y637960D02*
X11500Y637960D01*
X2703500Y637960D02*
X2703500Y637960D01*
X11500Y636960D02*
X11500Y636960D01*
X2703500Y636960D02*
X2703500Y636960D01*
X11500Y635960D02*
X11500Y635960D01*
X2703500Y635960D02*
X2703500Y635960D01*
X11500Y634960D02*
X11500Y634960D01*
X2703500Y634960D02*
X2703500Y634960D01*
X11500Y633960D02*
X11500Y633960D01*
X2703500Y633960D02*
X2703500Y633960D01*
X11500Y632960D02*
X11500Y632960D01*
X2703500Y632960D02*
X2703500Y632960D01*
X11500Y631960D02*
X11500Y631960D01*
X2703500Y631960D02*
X2703500Y631960D01*
X11500Y630960D02*
X11500Y630960D01*
X2703500Y630960D02*
X2703500Y630960D01*
X11500Y629960D02*
X11500Y629960D01*
X2703500Y629960D02*
X2703500Y629960D01*
X11500Y628960D02*
X11500Y628960D01*
X2703500Y628960D02*
X2703500Y628960D01*
X11500Y627960D02*
X11500Y627960D01*
X2703500Y627960D02*
X2703500Y627960D01*
X11500Y626960D02*
X11500Y626960D01*
X2703500Y626960D02*
X2703500Y626960D01*
X11500Y625960D02*
X11500Y625960D01*
X2703500Y625960D02*
X2703500Y625960D01*
X11500Y624960D02*
X11500Y624960D01*
X2703500Y624960D02*
X2703500Y624960D01*
X11500Y623960D02*
X11500Y623960D01*
X2703500Y623960D02*
X2703500Y623960D01*
X11500Y622960D02*
X11500Y622960D01*
X2703500Y622960D02*
X2703500Y622960D01*
X11500Y621960D02*
X11500Y621960D01*
X2703500Y621960D02*
X2703500Y621960D01*
X11500Y620960D02*
X11500Y620960D01*
X2703500Y620960D02*
X2703500Y620960D01*
X11500Y619960D02*
X11500Y619960D01*
X2703500Y619960D02*
X2703500Y619960D01*
X11500Y618960D02*
X11500Y618960D01*
X2703500Y618960D02*
X2703500Y618960D01*
X11500Y617960D02*
X11500Y617960D01*
X2703500Y617960D02*
X2703500Y617960D01*
X11500Y616960D02*
X11500Y616960D01*
X2703500Y616960D02*
X2703500Y616960D01*
X11500Y615960D02*
X11500Y615960D01*
X2703500Y615960D02*
X2703500Y615960D01*
X11500Y614960D02*
X11500Y614960D01*
X2703500Y614960D02*
X2703500Y614960D01*
X11500Y613960D02*
X11500Y613960D01*
X2703500Y613960D02*
X2703500Y613960D01*
X11500Y612960D02*
X11500Y612960D01*
X2703500Y612960D02*
X2703500Y612960D01*
X11500Y611960D02*
X11500Y611960D01*
X2703500Y611960D02*
X2703500Y611960D01*
X11500Y610960D02*
X11500Y610960D01*
X2703500Y610960D02*
X2703500Y610960D01*
X11500Y609960D02*
X11500Y609960D01*
X2703500Y609960D02*
X2703500Y609960D01*
X11500Y608960D02*
X11500Y608960D01*
X2703500Y608960D02*
X2703500Y608960D01*
X11500Y607960D02*
X11500Y607960D01*
X2703500Y607960D02*
X2703500Y607960D01*
X11500Y606960D02*
X11500Y606960D01*
X2703500Y606960D02*
X2703500Y606960D01*
X11500Y605960D02*
X11500Y605960D01*
X2703500Y605960D02*
X2703500Y605960D01*
X11500Y604960D02*
X11500Y604960D01*
X2703500Y604960D02*
X2703500Y604960D01*
X11500Y603960D02*
X11500Y603960D01*
X2703500Y603960D02*
X2703500Y603960D01*
X11500Y602960D02*
X11500Y602960D01*
X2703500Y602960D02*
X2703500Y602960D01*
X11500Y601960D02*
X11500Y601960D01*
X2703500Y601960D02*
X2703500Y601960D01*
X11500Y600960D02*
X11500Y600960D01*
X2703500Y600960D02*
X2703500Y600960D01*
X11500Y599960D02*
X11500Y599960D01*
X2703500Y599960D02*
X2703500Y599960D01*
X11500Y598960D02*
X11500Y598960D01*
X2703500Y598960D02*
X2703500Y598960D01*
X11500Y597960D02*
X11500Y597960D01*
X2703500Y597960D02*
X2703500Y597960D01*
X11500Y596960D02*
X11500Y596960D01*
X2703500Y596960D02*
X2703500Y596960D01*
X11500Y595960D02*
X11500Y595960D01*
X2703500Y595960D02*
X2703500Y595960D01*
X11500Y594960D02*
X11500Y594960D01*
X2703500Y594960D02*
X2703500Y594960D01*
X11500Y593960D02*
X11500Y593960D01*
X2703500Y593960D02*
X2703500Y593960D01*
X11500Y592960D02*
X11500Y592960D01*
X2703500Y592960D02*
X2703500Y592960D01*
X11500Y591960D02*
X11500Y591960D01*
X2703500Y591960D02*
X2703500Y591960D01*
X11500Y590960D02*
X11500Y590960D01*
X2703500Y590960D02*
X2703500Y590960D01*
X11500Y589960D02*
X11500Y589960D01*
X2703500Y589960D02*
X2703500Y589960D01*
X11500Y588960D02*
X11500Y588960D01*
X2703500Y588960D02*
X2703500Y588960D01*
X11500Y587960D02*
X11500Y587960D01*
X2703500Y587960D02*
X2703500Y587960D01*
X11500Y586960D02*
X11500Y586960D01*
X2703500Y586960D02*
X2703500Y586960D01*
X11500Y585960D02*
X11500Y585960D01*
X2703500Y585960D02*
X2703500Y585960D01*
X11500Y584960D02*
X11500Y584960D01*
X2703500Y584960D02*
X2703500Y584960D01*
X11500Y583960D02*
X11500Y583960D01*
X2703500Y583960D02*
X2703500Y583960D01*
X11500Y582960D02*
X11500Y582960D01*
X2703500Y582960D02*
X2703500Y582960D01*
X11500Y581960D02*
X11500Y581960D01*
X2703500Y581960D02*
X2703500Y581960D01*
X11500Y580960D02*
X11500Y580960D01*
X2703500Y580960D02*
X2703500Y580960D01*
X11500Y579960D02*
X11500Y579960D01*
X2703500Y579960D02*
X2703500Y579960D01*
X11500Y578960D02*
X11500Y578960D01*
X2703500Y578960D02*
X2703500Y578960D01*
X11500Y577960D02*
X11500Y577960D01*
X2703500Y577960D02*
X2703500Y577960D01*
X11500Y576960D02*
X11500Y576960D01*
X2703500Y576960D02*
X2703500Y576960D01*
X11500Y575960D02*
X11500Y575960D01*
X2703500Y575960D02*
X2703500Y575960D01*
X11500Y574960D02*
X11500Y574960D01*
X2703500Y574960D02*
X2703500Y574960D01*
X11500Y573960D02*
X11500Y573960D01*
X2703500Y573960D02*
X2703500Y573960D01*
X11500Y572960D02*
X11500Y572960D01*
X2703500Y572960D02*
X2703500Y572960D01*
X11500Y571960D02*
X11500Y571960D01*
X2703500Y571960D02*
X2703500Y571960D01*
X11500Y570960D02*
X11500Y570960D01*
X2703500Y570960D02*
X2703500Y570960D01*
X11500Y569960D02*
X11500Y569960D01*
X2703500Y569960D02*
X2703500Y569960D01*
X11500Y568960D02*
X11500Y568960D01*
X2703500Y568960D02*
X2703500Y568960D01*
X11500Y567960D02*
X11500Y567960D01*
X2703500Y567960D02*
X2703500Y567960D01*
X11500Y566960D02*
X11500Y566960D01*
X2703500Y566960D02*
X2703500Y566960D01*
X11500Y565960D02*
X11500Y565960D01*
X2703500Y565960D02*
X2703500Y565960D01*
X11500Y564960D02*
X11500Y564960D01*
X2703500Y564960D02*
X2703500Y564960D01*
X11500Y563960D02*
X11500Y563960D01*
X2703500Y563960D02*
X2703500Y563960D01*
X11500Y562960D02*
X11500Y562960D01*
X2703500Y562960D02*
X2703500Y562960D01*
X11500Y561960D02*
X11500Y561960D01*
X2703500Y561960D02*
X2703500Y561960D01*
X11500Y560960D02*
X11500Y560960D01*
X2703500Y560960D02*
X2703500Y560960D01*
X11500Y559960D02*
X11500Y559960D01*
X2703500Y559960D02*
X2703500Y559960D01*
X11500Y558960D02*
X11500Y558960D01*
X2703500Y558960D02*
X2703500Y558960D01*
X11500Y557960D02*
X11500Y557960D01*
X2703500Y557960D02*
X2703500Y557960D01*
X11500Y556960D02*
X11500Y556960D01*
X2703500Y556960D02*
X2703500Y556960D01*
X11500Y555960D02*
X11500Y555960D01*
X2703500Y555960D02*
X2703500Y555960D01*
X11500Y554960D02*
X11500Y554960D01*
X2703500Y554960D02*
X2703500Y554960D01*
X11500Y553960D02*
X11500Y553960D01*
X2703500Y553960D02*
X2703500Y553960D01*
X11500Y552960D02*
X11500Y552960D01*
X2703500Y552960D02*
X2703500Y552960D01*
X11500Y551960D02*
X11500Y551960D01*
X2703500Y551960D02*
X2703500Y551960D01*
X11500Y550960D02*
X11500Y550960D01*
X2703500Y550960D02*
X2703500Y550960D01*
X11500Y549960D02*
X11500Y549960D01*
X2703500Y549960D02*
X2703500Y549960D01*
X11500Y548960D02*
X11500Y548960D01*
X2703500Y548960D02*
X2703500Y548960D01*
X11500Y547960D02*
X11500Y547960D01*
X2703500Y547960D02*
X2703500Y547960D01*
X11500Y546960D02*
X11500Y546960D01*
X2703500Y546960D02*
X2703500Y546960D01*
X11500Y545960D02*
X11500Y545960D01*
X2703500Y545960D02*
X2703500Y545960D01*
X11500Y544960D02*
X11500Y544960D01*
X2703500Y544960D02*
X2703500Y544960D01*
X11500Y543960D02*
X11500Y543960D01*
X2703500Y543960D02*
X2703500Y543960D01*
X11500Y542960D02*
X11500Y542960D01*
X2703500Y542960D02*
X2703500Y542960D01*
X11500Y541960D02*
X11500Y541960D01*
X2703500Y541960D02*
X2703500Y541960D01*
X11500Y540960D02*
X11500Y540960D01*
X2703500Y540960D02*
X2703500Y540960D01*
X11500Y539960D02*
X11500Y539960D01*
X2703500Y539960D02*
X2703500Y539960D01*
X11500Y538960D02*
X11500Y538960D01*
X2703500Y538960D02*
X2703500Y538960D01*
X11500Y537960D02*
X11500Y537960D01*
X2703500Y537960D02*
X2703500Y537960D01*
X11500Y536960D02*
X11500Y536960D01*
X2703500Y536960D02*
X2703500Y536960D01*
X11500Y535960D02*
X11500Y535960D01*
X2703500Y535960D02*
X2703500Y535960D01*
X11500Y534960D02*
X11500Y534960D01*
X2703500Y534960D02*
X2703500Y534960D01*
X11500Y533960D02*
X11500Y533960D01*
X2703500Y533960D02*
X2703500Y533960D01*
X11500Y532960D02*
X11500Y532960D01*
X2703500Y532960D02*
X2703500Y532960D01*
X11500Y531960D02*
X11500Y531960D01*
X2703500Y531960D02*
X2703500Y531960D01*
X11500Y530960D02*
X11500Y530960D01*
X2703500Y530960D02*
X2703500Y530960D01*
X11500Y529960D02*
X11500Y529960D01*
X2703500Y529960D02*
X2703500Y529960D01*
X11500Y528960D02*
X11500Y528960D01*
X2703500Y528960D02*
X2703500Y528960D01*
X11500Y527960D02*
X11500Y527960D01*
X2703500Y527960D02*
X2703500Y527960D01*
X11500Y526960D02*
X11500Y526960D01*
X2703500Y526960D02*
X2703500Y526960D01*
X11500Y525960D02*
X11500Y525960D01*
X2703500Y525960D02*
X2703500Y525960D01*
X11500Y524960D02*
X11500Y524960D01*
X2703500Y524960D02*
X2703500Y524960D01*
X11500Y523960D02*
X11500Y523960D01*
X2703500Y523960D02*
X2703500Y523960D01*
X11500Y522960D02*
X11500Y522960D01*
X2703500Y522960D02*
X2703500Y522960D01*
X11500Y521960D02*
X11500Y521960D01*
X2703500Y521960D02*
X2703500Y521960D01*
X11500Y520960D02*
X11500Y520960D01*
X2703500Y520960D02*
X2703500Y520960D01*
X11500Y519960D02*
X11500Y519960D01*
X2703500Y519960D02*
X2703500Y519960D01*
X11500Y518960D02*
X11500Y518960D01*
X2703500Y518960D02*
X2703500Y518960D01*
X11500Y517960D02*
X11500Y517960D01*
X2703500Y517960D02*
X2703500Y517960D01*
X11500Y516960D02*
X11500Y516960D01*
X2703500Y516960D02*
X2703500Y516960D01*
X11500Y515960D02*
X11500Y515960D01*
X2703500Y515960D02*
X2703500Y515960D01*
X11500Y514960D02*
X11500Y514960D01*
X2703500Y514960D02*
X2703500Y514960D01*
X11500Y513960D02*
X11500Y513960D01*
X2703500Y513960D02*
X2703500Y513960D01*
X11500Y512960D02*
X11500Y512960D01*
X2703500Y512960D02*
X2703500Y512960D01*
X11500Y511960D02*
X11500Y511960D01*
X2703500Y511960D02*
X2703500Y511960D01*
X11500Y510960D02*
X11500Y510960D01*
X2703500Y510960D02*
X2703500Y510960D01*
X11500Y509960D02*
X11500Y509960D01*
X2703500Y509960D02*
X2703500Y509960D01*
X11500Y508960D02*
X11500Y508960D01*
X2703500Y508960D02*
X2703500Y508960D01*
X11500Y507960D02*
X11500Y507960D01*
X2703500Y507960D02*
X2703500Y507960D01*
X11500Y506960D02*
X11500Y506960D01*
X2703500Y506960D02*
X2703500Y506960D01*
X11500Y505960D02*
X11500Y505960D01*
X2703500Y505960D02*
X2703500Y505960D01*
X11500Y504960D02*
X11500Y504960D01*
X2703500Y504960D02*
X2703500Y504960D01*
X11500Y503960D02*
X11500Y503960D01*
X2703500Y503960D02*
X2703500Y503960D01*
X11500Y502960D02*
X11500Y502960D01*
X2703500Y502960D02*
X2703500Y502960D01*
X11500Y501960D02*
X11500Y501960D01*
X2703500Y501960D02*
X2703500Y501960D01*
X11500Y500960D02*
X11500Y500960D01*
X2703500Y500960D02*
X2703500Y500960D01*
X11500Y499960D02*
X11500Y499960D01*
X2703500Y499960D02*
X2703500Y499960D01*
X11500Y498960D02*
X11500Y498960D01*
X2703500Y498960D02*
X2703500Y498960D01*
X11500Y497960D02*
X11500Y497960D01*
X2703500Y497960D02*
X2703500Y497960D01*
X11500Y496960D02*
X11500Y496960D01*
X2703500Y496960D02*
X2703500Y496960D01*
X11500Y495960D02*
X11500Y495960D01*
X2703500Y495960D02*
X2703500Y495960D01*
X11500Y494960D02*
X11500Y494960D01*
X2703500Y494960D02*
X2703500Y494960D01*
X11500Y493960D02*
X11500Y493960D01*
X2703500Y493960D02*
X2703500Y493960D01*
X11500Y492960D02*
X11500Y492960D01*
X2703500Y492960D02*
X2703500Y492960D01*
X11500Y491960D02*
X11500Y491960D01*
X2703500Y491960D02*
X2703500Y491960D01*
X11500Y490960D02*
X11500Y490960D01*
X2703500Y490960D02*
X2703500Y490960D01*
X11500Y489960D02*
X11500Y489960D01*
X2703500Y489960D02*
X2703500Y489960D01*
X11500Y488960D02*
X11500Y488960D01*
X2703500Y488960D02*
X2703500Y488960D01*
X11500Y487960D02*
X11500Y487960D01*
X2703500Y487960D02*
X2703500Y487960D01*
X11500Y486960D02*
X11500Y486960D01*
X2703500Y486960D02*
X2703500Y486960D01*
X11500Y485960D02*
X11500Y485960D01*
X2703500Y485960D02*
X2703500Y485960D01*
X11500Y484960D02*
X11500Y484960D01*
X2703500Y484960D02*
X2703500Y484960D01*
X11500Y483960D02*
X11500Y483960D01*
X2703500Y483960D02*
X2703500Y483960D01*
X11500Y482960D02*
X11500Y482960D01*
X2703500Y482960D02*
X2703500Y482960D01*
X11500Y481960D02*
X11500Y481960D01*
X2703500Y481960D02*
X2703500Y481960D01*
X11500Y480960D02*
X11500Y480960D01*
X2703500Y480960D02*
X2703500Y480960D01*
X11500Y479960D02*
X11500Y479960D01*
X2703500Y479960D02*
X2703500Y479960D01*
X11500Y478960D02*
X11500Y478960D01*
X2703500Y478960D02*
X2703500Y478960D01*
X11500Y477960D02*
X11500Y477960D01*
X2703500Y477960D02*
X2703500Y477960D01*
X11500Y476960D02*
X11500Y476960D01*
X2703500Y476960D02*
X2703500Y476960D01*
X11500Y475960D02*
X11500Y475960D01*
X2703500Y475960D02*
X2703500Y475960D01*
X11500Y474960D02*
X11500Y474960D01*
X2703500Y474960D02*
X2703500Y474960D01*
X11500Y473960D02*
X11500Y473960D01*
X2703500Y473960D02*
X2703500Y473960D01*
X11500Y472960D02*
X11500Y472960D01*
X2703500Y472960D02*
X2703500Y472960D01*
X11500Y471960D02*
X11500Y471960D01*
X2703500Y471960D02*
X2703500Y471960D01*
X11500Y470960D02*
X11500Y470960D01*
X2703500Y470960D02*
X2703500Y470960D01*
X11500Y469960D02*
X11500Y469960D01*
X2703500Y469960D02*
X2703500Y469960D01*
X11500Y468960D02*
X11500Y468960D01*
X2703500Y468960D02*
X2703500Y468960D01*
X11500Y467960D02*
X11500Y467960D01*
X2703500Y467960D02*
X2703500Y467960D01*
X11500Y466960D02*
X11500Y466960D01*
X2703500Y466960D02*
X2703500Y466960D01*
X11500Y465960D02*
X11500Y465960D01*
X2703500Y465960D02*
X2703500Y465960D01*
X11500Y464960D02*
X11500Y464960D01*
X2703500Y464960D02*
X2703500Y464960D01*
X11500Y463960D02*
X11500Y463960D01*
X2703500Y463960D02*
X2703500Y463960D01*
X11500Y462960D02*
X11500Y462960D01*
X2703500Y462960D02*
X2703500Y462960D01*
X11500Y461960D02*
X11500Y461960D01*
X2703500Y461960D02*
X2703500Y461960D01*
X11500Y460960D02*
X11500Y460960D01*
X2703500Y460960D02*
X2703500Y460960D01*
X11500Y459960D02*
X11500Y459960D01*
X2703500Y459960D02*
X2703500Y459960D01*
X11500Y458960D02*
X11500Y458960D01*
X2703500Y458960D02*
X2703500Y458960D01*
X11500Y457960D02*
X11500Y457960D01*
X2703500Y457960D02*
X2703500Y457960D01*
X11500Y456960D02*
X11500Y456960D01*
X2703500Y456960D02*
X2703500Y456960D01*
X11500Y455960D02*
X11500Y455960D01*
X2703500Y455960D02*
X2703500Y455960D01*
X11500Y454960D02*
X11500Y454960D01*
X2703500Y454960D02*
X2703500Y454960D01*
X11500Y453960D02*
X11500Y453960D01*
X2703500Y453960D02*
X2703500Y453960D01*
X11500Y452960D02*
X11500Y452960D01*
X2703500Y452960D02*
X2703500Y452960D01*
X11500Y451960D02*
X11500Y451960D01*
X2703500Y451960D02*
X2703500Y451960D01*
X11500Y450960D02*
X11500Y450960D01*
X2703500Y450960D02*
X2703500Y450960D01*
X11500Y449960D02*
X11500Y449960D01*
X2703500Y449960D02*
X2703500Y449960D01*
X11500Y448960D02*
X11500Y448960D01*
X2703500Y448960D02*
X2703500Y448960D01*
X11500Y447960D02*
X11500Y447960D01*
X2703500Y447960D02*
X2703500Y447960D01*
X11500Y446960D02*
X11500Y446960D01*
X2703500Y446960D02*
X2703500Y446960D01*
X11500Y445960D02*
X11500Y445960D01*
X2703500Y445960D02*
X2703500Y445960D01*
X11500Y444960D02*
X11500Y444960D01*
X2703500Y444960D02*
X2703500Y444960D01*
X11500Y443960D02*
X11500Y443960D01*
X2703500Y443960D02*
X2703500Y443960D01*
X11500Y442960D02*
X11500Y442960D01*
X2703500Y442960D02*
X2703500Y442960D01*
X11500Y441960D02*
X11500Y441960D01*
X2703500Y441960D02*
X2703500Y441960D01*
X11500Y440960D02*
X11500Y440960D01*
X2703500Y440960D02*
X2703500Y440960D01*
X11500Y439960D02*
X11500Y439960D01*
X2703500Y439960D02*
X2703500Y439960D01*
X11500Y438960D02*
X11500Y438960D01*
X2703500Y438960D02*
X2703500Y438960D01*
X11500Y437960D02*
X11500Y437960D01*
X2703500Y437960D02*
X2703500Y437960D01*
X11500Y436960D02*
X11500Y436960D01*
X2703500Y436960D02*
X2703500Y436960D01*
X11500Y435960D02*
X11500Y435960D01*
X2703500Y435960D02*
X2703500Y435960D01*
X11500Y434960D02*
X11500Y434960D01*
X2703500Y434960D02*
X2703500Y434960D01*
X11500Y433960D02*
X11500Y433960D01*
X2703500Y433960D02*
X2703500Y433960D01*
X11500Y432960D02*
X11500Y432960D01*
X2703500Y432960D02*
X2703500Y432960D01*
X11500Y431960D02*
X11500Y431960D01*
X2703500Y431960D02*
X2703500Y431960D01*
X11500Y430960D02*
X11500Y430960D01*
X2703500Y430960D02*
X2703500Y430960D01*
X11500Y429960D02*
X11500Y429960D01*
X2703500Y429960D02*
X2703500Y429960D01*
X11500Y428960D02*
X11500Y428960D01*
X2703500Y428960D02*
X2703500Y428960D01*
X11500Y427960D02*
X11500Y427960D01*
X2703500Y427960D02*
X2703500Y427960D01*
X11500Y426960D02*
X11500Y426960D01*
X2703500Y426960D02*
X2703500Y426960D01*
X11500Y425960D02*
X11500Y425960D01*
X2703500Y425960D02*
X2703500Y425960D01*
X11500Y424960D02*
X11500Y424960D01*
X2703500Y424960D02*
X2703500Y424960D01*
X11500Y423960D02*
X11500Y423960D01*
X2703500Y423960D02*
X2703500Y423960D01*
X11500Y422960D02*
X11500Y422960D01*
X2703500Y422960D02*
X2703500Y422960D01*
X11500Y421960D02*
X11500Y421960D01*
X2703500Y421960D02*
X2703500Y421960D01*
X11500Y420960D02*
X11500Y420960D01*
X2703500Y420960D02*
X2703500Y420960D01*
X11500Y419960D02*
X11500Y419960D01*
X2703500Y419960D02*
X2703500Y419960D01*
X11500Y418960D02*
X11500Y418960D01*
X2703500Y418960D02*
X2703500Y418960D01*
X11500Y417960D02*
X11500Y417960D01*
X2703500Y417960D02*
X2703500Y417960D01*
X11500Y416960D02*
X11500Y416960D01*
X2703500Y416960D02*
X2703500Y416960D01*
X11500Y415960D02*
X11500Y415960D01*
X2703500Y415960D02*
X2703500Y415960D01*
X11500Y414960D02*
X11500Y414960D01*
X2703500Y414960D02*
X2703500Y414960D01*
X11500Y413960D02*
X11500Y413960D01*
X2703500Y413960D02*
X2703500Y413960D01*
X11500Y412960D02*
X11500Y412960D01*
X2703500Y412960D02*
X2703500Y412960D01*
X11500Y411960D02*
X11500Y411960D01*
X2703500Y411960D02*
X2703500Y411960D01*
X11500Y410960D02*
X11500Y410960D01*
X2703500Y410960D02*
X2703500Y410960D01*
X11500Y409960D02*
X11500Y409960D01*
X2703500Y409960D02*
X2703500Y409960D01*
X11500Y408960D02*
X11500Y408960D01*
X2703500Y408960D02*
X2703500Y408960D01*
X11500Y407960D02*
X11500Y407960D01*
X2703500Y407960D02*
X2703500Y407960D01*
X11500Y406960D02*
X11500Y406960D01*
X2703500Y406960D02*
X2703500Y406960D01*
X11500Y405960D02*
X11500Y405960D01*
X2703500Y405960D02*
X2703500Y405960D01*
X11500Y404960D02*
X11500Y404960D01*
X2703500Y404960D02*
X2703500Y404960D01*
X11500Y403960D02*
X11500Y403960D01*
X2703500Y403960D02*
X2703500Y403960D01*
X11500Y402960D02*
X11500Y402960D01*
X2703500Y402960D02*
X2703500Y402960D01*
X11500Y401960D02*
X11500Y401960D01*
X2703500Y401960D02*
X2703500Y401960D01*
X11500Y400960D02*
X11500Y400960D01*
X2703500Y400960D02*
X2703500Y400960D01*
X11500Y399960D02*
X11500Y399960D01*
X2703500Y399960D02*
X2703500Y399960D01*
X11500Y398960D02*
X11500Y398960D01*
X2703500Y398960D02*
X2703500Y398960D01*
X11500Y397960D02*
X11500Y397960D01*
X2703500Y397960D02*
X2703500Y397960D01*
X11500Y396960D02*
X11500Y396960D01*
X2703500Y396960D02*
X2703500Y396960D01*
X11500Y395960D02*
X11500Y395960D01*
X2703500Y395960D02*
X2703500Y395960D01*
X11500Y394960D02*
X11500Y394960D01*
X2703500Y394960D02*
X2703500Y394960D01*
X11500Y393960D02*
X11500Y393960D01*
X2703500Y393960D02*
X2703500Y393960D01*
X11500Y392960D02*
X11500Y392960D01*
X2703500Y392960D02*
X2703500Y392960D01*
X11500Y391960D02*
X11500Y391960D01*
X2703500Y391960D02*
X2703500Y391960D01*
X11500Y390960D02*
X11500Y390960D01*
X2703500Y390960D02*
X2703500Y390960D01*
X11500Y389960D02*
X11500Y389960D01*
X2703500Y389960D02*
X2703500Y389960D01*
X11500Y388960D02*
X11500Y388960D01*
X2703500Y388960D02*
X2703500Y388960D01*
X11500Y387960D02*
X11500Y387960D01*
X2703500Y387960D02*
X2703500Y387960D01*
X11500Y386960D02*
X11500Y386960D01*
X2703500Y386960D02*
X2703500Y386960D01*
X11500Y385960D02*
X11500Y385960D01*
X2703500Y385960D02*
X2703500Y385960D01*
X11500Y384960D02*
X11500Y384960D01*
X2703500Y384960D02*
X2703500Y384960D01*
X11500Y383960D02*
X11500Y383960D01*
X2703500Y383960D02*
X2703500Y383960D01*
X11500Y382960D02*
X11500Y382960D01*
X2703500Y382960D02*
X2703500Y382960D01*
X11500Y381960D02*
X11500Y381960D01*
X2703500Y381960D02*
X2703500Y381960D01*
X11500Y380960D02*
X11500Y380960D01*
X2703500Y380960D02*
X2703500Y380960D01*
X11500Y379960D02*
X11500Y379960D01*
X2703500Y379960D02*
X2703500Y379960D01*
X11500Y378960D02*
X11500Y378960D01*
X2703500Y378960D02*
X2703500Y378960D01*
X11500Y377960D02*
X11500Y377960D01*
X2703500Y377960D02*
X2703500Y377960D01*
X11500Y376960D02*
X11500Y376960D01*
X2703500Y376960D02*
X2703500Y376960D01*
X11500Y375960D02*
X11500Y375960D01*
X2703500Y375960D02*
X2703500Y375960D01*
X11500Y374960D02*
X11500Y374960D01*
X2703500Y374960D02*
X2703500Y374960D01*
X11500Y373960D02*
X11500Y373960D01*
X2703500Y373960D02*
X2703500Y373960D01*
X11500Y372960D02*
X11500Y372960D01*
X2703500Y372960D02*
X2703500Y372960D01*
X11500Y371960D02*
X11500Y371960D01*
X2703500Y371960D02*
X2703500Y371960D01*
X11500Y370960D02*
X11500Y370960D01*
X2703500Y370960D02*
X2703500Y370960D01*
X11500Y369960D02*
X11500Y369960D01*
X2703500Y369960D02*
X2703500Y369960D01*
X11500Y368960D02*
X11500Y368960D01*
X2703500Y368960D02*
X2703500Y368960D01*
X11500Y367960D02*
X11500Y367960D01*
X2703500Y367960D02*
X2703500Y367960D01*
X11500Y366960D02*
X11500Y366960D01*
X2703500Y366960D02*
X2703500Y366960D01*
X11500Y365960D02*
X11500Y365960D01*
X2703500Y365960D02*
X2703500Y365960D01*
X11500Y364960D02*
X11500Y364960D01*
X2703500Y364960D02*
X2703500Y364960D01*
X11500Y363960D02*
X11500Y363960D01*
X2703500Y363960D02*
X2703500Y363960D01*
X11500Y362960D02*
X11500Y362960D01*
X2703500Y362960D02*
X2703500Y362960D01*
X11500Y361960D02*
X11500Y361960D01*
X2703500Y361960D02*
X2703500Y361960D01*
X11500Y360960D02*
X11500Y360960D01*
X2703500Y360960D02*
X2703500Y360960D01*
X11500Y359960D02*
X11500Y359960D01*
X2703500Y359960D02*
X2703500Y359960D01*
X11500Y358960D02*
X11500Y358960D01*
X2703500Y358960D02*
X2703500Y358960D01*
X11500Y357960D02*
X11500Y357960D01*
X2703500Y357960D02*
X2703500Y357960D01*
X11500Y356960D02*
X11500Y356960D01*
X2703500Y356960D02*
X2703500Y356960D01*
X11500Y355960D02*
X11500Y355960D01*
X2703500Y355960D02*
X2703500Y355960D01*
X11500Y354960D02*
X11500Y354960D01*
X2703500Y354960D02*
X2703500Y354960D01*
X11500Y353960D02*
X11500Y353960D01*
X2703500Y353960D02*
X2703500Y353960D01*
X11500Y352960D02*
X11500Y352960D01*
X2703500Y352960D02*
X2703500Y352960D01*
X11500Y351960D02*
X11500Y351960D01*
X2703500Y351960D02*
X2703500Y351960D01*
X11500Y350960D02*
X11500Y350960D01*
X2703500Y350960D02*
X2703500Y350960D01*
X11500Y349960D02*
X11500Y349960D01*
X2703500Y349960D02*
X2703500Y349960D01*
X11500Y348960D02*
X11500Y348960D01*
X2703500Y348960D02*
X2703500Y348960D01*
X11500Y347960D02*
X11500Y347960D01*
X2703500Y347960D02*
X2703500Y347960D01*
X11500Y346960D02*
X11500Y346960D01*
X2703500Y346960D02*
X2703500Y346960D01*
X11500Y345960D02*
X11500Y345960D01*
X2703500Y345960D02*
X2703500Y345960D01*
X11500Y344960D02*
X11500Y344960D01*
X2703500Y344960D02*
X2703500Y344960D01*
X11500Y343960D02*
X11500Y343960D01*
X2703500Y343960D02*
X2703500Y343960D01*
X11500Y342960D02*
X11500Y342960D01*
X2703500Y342960D02*
X2703500Y342960D01*
X11500Y341960D02*
X11500Y341960D01*
X2703500Y341960D02*
X2703500Y341960D01*
X11500Y340960D02*
X11500Y340960D01*
X2703500Y340960D02*
X2703500Y340960D01*
X11500Y339960D02*
X11500Y339960D01*
X2703500Y339960D02*
X2703500Y339960D01*
X11500Y338960D02*
X11500Y338960D01*
X2703500Y338960D02*
X2703500Y338960D01*
X11500Y337960D02*
X11500Y337960D01*
X2703500Y337960D02*
X2703500Y337960D01*
X11500Y336960D02*
X11500Y336960D01*
X2703500Y336960D02*
X2703500Y336960D01*
X11500Y335960D02*
X11500Y335960D01*
X2703500Y335960D02*
X2703500Y335960D01*
X11500Y334960D02*
X11500Y334960D01*
X2703500Y334960D02*
X2703500Y334960D01*
X11500Y333960D02*
X11500Y333960D01*
X2703500Y333960D02*
X2703500Y333960D01*
X11500Y332960D02*
X11500Y332960D01*
X2703500Y332960D02*
X2703500Y332960D01*
X11500Y331960D02*
X11500Y331960D01*
X2703500Y331960D02*
X2703500Y331960D01*
X11500Y330960D02*
X11500Y330960D01*
X2703500Y330960D02*
X2703500Y330960D01*
X11500Y329960D02*
X11500Y329960D01*
X2703500Y329960D02*
X2703500Y329960D01*
X11500Y328960D02*
X11500Y328960D01*
X2703500Y328960D02*
X2703500Y328960D01*
X11500Y327960D02*
X11500Y327960D01*
X2703500Y327960D02*
X2703500Y327960D01*
X11500Y326960D02*
X11500Y326960D01*
X2703500Y326960D02*
X2703500Y326960D01*
X11500Y325960D02*
X11500Y325960D01*
X2703500Y325960D02*
X2703500Y325960D01*
X11500Y324960D02*
X11500Y324960D01*
X2703500Y324960D02*
X2703500Y324960D01*
X11500Y323960D02*
X11500Y323960D01*
X2703500Y323960D02*
X2703500Y323960D01*
X11500Y322960D02*
X11500Y322960D01*
X2703500Y322960D02*
X2703500Y322960D01*
X11500Y321960D02*
X11500Y321960D01*
X2703500Y321960D02*
X2703500Y321960D01*
X11500Y320960D02*
X11500Y320960D01*
X2703500Y320960D02*
X2703500Y320960D01*
X11500Y319960D02*
X11500Y319960D01*
X2703500Y319960D02*
X2703500Y319960D01*
X11500Y318960D02*
X11500Y318960D01*
X2703500Y318960D02*
X2703500Y318960D01*
X11500Y317960D02*
X11500Y317960D01*
X2703500Y317960D02*
X2703500Y317960D01*
X11500Y316960D02*
X11500Y316960D01*
X2703500Y316960D02*
X2703500Y316960D01*
X11500Y315960D02*
X11500Y315960D01*
X2703500Y315960D02*
X2703500Y315960D01*
X11500Y314960D02*
X11500Y314960D01*
X2703500Y314960D02*
X2703500Y314960D01*
X11500Y313960D02*
X11500Y313960D01*
X2703500Y313960D02*
X2703500Y313960D01*
X11500Y312960D02*
X11500Y312960D01*
X2703500Y312960D02*
X2703500Y312960D01*
X11500Y311960D02*
X11500Y311960D01*
X2703500Y311960D02*
X2703500Y311960D01*
X11500Y310960D02*
X11500Y310960D01*
X2703500Y310960D02*
X2703500Y310960D01*
X11500Y309960D02*
X11500Y309960D01*
X2703500Y309960D02*
X2703500Y309960D01*
X11500Y308960D02*
X11500Y308960D01*
X2703500Y308960D02*
X2703500Y308960D01*
X11500Y307960D02*
X11500Y307960D01*
X2703500Y307960D02*
X2703500Y307960D01*
X11500Y306960D02*
X11500Y306960D01*
X2703500Y306960D02*
X2703500Y306960D01*
X11500Y305960D02*
X11500Y305960D01*
X2703500Y305960D02*
X2703500Y305960D01*
X11500Y304960D02*
X11500Y304960D01*
X2703500Y304960D02*
X2703500Y304960D01*
X11500Y303960D02*
X11500Y303960D01*
X2703500Y303960D02*
X2703500Y303960D01*
X11500Y302960D02*
X11500Y302960D01*
X2703500Y302960D02*
X2703500Y302960D01*
X11500Y301960D02*
X11500Y301960D01*
X2703500Y301960D02*
X2703500Y301960D01*
X11500Y300960D02*
X11500Y300960D01*
X2703500Y300960D02*
X2703500Y300960D01*
X11500Y299960D02*
X11500Y299960D01*
X2703500Y299960D02*
X2703500Y299960D01*
X11500Y298960D02*
X11500Y298960D01*
X2703500Y298960D02*
X2703500Y298960D01*
X11500Y297960D02*
X11500Y297960D01*
X2703500Y297960D02*
X2703500Y297960D01*
X11500Y296960D02*
X11500Y296960D01*
X2703500Y296960D02*
X2703500Y296960D01*
X11500Y295960D02*
X11500Y295960D01*
X2703500Y295960D02*
X2703500Y295960D01*
X11500Y294960D02*
X11500Y294960D01*
X2703500Y294960D02*
X2703500Y294960D01*
X11500Y293960D02*
X11500Y293960D01*
X2703500Y293960D02*
X2703500Y293960D01*
X11500Y292960D02*
X11500Y292960D01*
X2703500Y292960D02*
X2703500Y292960D01*
X11500Y291960D02*
X11500Y291960D01*
X2703500Y291960D02*
X2703500Y291960D01*
X11500Y290960D02*
X11500Y290960D01*
X2703500Y290960D02*
X2703500Y290960D01*
X11500Y289960D02*
X11500Y289960D01*
X2703500Y289960D02*
X2703500Y289960D01*
X11500Y288960D02*
X11500Y288960D01*
X2703500Y288960D02*
X2703500Y288960D01*
X11500Y287960D02*
X11500Y287960D01*
X2703500Y287960D02*
X2703500Y287960D01*
X11500Y286960D02*
X11500Y286960D01*
X2703500Y286960D02*
X2703500Y286960D01*
X11500Y285960D02*
X11500Y285960D01*
X2703500Y285960D02*
X2703500Y285960D01*
X11500Y284960D02*
X11500Y284960D01*
X2703500Y284960D02*
X2703500Y284960D01*
X11500Y283960D02*
X11500Y283960D01*
X2703500Y283960D02*
X2703500Y283960D01*
X11500Y282960D02*
X11500Y282960D01*
X2703500Y282960D02*
X2703500Y282960D01*
X11500Y281960D02*
X11500Y281960D01*
X2703500Y281960D02*
X2703500Y281960D01*
X11500Y280960D02*
X11500Y280960D01*
X2703500Y280960D02*
X2703500Y280960D01*
X11500Y279960D02*
X11500Y279960D01*
X2703500Y279960D02*
X2703500Y279960D01*
X11500Y278960D02*
X11500Y278960D01*
X2703500Y278960D02*
X2703500Y278960D01*
X11500Y277960D02*
X11500Y277960D01*
X2703500Y277960D02*
X2703500Y277960D01*
X11500Y276960D02*
X11500Y276960D01*
X2703500Y276960D02*
X2703500Y276960D01*
X11500Y275960D02*
X11500Y275960D01*
X2703500Y275960D02*
X2703500Y275960D01*
X11500Y274960D02*
X11500Y274960D01*
X2703500Y274960D02*
X2703500Y274960D01*
X11500Y273960D02*
X11500Y273960D01*
X2703500Y273960D02*
X2703500Y273960D01*
X11500Y272960D02*
X11500Y272960D01*
X2703500Y272960D02*
X2703500Y272960D01*
X11500Y271960D02*
X11500Y271960D01*
X2703500Y271960D02*
X2703500Y271960D01*
X11500Y270960D02*
X11500Y270960D01*
X2703500Y270960D02*
X2703500Y270960D01*
X11500Y269960D02*
X11500Y269960D01*
X2703500Y269960D02*
X2703500Y269960D01*
X11500Y268960D02*
X11500Y268960D01*
X2703500Y268960D02*
X2703500Y268960D01*
X11500Y267960D02*
X11500Y267960D01*
X2703500Y267960D02*
X2703500Y267960D01*
X11500Y266960D02*
X11500Y266960D01*
X2703500Y266960D02*
X2703500Y266960D01*
X11500Y265960D02*
X11500Y265960D01*
X2703500Y265960D02*
X2703500Y265960D01*
X11500Y264960D02*
X11500Y264960D01*
X2703500Y264960D02*
X2703500Y264960D01*
X11500Y263960D02*
X11500Y263960D01*
X2703500Y263960D02*
X2703500Y263960D01*
X11500Y262960D02*
X11500Y262960D01*
X2703500Y262960D02*
X2703500Y262960D01*
X11500Y261960D02*
X11500Y261960D01*
X2703500Y261960D02*
X2703500Y261960D01*
X11500Y260960D02*
X11500Y260960D01*
X2703500Y260960D02*
X2703500Y260960D01*
X11500Y259960D02*
X11500Y259960D01*
X2703500Y259960D02*
X2703500Y259960D01*
X11500Y258960D02*
X11500Y258960D01*
X2703500Y258960D02*
X2703500Y258960D01*
X11500Y257960D02*
X11500Y257960D01*
X2703500Y257960D02*
X2703500Y257960D01*
X11500Y256960D02*
X11500Y256960D01*
X2703500Y256960D02*
X2703500Y256960D01*
X11500Y255960D02*
X11500Y255960D01*
X2703500Y255960D02*
X2703500Y255960D01*
X11500Y254960D02*
X11500Y254960D01*
X2703500Y254960D02*
X2703500Y254960D01*
X11500Y253960D02*
X11500Y253960D01*
X2703500Y253960D02*
X2703500Y253960D01*
X11500Y252960D02*
X11500Y252960D01*
X2703500Y252960D02*
X2703500Y252960D01*
X11500Y251960D02*
X11500Y251960D01*
X2703500Y251960D02*
X2703500Y251960D01*
X11500Y250960D02*
X11500Y250960D01*
X2703500Y250960D02*
X2703500Y250960D01*
X11500Y249960D02*
X11500Y249960D01*
X2703500Y249960D02*
X2703500Y249960D01*
X11500Y248960D02*
X11500Y248960D01*
X2703500Y248960D02*
X2703500Y248960D01*
X11500Y247960D02*
X11500Y247960D01*
X2703500Y247960D02*
X2703500Y247960D01*
X11500Y246960D02*
X11500Y246960D01*
X2703500Y246960D02*
X2703500Y246960D01*
X11500Y245960D02*
X11500Y245960D01*
X2703500Y245960D02*
X2703500Y245960D01*
X11500Y244960D02*
X11500Y244960D01*
X2703500Y244960D02*
X2703500Y244960D01*
X11500Y243960D02*
X11500Y243960D01*
X2703500Y243960D02*
X2703500Y243960D01*
X11500Y242960D02*
X11500Y242960D01*
X2703500Y242960D02*
X2703500Y242960D01*
X11500Y241960D02*
X11500Y241960D01*
X2703500Y241960D02*
X2703500Y241960D01*
X11500Y240960D02*
X11500Y240960D01*
X2703500Y240960D02*
X2703500Y240960D01*
X11500Y239960D02*
X11500Y239960D01*
X2703500Y239960D02*
X2703500Y239960D01*
X11500Y238960D02*
X11500Y238960D01*
X2703500Y238960D02*
X2703500Y238960D01*
X11500Y237960D02*
X11500Y237960D01*
X2703500Y237960D02*
X2703500Y237960D01*
X11500Y236960D02*
X11500Y236960D01*
X2703500Y236960D02*
X2703500Y236960D01*
X11500Y235960D02*
X11500Y235960D01*
X2703500Y235960D02*
X2703500Y235960D01*
X11500Y234960D02*
X11500Y234960D01*
X2703500Y234960D02*
X2703500Y234960D01*
X11500Y233960D02*
X11500Y233960D01*
X2703500Y233960D02*
X2703500Y233960D01*
X11500Y232960D02*
X11500Y232960D01*
X2703500Y232960D02*
X2703500Y232960D01*
X11500Y231960D02*
X11500Y231960D01*
X2703500Y231960D02*
X2703500Y231960D01*
X11500Y230960D02*
X11500Y230960D01*
X2703500Y230960D02*
X2703500Y230960D01*
X11500Y229960D02*
X11500Y229960D01*
X2703500Y229960D02*
X2703500Y229960D01*
X11500Y228960D02*
X11500Y228960D01*
X2703500Y228960D02*
X2703500Y228960D01*
X11500Y227960D02*
X11500Y227960D01*
X2703500Y227960D02*
X2703500Y227960D01*
X11500Y226960D02*
X11500Y226960D01*
X2703500Y226960D02*
X2703500Y226960D01*
X11500Y225960D02*
X11500Y225960D01*
X2703500Y225960D02*
X2703500Y225960D01*
X11500Y224960D02*
X11500Y224960D01*
X2703500Y224960D02*
X2703500Y224960D01*
X11500Y223960D02*
X11500Y223960D01*
X2703500Y223960D02*
X2703500Y223960D01*
X11500Y222960D02*
X11500Y222960D01*
X2703500Y222960D02*
X2703500Y222960D01*
X11500Y221960D02*
X11500Y221960D01*
X2703500Y221960D02*
X2703500Y221960D01*
X11500Y220960D02*
X11500Y220960D01*
X2703500Y220960D02*
X2703500Y220960D01*
X11500Y219960D02*
X11500Y219960D01*
X2703500Y219960D02*
X2703500Y219960D01*
X11500Y218960D02*
X11500Y218960D01*
X2703500Y218960D02*
X2703500Y218960D01*
X11500Y217960D02*
X11500Y217960D01*
X2703500Y217960D02*
X2703500Y217960D01*
X11500Y216960D02*
X11500Y216960D01*
X2703500Y216960D02*
X2703500Y216960D01*
X11500Y215960D02*
X11500Y215960D01*
X2703500Y215960D02*
X2703500Y215960D01*
X11500Y214960D02*
X11500Y214960D01*
X2703500Y214960D02*
X2703500Y214960D01*
X11500Y213960D02*
X11500Y213960D01*
X2703500Y213960D02*
X2703500Y213960D01*
X11500Y212960D02*
X11500Y212960D01*
X2703500Y212960D02*
X2703500Y212960D01*
X11500Y211960D02*
X11500Y211960D01*
X2703500Y211960D02*
X2703500Y211960D01*
X11500Y210960D02*
X11500Y210960D01*
X2703500Y210960D02*
X2703500Y210960D01*
X11500Y209960D02*
X11500Y209960D01*
X2703500Y209960D02*
X2703500Y209960D01*
X11500Y208960D02*
X11500Y208960D01*
X2703500Y208960D02*
X2703500Y208960D01*
X11500Y207960D02*
X11500Y207960D01*
X2703500Y207960D02*
X2703500Y207960D01*
X11500Y206960D02*
X11500Y206960D01*
X2702500Y206960D02*
X2702500Y206960D01*
X11500Y205960D02*
X11500Y205960D01*
X2701500Y205960D02*
X2701500Y205960D01*
X11500Y204960D02*
X11500Y204960D01*
X2700500Y204960D02*
X2700500Y204960D01*
X11500Y203960D02*
X11500Y203960D01*
X2699500Y203960D02*
X2699500Y203960D01*
X11500Y202960D02*
X11500Y202960D01*
X2698500Y202960D02*
X2698500Y202960D01*
X11500Y201960D02*
X11500Y201960D01*
X2697500Y201960D02*
X2697500Y201960D01*
X11500Y200960D02*
X11500Y200960D01*
X2696500Y200960D02*
X2696500Y200960D01*
X11500Y199960D02*
X11500Y199960D01*
X2695500Y199960D02*
X2695500Y199960D01*
X11500Y198960D02*
X11500Y198960D01*
X2694500Y198960D02*
X2694500Y198960D01*
X11500Y197960D02*
X11500Y197960D01*
X2693500Y197960D02*
X2693500Y197960D01*
X11500Y196960D02*
X11500Y196960D01*
X2692500Y196960D02*
X2692500Y196960D01*
X11500Y195960D02*
X11500Y195960D01*
X2691500Y195960D02*
X2691500Y195960D01*
X11500Y194960D02*
X11500Y194960D01*
X2690500Y194960D02*
X2690500Y194960D01*
X11500Y193960D02*
X11500Y193960D01*
X2689500Y193960D02*
X2689500Y193960D01*
X11500Y192960D02*
X11500Y192960D01*
X2688500Y192960D02*
X2688500Y192960D01*
X11500Y191960D02*
X11500Y191960D01*
X2687500Y191960D02*
X2687500Y191960D01*
X11500Y190960D02*
X11500Y190960D01*
X2686500Y190960D02*
X2686500Y190960D01*
X11500Y189960D02*
X11500Y189960D01*
X2685500Y189960D02*
X2685500Y189960D01*
X11500Y188960D02*
X11500Y188960D01*
X2684500Y188960D02*
X2684500Y188960D01*
X11500Y187960D02*
X11500Y187960D01*
X2683500Y187960D02*
X2683500Y187960D01*
X11500Y186960D02*
X11500Y186960D01*
X2682500Y186960D02*
X2682500Y186960D01*
X11500Y185960D02*
X11500Y185960D01*
X2681500Y185960D02*
X2681500Y185960D01*
X11500Y184960D02*
X11500Y184960D01*
X2680500Y184960D02*
X2680500Y184960D01*
X11500Y183960D02*
X11500Y183960D01*
X2679500Y183960D02*
X2679500Y183960D01*
X11500Y182960D02*
X11500Y182960D01*
X2678500Y182960D02*
X2678500Y182960D01*
X11500Y181960D02*
X11500Y181960D01*
X2677500Y181960D02*
X2677500Y181960D01*
X11500Y180960D02*
X11500Y180960D01*
X2676500Y180960D02*
X2676500Y180960D01*
X11500Y179960D02*
X11500Y179960D01*
X2675500Y179960D02*
X2675500Y179960D01*
X11500Y178960D02*
X11500Y178960D01*
X2674500Y178960D02*
X2674500Y178960D01*
X11500Y177960D02*
X11500Y177960D01*
X2673500Y177960D02*
X2673500Y177960D01*
X11500Y176960D02*
X11500Y176960D01*
X2672500Y176960D02*
X2672500Y176960D01*
X11500Y175960D02*
X11500Y175960D01*
X2671500Y175960D02*
X2671500Y175960D01*
X11500Y174960D02*
X11500Y174960D01*
X2670500Y174960D02*
X2670500Y174960D01*
X11500Y173960D02*
X11500Y173960D01*
X2669500Y173960D02*
X2669500Y173960D01*
X11500Y172960D02*
X11500Y172960D01*
X2668500Y172960D02*
X2668500Y172960D01*
X11500Y171960D02*
X11500Y171960D01*
X2667500Y171960D02*
X2667500Y171960D01*
X11500Y170960D02*
X11500Y170960D01*
X2666500Y170960D02*
X2666500Y170960D01*
X11500Y169960D02*
X11500Y169960D01*
X2665500Y169960D02*
X2665500Y169960D01*
X11500Y168960D02*
X11500Y168960D01*
X2664500Y168960D02*
X2664500Y168960D01*
X11500Y167960D02*
X11500Y167960D01*
X2663500Y167960D02*
X2663500Y167960D01*
X11500Y166960D02*
X11500Y166960D01*
X2662500Y166960D02*
X2662500Y166960D01*
X11500Y165960D02*
X11500Y165960D01*
X2661500Y165960D02*
X2661500Y165960D01*
X11500Y164960D02*
X11500Y164960D01*
X2660500Y164960D02*
X2660500Y164960D01*
X11500Y163960D02*
X11500Y163960D01*
X2659500Y163960D02*
X2659500Y163960D01*
X11500Y162960D02*
X11500Y162960D01*
X2658500Y162960D02*
X2658500Y162960D01*
X11500Y161960D02*
X11500Y161960D01*
X2657500Y161960D02*
X2657500Y161960D01*
X11500Y160960D02*
X11500Y160960D01*
X2656500Y160960D02*
X2656500Y160960D01*
X11500Y159960D02*
X11500Y159960D01*
X2655500Y159960D02*
X2655500Y159960D01*
X11500Y158960D02*
X11500Y158960D01*
X2654500Y158960D02*
X2654500Y158960D01*
X11500Y157960D02*
X11500Y157960D01*
X2653500Y157960D02*
X2653500Y157960D01*
X11500Y156960D02*
X11500Y156960D01*
X2652500Y156960D02*
X2652500Y156960D01*
X11500Y155960D02*
X11500Y155960D01*
X2651500Y155960D02*
X2651500Y155960D01*
X11500Y154960D02*
X11500Y154960D01*
X2650500Y154960D02*
X2650500Y154960D01*
X11500Y153960D02*
X11500Y153960D01*
X2649500Y153960D02*
X2649500Y153960D01*
X11500Y152960D02*
X11500Y152960D01*
X2648500Y152960D02*
X2648500Y152960D01*
X11500Y151960D02*
X11500Y151960D01*
X2647500Y151960D02*
X2647500Y151960D01*
X11500Y150960D02*
X11500Y150960D01*
X2646500Y150960D02*
X2646500Y150960D01*
X11500Y149960D02*
X11500Y149960D01*
X2645500Y149960D02*
X2645500Y149960D01*
X11500Y148960D02*
X11500Y148960D01*
X2644500Y148960D02*
X2644500Y148960D01*
X11500Y147960D02*
X11500Y147960D01*
X2643500Y147960D02*
X2643500Y147960D01*
X11500Y146960D02*
X11500Y146960D01*
X2642500Y146960D02*
X2642500Y146960D01*
X11500Y145960D02*
X11500Y145960D01*
X2641500Y145960D02*
X2641500Y145960D01*
X11500Y144960D02*
X11500Y144960D01*
X2640500Y144960D02*
X2640500Y144960D01*
X11500Y143960D02*
X11500Y143960D01*
X2639500Y143960D02*
X2639500Y143960D01*
X11500Y142960D02*
X11500Y142960D01*
X2638500Y142960D02*
X2638500Y142960D01*
X11500Y141960D02*
X11500Y141960D01*
X2637500Y141960D02*
X2637500Y141960D01*
X11500Y140960D02*
X11500Y140960D01*
X2636500Y140960D02*
X2636500Y140960D01*
X11500Y139960D02*
X11500Y139960D01*
X2635500Y139960D02*
X2635500Y139960D01*
X11500Y138960D02*
X11500Y138960D01*
X2634500Y138960D02*
X2634500Y138960D01*
X11500Y137960D02*
X11500Y137960D01*
X2633500Y137960D02*
X2633500Y137960D01*
X11500Y136960D02*
X11500Y136960D01*
X2632500Y136960D02*
X2632500Y136960D01*
X11500Y135960D02*
X11500Y135960D01*
X2631500Y135960D02*
X2631500Y135960D01*
X11500Y134960D02*
X11500Y134960D01*
X2630500Y134960D02*
X2630500Y134960D01*
X11500Y133960D02*
X11500Y133960D01*
X2629500Y133960D02*
X2629500Y133960D01*
X11500Y132960D02*
X11500Y132960D01*
X2628500Y132960D02*
X2628500Y132960D01*
X11500Y131960D02*
X11500Y131960D01*
X2627500Y131960D02*
X2627500Y131960D01*
X11500Y130960D02*
X11500Y130960D01*
X2626500Y130960D02*
X2626500Y130960D01*
X11500Y129960D02*
X11500Y129960D01*
X2625500Y129960D02*
X2625500Y129960D01*
X11500Y128960D02*
X11500Y128960D01*
X2624500Y128960D02*
X2624500Y128960D01*
X11500Y127960D02*
X11500Y127960D01*
X2623500Y127960D02*
X2623500Y127960D01*
X11500Y126960D02*
X11500Y126960D01*
X2622500Y126960D02*
X2622500Y126960D01*
X11500Y125960D02*
X11500Y125960D01*
X2621500Y125960D02*
X2621500Y125960D01*
X11500Y124960D02*
X11500Y124960D01*
X2620500Y124960D02*
X2620500Y124960D01*
X11500Y123960D02*
X11500Y123960D01*
X2619500Y123960D02*
X2619500Y123960D01*
X11500Y122960D02*
X11500Y122960D01*
X2618500Y122960D02*
X2618500Y122960D01*
X11500Y121960D02*
X11500Y121960D01*
X2617500Y121960D02*
X2617500Y121960D01*
X11500Y120960D02*
X11500Y120960D01*
X2616500Y120960D02*
X2616500Y120960D01*
X11500Y119960D02*
X11500Y119960D01*
X2615500Y119960D02*
X2615500Y119960D01*
X11500Y118960D02*
X11500Y118960D01*
X2614500Y118960D02*
X2614500Y118960D01*
X11500Y117960D02*
X11500Y117960D01*
X2613500Y117960D02*
X2613500Y117960D01*
X11500Y116960D02*
X11500Y116960D01*
X2612500Y116960D02*
X2612500Y116960D01*
X11500Y115960D02*
X11500Y115960D01*
X2611500Y115960D02*
X2611500Y115960D01*
X11500Y114960D02*
X11500Y114960D01*
X2610500Y114960D02*
X2610500Y114960D01*
X11500Y113960D02*
X11500Y113960D01*
X2609500Y113960D02*
X2609500Y113960D01*
X11500Y112960D02*
X11500Y112960D01*
X2608500Y112960D02*
X2608500Y112960D01*
X11500Y111960D02*
X11500Y111960D01*
X2607500Y111960D02*
X2607500Y111960D01*
X11500Y110960D02*
X11500Y110960D01*
X2606500Y110960D02*
X2606500Y110960D01*
X11500Y109960D02*
X11500Y109960D01*
X2605500Y109960D02*
X2605500Y109960D01*
X11500Y108960D02*
X11500Y108960D01*
X2604500Y108960D02*
X2604500Y108960D01*
X11500Y107960D02*
X11500Y107960D01*
X2603500Y107960D02*
X2603500Y107960D01*
X11500Y106960D02*
X11500Y106960D01*
X2603500Y106960D02*
X2603500Y106960D01*
X11500Y105960D02*
X11500Y105960D01*
X2603500Y105960D02*
X2603500Y105960D01*
X11500Y104960D02*
X11500Y104960D01*
X2603500Y104960D02*
X2603500Y104960D01*
X11500Y103960D02*
X11500Y103960D01*
X2603500Y103960D02*
X2603500Y103960D01*
X11500Y102960D02*
X11500Y102960D01*
X2603500Y102960D02*
X2603500Y102960D01*
X11500Y101960D02*
X11500Y101960D01*
X2603500Y101960D02*
X2603500Y101960D01*
X11500Y100960D02*
X11500Y100960D01*
X2603500Y100960D02*
X2603500Y100960D01*
X11500Y99960D02*
X11500Y99960D01*
X2603500Y99960D02*
X2603500Y99960D01*
X11500Y98960D02*
X11500Y98960D01*
X2603500Y98960D02*
X2603500Y98960D01*
X11500Y97960D02*
X11500Y97960D01*
X2603500Y97960D02*
X2603500Y97960D01*
X11500Y96960D02*
X11500Y96960D01*
X2603500Y96960D02*
X2603500Y96960D01*
X11500Y95960D02*
X11500Y95960D01*
X2603500Y95960D02*
X2603500Y95960D01*
X11500Y94960D02*
X11500Y94960D01*
X2603500Y94960D02*
X2603500Y94960D01*
X11500Y93960D02*
X11500Y93960D01*
X2603500Y93960D02*
X2603500Y93960D01*
X11500Y92960D02*
X11500Y92960D01*
X2603500Y92960D02*
X2603500Y92960D01*
X11500Y91960D02*
X11500Y91960D01*
X2603500Y91960D02*
X2603500Y91960D01*
X11500Y90960D02*
X11500Y90960D01*
X2603500Y90960D02*
X2603500Y90960D01*
X11500Y89960D02*
X11500Y89960D01*
X2603500Y89960D02*
X2603500Y89960D01*
X11500Y88960D02*
X11500Y88960D01*
X2603500Y88960D02*
X2603500Y88960D01*
X11500Y87960D02*
X11500Y87960D01*
X2603500Y87960D02*
X2603500Y87960D01*
X11500Y86960D02*
X11500Y86960D01*
X2603500Y86960D02*
X2603500Y86960D01*
X11500Y85960D02*
X11500Y85960D01*
X2603500Y85960D02*
X2603500Y85960D01*
X11500Y84960D02*
X11500Y84960D01*
X2603500Y84960D02*
X2603500Y84960D01*
X11500Y83960D02*
X11500Y83960D01*
X2603500Y83960D02*
X2603500Y83960D01*
X11500Y82960D02*
X11500Y82960D01*
X2603500Y82960D02*
X2603500Y82960D01*
X11500Y81960D02*
X11500Y81960D01*
X2603500Y81960D02*
X2603500Y81960D01*
X11500Y80960D02*
X11500Y80960D01*
X2603500Y80960D02*
X2603500Y80960D01*
X11500Y79960D02*
X11500Y79960D01*
X2603500Y79960D02*
X2603500Y79960D01*
X11500Y78960D02*
X11500Y78960D01*
X2603500Y78960D02*
X2603500Y78960D01*
X11500Y77960D02*
X11500Y77960D01*
X2603500Y77960D02*
X2603500Y77960D01*
X11500Y76960D02*
X11500Y76960D01*
X2603500Y76960D02*
X2603500Y76960D01*
X11500Y75960D02*
X11500Y75960D01*
X2603500Y75960D02*
X2603500Y75960D01*
X11500Y74960D02*
X11500Y74960D01*
X2603500Y74960D02*
X2603500Y74960D01*
X11500Y73960D02*
X11500Y73960D01*
X2603500Y73960D02*
X2603500Y73960D01*
X11500Y72960D02*
X11500Y72960D01*
X2603500Y72960D02*
X2603500Y72960D01*
X11500Y71960D02*
X11500Y71960D01*
X2603500Y71960D02*
X2603500Y71960D01*
X11500Y70960D02*
X11500Y70960D01*
X2603500Y70960D02*
X2603500Y70960D01*
X11500Y69960D02*
X11500Y69960D01*
X2603500Y69960D02*
X2603500Y69960D01*
X11500Y68960D02*
X11500Y68960D01*
X2603500Y68960D02*
X2603500Y68960D01*
X11500Y67960D02*
X11500Y67960D01*
X2603500Y67960D02*
X2603500Y67960D01*
X11500Y66960D02*
X11500Y66960D01*
X2603500Y66960D02*
X2603500Y66960D01*
X11500Y65960D02*
X11500Y65960D01*
X2603500Y65960D02*
X2603500Y65960D01*
X11500Y64960D02*
X11500Y64960D01*
X2603500Y64960D02*
X2603500Y64960D01*
X11500Y63960D02*
X11500Y63960D01*
X2603500Y63960D02*
X2603500Y63960D01*
X11500Y62960D02*
X11500Y62960D01*
X2603500Y62960D02*
X2603500Y62960D01*
X11500Y61960D02*
X11500Y61960D01*
X2603500Y61960D02*
X2603500Y61960D01*
X11500Y60960D02*
X11500Y60960D01*
X2603500Y60960D02*
X2603500Y60960D01*
X11500Y59960D02*
X11500Y59960D01*
X2603500Y59960D02*
X2603500Y59960D01*
X11500Y58960D02*
X11500Y58960D01*
X2603500Y58960D02*
X2603500Y58960D01*
X11500Y57960D02*
X11500Y57960D01*
X2603500Y57960D02*
X2603500Y57960D01*
X11500Y56960D02*
X11500Y56960D01*
X2603500Y56960D02*
X2603500Y56960D01*
X11500Y55960D02*
X11500Y55960D01*
X2603500Y55960D02*
X2603500Y55960D01*
X11500Y54960D02*
X11500Y54960D01*
X2603500Y54960D02*
X2603500Y54960D01*
X11500Y53960D02*
X11500Y53960D01*
X2603500Y53960D02*
X2603500Y53960D01*
X11500Y52960D02*
X11500Y52960D01*
X2603500Y52960D02*
X2603500Y52960D01*
X11500Y51960D02*
X11500Y51960D01*
X2603500Y51960D02*
X2603500Y51960D01*
X11500Y50960D02*
X11500Y50960D01*
X2603500Y50960D02*
X2603500Y50960D01*
X11500Y49960D02*
X11500Y49960D01*
X2603500Y49960D02*
X2603500Y49960D01*
X11500Y48960D02*
X11500Y48960D01*
X2603500Y48960D02*
X2603500Y48960D01*
X11500Y47960D02*
X11500Y47960D01*
X2603500Y47960D02*
X2603500Y47960D01*
X11500Y46960D02*
X11500Y46960D01*
X2603500Y46960D02*
X2603500Y46960D01*
X11500Y45960D02*
X11500Y45960D01*
X2603500Y45960D02*
X2603500Y45960D01*
X11500Y44960D02*
X11500Y44960D01*
X2603500Y44960D02*
X2603500Y44960D01*
X11500Y43960D02*
X11500Y43960D01*
X2603500Y43960D02*
X2603500Y43960D01*
X11500Y42960D02*
X11500Y42960D01*
X2603500Y42960D02*
X2603500Y42960D01*
X11500Y41960D02*
X11500Y41960D01*
X2603500Y41960D02*
X2603500Y41960D01*
X11500Y40960D02*
X11500Y40960D01*
X2603500Y40960D02*
X2603500Y40960D01*
X11500Y39960D02*
X11500Y39960D01*
X2603500Y39960D02*
X2603500Y39960D01*
X11500Y38960D02*
X11500Y38960D01*
X2603500Y38960D02*
X2603500Y38960D01*
X11500Y37960D02*
X11500Y37960D01*
X2603500Y37960D02*
X2603500Y37960D01*
X11500Y36960D02*
X11500Y36960D01*
X2603500Y36960D02*
X2603500Y36960D01*
X12500Y35960D02*
X12500Y35960D01*
X2602500Y35960D02*
X2602500Y35960D01*
X12500Y34960D02*
X12500Y34960D01*
X2602500Y34960D02*
X2602500Y34960D01*
X12500Y33960D02*
X12500Y33960D01*
X2602500Y33960D02*
X2602500Y33960D01*
X12500Y32960D02*
X12500Y32960D01*
X2602500Y32960D02*
X2602500Y32960D01*
X13500Y31960D02*
X13500Y31960D01*
X2601500Y31960D02*
X2601500Y31960D01*
X13500Y30960D02*
X13500Y30960D01*
X2601500Y30960D02*
X2601500Y30960D01*
X13500Y29960D02*
X13500Y29960D01*
X2600500Y29960D02*
X2601500Y29960D01*
X14500Y28960D02*
X14500Y28960D01*
X2600500Y28960D02*
X2600500Y28960D01*
X14500Y27960D02*
X14500Y27960D01*
X2600500Y27960D02*
X2600500Y27960D01*
X15500Y26960D02*
X15500Y26960D01*
X2599500Y26960D02*
X2599500Y26960D01*
X15500Y25960D02*
X16500Y25960D01*
X2598500Y25960D02*
X2599500Y25960D01*
X16500Y24960D02*
X16500Y24960D01*
X2598500Y24960D02*
X2598500Y24960D01*
X17500Y23960D02*
X17500Y23960D01*
X2597500Y23960D02*
X2597500Y23960D01*
X17500Y22960D02*
X17500Y22960D01*
X2596500Y22960D02*
X2597500Y22960D01*
X18500Y21960D02*
X18500Y21960D01*
X2596500Y21960D02*
X2596500Y21960D01*
X19500Y20960D02*
X19500Y20960D01*
X2595500Y20960D02*
X2595500Y20960D01*
X20500Y19960D02*
X20500Y19960D01*
X2594500Y19960D02*
X2594500Y19960D01*
X21500Y18960D02*
X21500Y18960D01*
X2593500Y18960D02*
X2593500Y18960D01*
X22500Y17960D02*
X22500Y17960D01*
X2592500Y17960D02*
X2592500Y17960D01*
X23500Y16960D02*
X23500Y16960D01*
X2591500Y16960D02*
X2591500Y16960D01*
X24500Y15960D02*
X24500Y15960D01*
X2590500Y15960D02*
X2590500Y15960D01*
X25500Y14960D02*
X26500Y14960D01*
X2588500Y14960D02*
X2589500Y14960D01*
X27500Y13960D02*
X27500Y13960D01*
X2587500Y13960D02*
X2587500Y13960D01*
X28500Y12960D02*
X29500Y12960D01*
X2585500Y12960D02*
X2586500Y12960D01*
X30500Y11960D02*
X31500Y11960D01*
X2583500Y11960D02*
X2584500Y11960D01*
X32500Y10960D02*
X34500Y10960D01*
X2580500Y10960D02*
X2582500Y10960D01*
X34500Y9960D02*
X37500Y9960D01*
X2577500Y9960D02*
X2579500Y9960D01*
X38500Y8960D02*
X42500Y8960D01*
X49500Y8960D02*
X2565500Y8960D01*
X2571500Y8960D02*
X2576500Y8960D01*
X43500Y7960D02*
X48500Y7960D01*
X2564500Y7960D02*
X2564500Y7960D01*
X2566500Y7960D02*
X2570500Y7960D01*
D02*
G04 End of Silk0*
M02*