G04 MADE WITH FRITZING*
G04 WWW.FRITZING.ORG*
G04 DOUBLE SIDED*
G04 HOLES PLATED*
G04 CONTOUR ON CENTER OF CONTOUR VECTOR*
%FSLAX26Y26*%
%MOIN*%
%ADD10C,0.075278*%
%ADD11C,0.088000*%
%ADD12C,0.085000*%
%ADD13C,0.092000*%
%ADD14C,0.136000*%
%ADD15R,0.088000X0.088000*%
%ADD16R,0.092000X0.092000*%
G04 MASK1*
%FSLAX26Y26*%
%MOIN*%
D10*
X2108180Y104040D03*
X2208160Y104040D03*
X2308200Y104040D03*
X2408190Y104040D03*
X2508190Y104040D03*
X1648160Y2004040D03*
X1548190Y2004040D03*
X1448180Y2004040D03*
X1348180Y2004040D03*
X1248180Y2004040D03*
X1148180Y2004040D03*
X1048180Y2004040D03*
X948173Y2004040D03*
X848173Y2004040D03*
X748159Y2004040D03*
X2508190Y2004040D03*
X2408190Y2004040D03*
X2308200Y2004040D03*
X2208160Y2004040D03*
X2108180Y2004040D03*
X2008190Y2004040D03*
X1908190Y2004040D03*
X1808180Y2004040D03*
X1208180Y104040D03*
X1108180Y104040D03*
X1308180Y104040D03*
X1408190Y104040D03*
X1508190Y104040D03*
X1608180Y104040D03*
X1708160Y104040D03*
X1808180Y104040D03*
X2008190Y104040D03*
D11*
X2098170Y654040D03*
X2098170Y554040D03*
X2298170Y654040D03*
X2298170Y554040D03*
D12*
X2348170Y1604040D03*
X2348170Y1204040D03*
X1798170Y1604040D03*
X1798170Y1204040D03*
X1298170Y1604040D03*
X1298170Y1204040D03*
X1848170Y704040D03*
X1848170Y304040D03*
X2548170Y704040D03*
X2548170Y304040D03*
D13*
X1942800Y704200D03*
X1942800Y406200D03*
X2448170Y704040D03*
X2448170Y406040D03*
D12*
X1175340Y1609952D03*
X1175340Y1354042D03*
X998168Y1609952D03*
X998168Y1354042D03*
X1675340Y1609952D03*
X1675340Y1354042D03*
X1498170Y1609952D03*
X1498170Y1354042D03*
X2225340Y1609952D03*
X2225340Y1354042D03*
X2048170Y1609952D03*
X2048170Y1354042D03*
X548173Y1049320D03*
X646593Y950890D03*
X548173Y754050D03*
X646593Y557200D03*
X548173Y458780D03*
X154473Y852470D03*
D14*
X351323Y458780D03*
X351323Y1049320D03*
D12*
X154473Y655620D03*
X1098170Y404040D03*
X1498170Y404040D03*
D15*
X2098170Y654040D03*
X2298170Y654040D03*
D16*
X1942800Y705200D03*
X2448170Y705040D03*
G04 End of Mask1*
M02*