; NON-PLATED HOLES START AT T1
; THROUGH (PLATED) HOLES START AT T100
M48
INCH
T100C0.038000
T101C0.042000
T102C0.086000
T103C0.040278
T104C0.035000
%
T100
X020981Y006540
X022981Y006540
X022981Y005540
X020981Y005540
T101
X019428Y007042
X019428Y004062
X024481Y007040
X024481Y004060
T102
X003513Y010493
X003513Y004587
T103
X014081Y001040
X024081Y020040
X022081Y001040
X020081Y001040
X018081Y020040
X025081Y001040
X017081Y001040
X024081Y001040
X012081Y001040
X022081Y020040
X013481Y020040
X020081Y020040
X018081Y001040
X025081Y020040
X011481Y020040
X019081Y020040
X015081Y001040
X016481Y020040
X023082Y020040
X021081Y001040
X007481Y020040
X009481Y020040
X014481Y020040
X011081Y001040
X008481Y020040
X015481Y020040
X021081Y020040
X023082Y001040
X010481Y020040
X016081Y001040
X012481Y020040
X013081Y001040
T104
X020481Y013540
X014981Y016099
X018481Y003040
X009981Y016099
X005481Y010493
X012981Y016040
X022253Y013540
X022253Y016099
X017981Y016040
X023481Y016040
X025481Y003040
X009981Y013540
X001544Y006556
X023481Y012040
X005481Y007540
X005481Y004587
X016753Y016099
X017981Y012040
X011753Y013540
X014981Y013540
X025481Y007040
X020481Y016099
X014981Y004040
X010981Y004040
X001544Y008524
X012981Y012040
X011753Y016099
X016753Y013540
X006465Y005572
X006465Y009508
X018481Y007040
T00
M30
